<?xml version="1.0" encoding="utf-8"?>
<!-- Generator: Adobe Illustrator 23.0.3, SVG Export Plug-In . SVG Version: 6.00 Build 0)  -->
<svg version="1.1" id="Layer_1" xmlns="http://www.w3.org/2000/svg" xmlns:xlink="http://www.w3.org/1999/xlink" x="0px" y="0px"
	 viewBox="0 0 48 48" style="enable-background:new 0 0 48 48;" xml:space="preserve">
<style type="text/css">
	.st0{fill:url(#SVGID_1_);}
	.st1{fill:#D8D8D8;}
</style>
<g transform="matrix(1.04866 0 0 1.04866-387.67-512.7)">
	
		<linearGradient id="SVGID_1_" gradientUnits="userSpaceOnUse" x1="731.9615" y1="42.2717" x2="731.9615" y2="88.0447" gradientTransform="matrix(1.0487 0 0 -1.0487 -375.0023 579.0117)">
		<stop  offset="0" style="stop-color:#6C6C6C"/>
		<stop  offset="1" style="stop-color:#8D8D8D"/>
	</linearGradient>
	<path class="st0" d="M392.6,488.9L392.6,488.9c12.6,0,22.9,10.2,22.9,22.9v0c0,12.6-10.2,22.9-22.9,22.9h0
		c-12.6,0-22.9-10.2-22.9-22.9v0C369.7,499.2,379.9,488.9,392.6,488.9z"/>
	<path class="st1" d="M406.2,508.9c0-0.4-0.3-0.7-0.9-0.8l-8.2-1.2l-3.7-7.5c-0.2-0.4-0.5-0.7-0.8-0.7s-0.6,0.2-0.8,0.7l-3.7,7.5
		l-8.2,1.2c-0.6,0.1-0.9,0.3-0.9,0.8c0,0.2,0.1,0.5,0.4,0.8l6,5.8l-1.4,8.2c0,0.2,0,0.3,0,0.3c0,0.2,0.1,0.4,0.2,0.6
		c0.1,0.2,0.3,0.2,0.5,0.2c0.2,0,0.4-0.1,0.7-0.2l7.4-3.9l7.4,3.9c0.2,0.1,0.4,0.2,0.7,0.2c0.2,0,0.4-0.1,0.5-0.2
		c0.1-0.2,0.2-0.4,0.2-0.6c0-0.1,0-0.3,0-0.3l-1.4-8.2l5.9-5.8C406.1,509.4,406.2,509.1,406.2,508.9"/>
</g>
</svg>
