<svg xmlns="http://www.w3.org/2000/svg" viewBox="0 0 16 16"><defs><style>.a{fill-rule:evenodd;}</style></defs><title>calendar-plus</title><path class="a" d="M3.5,0A.5.5,0,0,1,4,.5V1h8V.5a.5.5,0,0,1,1,0V1h1a2,2,0,0,1,2,2V14a2,2,0,0,1-2,2H2a2,2,0,0,1-2-2V3A2,2,0,0,1,2,1H3V.5A.5.5,0,0,1,3.5,0ZM1,4V14a1,1,0,0,0,1,1H14a1,1,0,0,0,1-1V4Z" transform="translate(0 0)"/><path class="a" d="M8,7a.5.5,0,0,1,.5.5V9H10a.5.5,0,0,1,0,1H8.5v1.5a.5.5,0,0,1-1,0V10H6A.5.5,0,0,1,6,9H7.5V7.5A.5.5,0,0,1,8,7Z" transform="translate(0 0)"/></svg>