<svg xmlns="http://www.w3.org/2000/svg" viewBox="0 0 16 16"><defs><style>.a{fill-rule:evenodd;}</style></defs><title>gear</title><path class="a" d="M8.84,1.63a.87.87,0,0,0-1.68,0l-.09.31A1.87,1.87,0,0,1,4.74,3.21a2.28,2.28,0,0,1-.36-.15L4.09,2.9A.87.87,0,0,0,2.9,4.08l.16.3a1.88,1.88,0,0,1-.75,2.54,2.39,2.39,0,0,1-.37.15l-.31.09a.87.87,0,0,0,0,1.68l.31.09a1.87,1.87,0,0,1,1.27,2.33,2.28,2.28,0,0,1-.15.36l-.16.29A.88.88,0,0,0,4.09,13.1l.29-.16a1.88,1.88,0,0,1,2.54.75,2.39,2.39,0,0,1,.15.37l.09.31a.87.87,0,0,0,1.68,0l.09-.32a1.87,1.87,0,0,1,2.33-1.26,2.28,2.28,0,0,1,.36.15l.29.16a.88.88,0,0,0,1.19-1.19l-.16-.29a1.88,1.88,0,0,1,.75-2.54,2.39,2.39,0,0,1,.37-.15l.31-.09a.87.87,0,0,0,0-1.68l-.32-.09a1.88,1.88,0,0,1-1.26-2.33,2.28,2.28,0,0,1,.15-.36l.16-.3A.87.87,0,0,0,11.91,2.9l-.29.16a1.87,1.87,0,0,1-2.54-.75,2,2,0,0,1-.15-.37l-.09-.31ZM6.2,1.34a1.88,1.88,0,0,1,3.6,0l.09.32A.87.87,0,0,0,11,2.25a.51.51,0,0,0,.17-.07l.3-.16A1.87,1.87,0,0,1,14,4.56l-.16.29A.87.87,0,0,0,14.17,6l.17.07.32.09a1.88,1.88,0,0,1,0,3.6l-.32.09A.87.87,0,0,0,13.75,11a.51.51,0,0,0,.07.17l.16.3A1.87,1.87,0,0,1,11.44,14l-.3-.16a.87.87,0,0,0-1.25.52l-.09.32a1.88,1.88,0,0,1-3.6,0l-.09-.32A.87.87,0,0,0,5,13.75a.67.67,0,0,0-.18.07L4.56,14A1.87,1.87,0,0,1,2,11.44l.16-.3A.86.86,0,0,0,1.83,10l-.17-.07L1.34,9.8a1.88,1.88,0,0,1,0-3.6l.32-.09A.87.87,0,0,0,2.25,5a.67.67,0,0,0-.07-.18L2,4.56A1.87,1.87,0,0,1,4.56,2l.29.16a.87.87,0,0,0,1.26-.52Z" transform="translate(0 0)"/><path class="a" d="M8,5.75A2.25,2.25,0,1,0,10.25,8,2.25,2.25,0,0,0,8,5.75ZM4.75,8A3.25,3.25,0,1,1,8,11.25,3.26,3.26,0,0,1,4.75,8Z" transform="translate(0 0)"/></svg>