<svg xmlns="http://www.w3.org/2000/svg" viewBox="0 0 16 16"><title>info-square</title><path d="M14,1a1,1,0,0,1,1,1V14a1,1,0,0,1-1,1H2a1,1,0,0,1-1-1V2A1,1,0,0,1,2,1ZM2,0A2,2,0,0,0,0,2V14a2,2,0,0,0,2,2H14a2,2,0,0,0,2-2V2a2,2,0,0,0-2-2Z" transform="translate(0 0)"/><path d="M8.93,6.59l-2.29.28-.08.38L7,7.34c.29.07.35.17.29.47l-.74,3.46c-.2.9.1,1.32.81,1.32A2.09,2.09,0,0,0,8.83,12l.09-.42a1.09,1.09,0,0,1-.69.25c-.27,0-.37-.2-.3-.54ZM9,4.5a1,1,0,1,1-1-1A1,1,0,0,1,9,4.5Z" transform="translate(0 0)"/></svg>