<svg xmlns="http://www.w3.org/2000/svg" viewBox="0 0 8.99 50.96"><defs><style>.a{fill:#1d1d1b;}</style></defs><title>info_icon</title><path class="a" d="M321.37,257.18a4.49,4.49,0,0,1,4.46-4.46,4.41,4.41,0,0,1,3.22,1.31,4.28,4.28,0,0,1,1.31,3.15,4.13,4.13,0,0,1-1.31,3.1,4.45,4.45,0,0,1-3.22,1.27,4.33,4.33,0,0,1-3.14-1.27A4.14,4.14,0,0,1,321.37,257.18Zm8.52,42.56a3.75,3.75,0,0,1-1.27,2.94,4,4,0,0,1-2.6,1,3.75,3.75,0,0,1-3.85-3.58l-.24-30.23a4.42,4.42,0,0,1,1.42-2.51,3.72,3.72,0,0,1,2.44-.83,4.06,4.06,0,0,1,2.36.75,3.89,3.89,0,0,1,1.5,2.35Z" transform="translate(-321.37 -252.72)"/></svg>