<svg xmlns="http://www.w3.org/2000/svg" viewBox="0 0 11 16"><defs><style>.a{fill-rule:evenodd;}</style></defs><title>lightning</title><path class="a" d="M11.25.07a.5.5,0,0,1,.23.58L9.68,6.5H13a.5.5,0,0,1,.5.5.48.48,0,0,1-.14.34l-8,8.5a.49.49,0,0,1-.7,0,.51.51,0,0,1-.14-.51L6.32,9.5H3A.5.5,0,0,1,2.5,9a.48.48,0,0,1,.14-.34l8-8.5a.49.49,0,0,1,.61-.09ZM4.16,8.5H7a.5.5,0,0,1,.5.5.77.77,0,0,1,0,.15L6.11,13.59,11.84,7.5H9A.5.5,0,0,1,8.5,7a.77.77,0,0,1,0-.15L9.89,2.41Z" transform="translate(-2.5 0)"/></svg>