<svg xmlns="http://www.w3.org/2000/svg" viewBox="0 0 11.75 16.74"><defs><style>.a{stroke:#000;stroke-miterlimit:10;stroke-width:0.75px;fill-rule:evenodd;}</style></defs><title>lightning</title><path class="a" d="M10.16,2.13a.49.49,0,0,1,.23.58L8.59,8.56h3.32a.5.5,0,0,1,.36.84l-8,8.5a.49.49,0,0,1-.69,0h0a.51.51,0,0,1-.14-.51l1.8-5.83H1.91a.5.5,0,0,1-.5-.5.48.48,0,0,1,.14-.34l8-8.5A.49.49,0,0,1,10.16,2.13ZM3.07,10.56H5.91a.5.5,0,0,1,.5.5.38.38,0,0,1,0,.15L5,15.65l5.73-6.09H7.91a.5.5,0,0,1-.5-.5V8.91L8.8,4.47Z" transform="translate(-1.04 -1.68)"/></svg>