<svg xmlns="http://www.w3.org/2000/svg" viewBox="0 0 15 14"><title>quiz-checks</title><path d="M7,2.5A.5.5,0,0,1,7.5,2h7a.5.5,0,0,1,.5.5v1a.5.5,0,0,1-.5.5h-7A.5.5,0,0,1,7,3.5ZM2,1A2,2,0,0,0,0,3V5A2,2,0,0,0,2,7H4A2,2,0,0,0,6,5V3A2,2,0,0,0,4,1ZM2,9a2,2,0,0,0-2,2v2a2,2,0,0,0,2,2H4a2,2,0,0,0,2-2V11A2,2,0,0,0,4,9Zm.85-3.65a.48.48,0,0,1-.7,0h0l-1-1a.48.48,0,0,1,0-.7.48.48,0,0,1,.7,0l.65.64L4.15,2.65a.49.49,0,0,1,.7.7Zm0,8a.48.48,0,0,1-.7,0h0l-1-1a.48.48,0,0,1,0-.7.48.48,0,0,1,.7,0h0l.65.64,1.65-1.64a.49.49,0,0,1,.7.7ZM7,10.5a.5.5,0,0,1,.5-.5h7a.5.5,0,0,1,.5.5v1a.5.5,0,0,1-.5.5h-7a.5.5,0,0,1-.5-.5Zm0-5A.5.5,0,0,1,7.5,5h5a.5.5,0,0,1,0,1h-5A.5.5,0,0,1,7,5.5Zm0,8a.5.5,0,0,1,.5-.5h5a.5.5,0,0,1,0,1h-5A.5.5,0,0,1,7,13.5Z" transform="translate(0 -1)"/></svg>