<svg xmlns="http://www.w3.org/2000/svg" viewBox="0 0 139.16 136.69"><defs><style>.a,.c,.d{fill:none;}.a,.b,.c,.d{stroke:#1d1d1b;stroke-linecap:round;}.a{stroke-miterlimit:10;}.a,.b,.c{stroke-width:4px;}.b{fill:#1d1d1b;}.b,.c,.d{stroke-linejoin:round;}.d{stroke-width:3px;}</style></defs><title>remeber</title><path class="a" d="M243.6,144.78v53.91A23.31,23.31,0,0,1,220.29,222H137.58a23.31,23.31,0,0,1-23.31-23.31V116a23.31,23.31,0,0,1,23.31-23.31H197.1" transform="translate(-112.27 -87.31)"/><path class="b" d="M228.46,90.3a55.94,55.94,0,0,0-11.21-1L201.55,105l32.18,32.18,15.7-15.7C249.43,101.57,241.63,93,228.46,90.3Z" transform="translate(-112.27 -87.31)"/><path class="c" d="M195.68,110.87l32.19,32.19-59.41,59.4H136V170.55l59.67-59.68" transform="translate(-112.27 -87.31)"/><line class="d" x1="23.74" y1="83.24" x2="56.19" y2="115.16"/><line class="d" x1="34.04" y1="93.28" x2="93.64" y2="33.68"/><line class="d" x1="46.69" y1="105.37" x2="106.19" y2="45.87"/></svg>