<svg xmlns="http://www.w3.org/2000/svg" viewBox="0 0 224.36 38.65"><defs><style>.a{fill:#f0f0fa;}.b,.c,.d,.e,.g,.h{fill:none;}.b,.c{stroke:#000;}.b,.c,.d,.e{stroke-linecap:round;stroke-width:0.5px;}.b{stroke-linejoin:round;}.c,.d,.e,.g,.h{stroke-miterlimit:10;}.d,.g,.h{stroke:#be1622;}.e{stroke:#063;}.f{fill:#063;}.h{stroke-dasharray:1.96 1.96;}.i{fill:#be1622;}</style></defs><title>hksgks</title><rect class="a" width="224.36" height="38.65"/><path d="M6.38,17.9H4.3v3.26H3V16.84H6.38Z"/><path d="M11,21.16H9.62V17.9h-1v1.33a5.82,5.82,0,0,1-.09,1.2.81.81,0,0,1-.4.56,2.25,2.25,0,0,1-1,.18,3.22,3.22,0,0,1-.5,0v-.88h.2a.54.54,0,0,0,.39-.12.65.65,0,0,0,.11-.43V16.84H11Z"/><path d="M13.69,18.35a2,2,0,0,1,.73-1.18,2.37,2.37,0,0,1,1.43-.41,2.3,2.3,0,0,1,1.67.58A2.24,2.24,0,0,1,18.1,19a2.27,2.27,0,0,1-.58,1.68,2.15,2.15,0,0,1-1.61.58,2.25,2.25,0,0,1-1.63-.52,2.09,2.09,0,0,1-.63-1.3h-.47v1.75H11.84V16.84h1.34v1.51Zm2.17,1.88a.83.83,0,0,0,.68-.29,1.63,1.63,0,0,0,.23-1c0-.79-.31-1.18-.92-1.18S15,18.18,15,19,15.26,20.23,15.86,20.23Z"/><path d="M22.75,21.16h-1.5L20.73,20a1.72,1.72,0,0,0-.29-.49.37.37,0,0,0-.28-.1v1.71H18.82V16.84h1.34V18.5a.39.39,0,0,0,.27-.13,3.08,3.08,0,0,0,.3-.66,2,2,0,0,1,.3-.58,1,1,0,0,1,.5-.25,5.68,5.68,0,0,1,1.08-.07v.91h-.06a.8.8,0,0,0-.51.13,1,1,0,0,0-.27.42,1.4,1.4,0,0,1-.23.43.79.79,0,0,1-.34.23,1.14,1.14,0,0,1,.51.32,3.74,3.74,0,0,1,.46.73Z"/><path d="M23.06,19a2.27,2.27,0,0,1,.59-1.65,2.22,2.22,0,0,1,1.64-.59,2.28,2.28,0,0,1,1.66.58A2.19,2.19,0,0,1,27.53,19a2.7,2.7,0,0,1-.25,1.25,1.84,1.84,0,0,1-.74.75,2.42,2.42,0,0,1-1.2.27A2.87,2.87,0,0,1,24.13,21a1.88,1.88,0,0,1-.77-.74A2.42,2.42,0,0,1,23.06,19Zm1.34,0a1.47,1.47,0,0,0,.24.94.81.81,0,0,0,.66.28A.79.79,0,0,0,26,20a1.55,1.55,0,0,0,.24-1,1.28,1.28,0,0,0-.25-.89.88.88,0,0,0-1.31,0A1.49,1.49,0,0,0,24.4,19Z"/><path d="M31,18.81a.93.93,0,0,1,.78,1,1.25,1.25,0,0,1-.49,1,2.08,2.08,0,0,1-1.38.41A1.73,1.73,0,0,1,28,20l1.26-.09a.55.55,0,0,0,.6.45.61.61,0,0,0,.42-.14.52.52,0,0,0,.14-.38.48.48,0,0,0-.18-.39.74.74,0,0,0-.49-.15h-.36v-.77h.28a.58.58,0,0,0,.41-.14.48.48,0,0,0,.14-.37c0-.23-.14-.35-.44-.35a.47.47,0,0,0-.52.41l-1.2-.14a1.57,1.57,0,0,1,1.75-1.13,2.22,2.22,0,0,1,1.26.32,1,1,0,0,1,.45.84A.9.9,0,0,1,31,18.81Z"/><path d="M35.06,20.44H33.54l-.21.72H32l1.62-4.32h1.46l1.62,4.32h-1.4Zm-.28-.93L34.3,18l-.47,1.55Z"/><path d="M57.78,17.9H55.69v3.26H54.36V16.84h3.42Z"/><path d="M62.35,21.16H61V17.9H60v1.33a5.82,5.82,0,0,1-.09,1.2.79.79,0,0,1-.4.56,2.25,2.25,0,0,1-1,.18,3.22,3.22,0,0,1-.5,0v-.88h.2a.54.54,0,0,0,.39-.12.65.65,0,0,0,.11-.43V16.84h3.71Z"/><path d="M65.09,18.35a1.9,1.9,0,0,1,.72-1.18,2.37,2.37,0,0,1,1.43-.41,2.29,2.29,0,0,1,1.67.58A2.2,2.2,0,0,1,69.49,19a2.27,2.27,0,0,1-.58,1.68,2.15,2.15,0,0,1-1.61.58,2.25,2.25,0,0,1-1.63-.52,2.19,2.19,0,0,1-.63-1.3h-.47v1.75H63.24V16.84h1.33v1.51Zm2.16,1.88a.82.82,0,0,0,.68-.29,1.63,1.63,0,0,0,.23-1c0-.79-.31-1.18-.92-1.18s-.89.41-.89,1.24S66.65,20.23,67.25,20.23Z"/><path d="M74.14,21.16h-1.5L72.12,20a1.72,1.72,0,0,0-.29-.49.37.37,0,0,0-.28-.1v1.71H70.22V16.84h1.33V18.5a.39.39,0,0,0,.27-.13,2.63,2.63,0,0,0,.3-.66,1.79,1.79,0,0,1,.31-.58.91.91,0,0,1,.49-.25A5.68,5.68,0,0,1,74,16.81v.91h-.06a.8.8,0,0,0-.51.13,1,1,0,0,0-.27.42,1.4,1.4,0,0,1-.23.43.81.81,0,0,1-.33.23,1.16,1.16,0,0,1,.5.32,3.32,3.32,0,0,1,.46.73Z"/><path d="M74.45,19A2.27,2.27,0,0,1,75,17.35a2.22,2.22,0,0,1,1.64-.59,2.28,2.28,0,0,1,1.66.58A2.19,2.19,0,0,1,78.93,19a2.7,2.7,0,0,1-.26,1.25,1.82,1.82,0,0,1-.73.75,2.47,2.47,0,0,1-1.2.27A2.84,2.84,0,0,1,75.53,21a1.85,1.85,0,0,1-.78-.74A2.42,2.42,0,0,1,74.45,19Zm1.34,0A1.47,1.47,0,0,0,76,20a.93.93,0,0,0,1.33,0,1.63,1.63,0,0,0,.23-1,1.33,1.33,0,0,0-.24-.89.86.86,0,0,0-.67-.29.81.81,0,0,0-.65.29A1.49,1.49,0,0,0,75.79,19Z"/><path d="M82.35,18.81a.93.93,0,0,1,.78,1,1.25,1.25,0,0,1-.49,1,2.07,2.07,0,0,1-1.37.41A1.73,1.73,0,0,1,79.38,20l1.26-.09a.55.55,0,0,0,.6.45.57.57,0,0,0,.42-.14.55.55,0,0,0,0-.77.72.72,0,0,0-.49-.15h-.36v-.77h.29a.57.57,0,0,0,.4-.14A.45.45,0,0,0,81.6,18c0-.23-.14-.35-.43-.35a.47.47,0,0,0-.53.41l-1.2-.14a1.57,1.57,0,0,1,1.75-1.13,2.17,2.17,0,0,1,1.26.32,1,1,0,0,1,.46.84A.91.91,0,0,1,82.35,18.81Z"/><path d="M83.63,19a2,2,0,0,1,2.23-2.24,2.28,2.28,0,0,1,1.66.58A2.19,2.19,0,0,1,88.1,19a2.7,2.7,0,0,1-.25,1.25,1.84,1.84,0,0,1-.74.75,2.42,2.42,0,0,1-1.2.27A2.84,2.84,0,0,1,84.7,21a1.85,1.85,0,0,1-.78-.74A2.53,2.53,0,0,1,83.63,19ZM85,19a1.47,1.47,0,0,0,.24.94.85.85,0,0,0,.67.28.81.81,0,0,0,.66-.28,1.55,1.55,0,0,0,.24-1,1.28,1.28,0,0,0-.25-.89.84.84,0,0,0-.67-.29.79.79,0,0,0-.64.29A1.42,1.42,0,0,0,85,19Z"/><path d="M88.51,19.12h1.74v.93H88.51Z"/><path d="M94.11,17.81l-1.2.15a.67.67,0,0,0-.15-.36.45.45,0,0,0-.28-.1.5.5,0,0,0-.45.3,2.44,2.44,0,0,0-.17.9,1.59,1.59,0,0,1,.44-.32,1.21,1.21,0,0,1,.52-.1,1.29,1.29,0,0,1,1,.41,1.41,1.41,0,0,1,.4,1,1.56,1.56,0,0,1-.2.78,1.32,1.32,0,0,1-.56.54,2,2,0,0,1-.9.18,2.09,2.09,0,0,1-1-.22,1.58,1.58,0,0,1-.63-.71A3.05,3.05,0,0,1,90.64,19a2.48,2.48,0,0,1,.49-1.71,1.76,1.76,0,0,1,1.37-.55,2.23,2.23,0,0,1,.81.12,1.29,1.29,0,0,1,.5.35A1.68,1.68,0,0,1,94.11,17.81ZM91.9,19.73a.82.82,0,0,0,.17.55.55.55,0,0,0,.44.2.5.5,0,0,0,.39-.18.76.76,0,0,0,.16-.53.83.83,0,0,0-.16-.56.52.52,0,0,0-.41-.19.54.54,0,0,0-.42.18A.74.74,0,0,0,91.9,19.73Z"/><path d="M94.54,19.12h1.75v.93H94.54Z"/><path d="M99.81,17.17c1.32.14,2,.73,2,1.77s-.65,1.65-2,1.77v.45H98.6V20.7c-1.31-.12-2-.7-2-1.76s.65-1.64,2-1.77v-.33h1.21ZM98.6,19.82V18a.87.87,0,0,0-.48.34,1,1,0,0,0-.18.57.88.88,0,0,0,.18.54A1,1,0,0,0,98.6,19.82Zm1.21,0a.87.87,0,0,0,.49-.32.89.89,0,0,0,.18-.56.91.91,0,0,0-.18-.56.88.88,0,0,0-.49-.35Z"/><path d="M102.27,19a2,2,0,0,1,2.23-2.24,2.3,2.3,0,0,1,1.66.58,2.19,2.19,0,0,1,.58,1.62,2.83,2.83,0,0,1-.25,1.25,1.84,1.84,0,0,1-.74.75,2.42,2.42,0,0,1-1.2.27,2.84,2.84,0,0,1-1.21-.23,1.85,1.85,0,0,1-.78-.74A2.42,2.42,0,0,1,102.27,19Zm1.33,0a1.47,1.47,0,0,0,.24.94.93.93,0,0,0,1.33,0,1.55,1.55,0,0,0,.24-1,1.33,1.33,0,0,0-.25-.89.84.84,0,0,0-.67-.29.83.83,0,0,0-.65.29A1.49,1.49,0,0,0,103.6,19Z"/><path d="M110.33,19.39l1.17.35a2.14,2.14,0,0,1-.37.82,1.61,1.61,0,0,1-.63.5,2.37,2.37,0,0,1-1,.17,2.86,2.86,0,0,1-1.15-.2,1.82,1.82,0,0,1-.77-.72A2.44,2.44,0,0,1,107.3,19a2.23,2.23,0,0,1,.57-1.65,2.59,2.59,0,0,1,2.9-.25,1.94,1.94,0,0,1,.69,1l-1.18.26a.88.88,0,0,0-.13-.29.67.67,0,0,0-.27-.23.74.74,0,0,0-.36-.09.77.77,0,0,0-.7.37,1.56,1.56,0,0,0-.18.85,1.57,1.57,0,0,0,.22,1,.73.73,0,0,0,.61.27.72.72,0,0,0,.58-.22A1.32,1.32,0,0,0,110.33,19.39Z"/><path d="M115.1,17.17c1.32.14,2,.73,2,1.77s-.65,1.65-2,1.77v.45h-1.21V20.7c-1.31-.12-2-.7-2-1.76s.65-1.64,2-1.77v-.33h1.21Zm-1.21,2.65V18a.87.87,0,0,0-.48.34,1,1,0,0,0-.18.57.88.88,0,0,0,.18.54A1,1,0,0,0,113.89,19.82Zm1.21,0a.87.87,0,0,0,.49-.32.89.89,0,0,0,.18-.56.91.91,0,0,0-.18-.56.88.88,0,0,0-.49-.35Z"/><path d="M120.38,20.44h-1.52l-.21.72h-1.36l1.62-4.32h1.46L122,21.16h-1.4Zm-.28-.93L119.62,18l-.47,1.55Z"/><path d="M122.11,16.84h4.06V17.9h-1.36v3.26h-1.34V17.9h-1.36Z"/><path d="M150.21,17.17c1.31.14,2,.73,2,1.77s-.66,1.65-2,1.77v.45H149V20.7c-1.31-.12-2-.7-2-1.76s.66-1.64,2-1.77v-.33h1.21ZM149,19.82V18a.87.87,0,0,0-.48.34,1,1,0,0,0-.18.57.88.88,0,0,0,.18.54A1,1,0,0,0,149,19.82Zm1.21,0a.94.94,0,0,0,.49-.32.89.89,0,0,0,.17-.56.91.91,0,0,0-.17-.56.88.88,0,0,0-.49-.35Z"/><path d="M152.82,16.84H155a1.52,1.52,0,0,1,1.09.34,1.3,1.3,0,0,1,.36,1,1.36,1.36,0,0,1-.39,1,1.76,1.76,0,0,1-1.2.36h-.74v1.61h-1.34Zm1.34,1.84h.33a.89.89,0,0,0,.54-.13.43.43,0,0,0,.16-.35.48.48,0,0,0-.14-.34.68.68,0,0,0-.51-.14h-.38Z"/><path d="M156.78,16.84h1.45l.6,1.78.59-1.78h1.36l-1.42,3.33a5.45,5.45,0,0,1-.3.6.91.91,0,0,1-.39.33,1.51,1.51,0,0,1-.7.13,7.18,7.18,0,0,1-.81-.07v-.89l.5,0a.51.51,0,0,0,.56-.35Z"/><path d="M165.17,21.16h-1.51L163.14,20a2.1,2.1,0,0,0-.28-.49.39.39,0,0,0-.29-.1v1.71h-1.33V16.84h1.33V18.5a.35.35,0,0,0,.27-.13,2.51,2.51,0,0,0,.31-.66,1.8,1.8,0,0,1,.3-.58.94.94,0,0,1,.5-.25,5.68,5.68,0,0,1,1.08-.07v.91H165a.8.8,0,0,0-.51.13,1,1,0,0,0-.27.42,1.4,1.4,0,0,1-.23.43.81.81,0,0,1-.33.23,1.16,1.16,0,0,1,.5.32,3,3,0,0,1,.46.73Z"/><path d="M165.34,16.84h4.06V17.9H168v3.26H166.7V17.9h-1.36Z"/><path d="M169.83,19a2.27,2.27,0,0,1,.59-1.65,2.22,2.22,0,0,1,1.64-.59,2.28,2.28,0,0,1,1.66.58,2.19,2.19,0,0,1,.59,1.62,2.7,2.7,0,0,1-.26,1.25,1.78,1.78,0,0,1-.74.75,2.42,2.42,0,0,1-1.2.27A2.87,2.87,0,0,1,170.9,21a1.88,1.88,0,0,1-.77-.74A2.42,2.42,0,0,1,169.83,19Zm1.34,0a1.47,1.47,0,0,0,.24.94.93.93,0,0,0,1.33,0,1.63,1.63,0,0,0,.23-1,1.33,1.33,0,0,0-.24-.89.86.86,0,0,0-.67-.29.81.81,0,0,0-.65.29A1.49,1.49,0,0,0,171.17,19Z"/><path d="M177.73,18.81a.93.93,0,0,1,.78,1,1.25,1.25,0,0,1-.49,1,2.1,2.1,0,0,1-1.38.41A1.73,1.73,0,0,1,174.76,20l1.26-.09a.55.55,0,0,0,.6.45.61.61,0,0,0,.42-.14.52.52,0,0,0,.14-.38.48.48,0,0,0-.18-.39.74.74,0,0,0-.49-.15h-.36v-.77h.28a.58.58,0,0,0,.41-.14A.48.48,0,0,0,177,18c0-.23-.14-.35-.44-.35A.47.47,0,0,0,176,18l-1.2-.14a1.57,1.57,0,0,1,1.75-1.13,2.22,2.22,0,0,1,1.26.32,1,1,0,0,1,.45.84A.9.9,0,0,1,177.73,18.81Z"/><path d="M179,19a2,2,0,0,1,2.23-2.24,2.3,2.3,0,0,1,1.66.58,2.19,2.19,0,0,1,.58,1.62,2.7,2.7,0,0,1-.25,1.25,1.84,1.84,0,0,1-.74.75,2.42,2.42,0,0,1-1.2.27,2.84,2.84,0,0,1-1.21-.23,1.85,1.85,0,0,1-.78-.74A2.53,2.53,0,0,1,179,19Zm1.33,0a1.47,1.47,0,0,0,.24.94.93.93,0,0,0,1.33,0,1.55,1.55,0,0,0,.24-1,1.33,1.33,0,0,0-.25-.89.84.84,0,0,0-.67-.29.83.83,0,0,0-.65.29A1.49,1.49,0,0,0,180.34,19Z"/><path d="M183.89,19.12h1.74v.93h-1.74Z"/><path d="M189.49,17.81l-1.2.15a.61.61,0,0,0-.16-.36.41.41,0,0,0-.27-.1.5.5,0,0,0-.45.3,2.44,2.44,0,0,0-.17.9,1.59,1.59,0,0,1,.44-.32,1.21,1.21,0,0,1,.52-.1,1.29,1.29,0,0,1,1,.41,1.45,1.45,0,0,1,.4,1,1.47,1.47,0,0,1-.21.78,1.3,1.3,0,0,1-.55.54,2,2,0,0,1-.9.18,2.09,2.09,0,0,1-1-.22,1.58,1.58,0,0,1-.63-.71A3.05,3.05,0,0,1,186,19a2.48,2.48,0,0,1,.49-1.71,1.75,1.75,0,0,1,1.36-.55,2.25,2.25,0,0,1,.82.12,1.37,1.37,0,0,1,.5.35A1.68,1.68,0,0,1,189.49,17.81Zm-2.21,1.92a.82.82,0,0,0,.17.55.55.55,0,0,0,.44.2.51.51,0,0,0,.39-.18.76.76,0,0,0,.16-.53.89.89,0,0,0-.16-.56.56.56,0,0,0-.83,0A.74.74,0,0,0,187.28,19.73Z"/><path d="M189.92,19.12h1.74v.93h-1.74Z"/><path d="M195.19,17.17c1.32.14,2,.73,2,1.77s-.65,1.65-2,1.77v.45H194V20.7c-1.31-.12-2-.7-2-1.76s.65-1.64,2-1.77v-.33h1.21ZM194,19.82V18a.87.87,0,0,0-.48.34,1,1,0,0,0-.18.57.88.88,0,0,0,.18.54A1,1,0,0,0,194,19.82Zm1.21,0a.88.88,0,0,0,.67-.88.91.91,0,0,0-.18-.56.88.88,0,0,0-.49-.35Z"/><path d="M197.64,19a2.27,2.27,0,0,1,.59-1.65,2.62,2.62,0,0,1,3.3,0,2.19,2.19,0,0,1,.59,1.62,2.7,2.7,0,0,1-.26,1.25,1.82,1.82,0,0,1-.73.75,2.45,2.45,0,0,1-1.2.27,2.84,2.84,0,0,1-1.21-.23,1.85,1.85,0,0,1-.78-.74A2.42,2.42,0,0,1,197.64,19ZM199,19a1.47,1.47,0,0,0,.24.94.93.93,0,0,0,1.33,0,1.63,1.63,0,0,0,.23-1,1.33,1.33,0,0,0-.24-.89.86.86,0,0,0-.67-.29.83.83,0,0,0-.65.29A1.49,1.49,0,0,0,199,19Z"/><path d="M205.71,19.39l1.17.35a2.14,2.14,0,0,1-.37.82,1.61,1.61,0,0,1-.63.5,2.37,2.37,0,0,1-.95.17,2.86,2.86,0,0,1-1.15-.2,1.9,1.9,0,0,1-.78-.72,2.53,2.53,0,0,1-.32-1.32,2.23,2.23,0,0,1,.57-1.65,2.19,2.19,0,0,1,1.61-.58,2.22,2.22,0,0,1,1.29.33,1.94,1.94,0,0,1,.69,1l-1.18.26a.88.88,0,0,0-.13-.29.67.67,0,0,0-.27-.23.74.74,0,0,0-.36-.09.77.77,0,0,0-.7.37A1.56,1.56,0,0,0,204,19a1.57,1.57,0,0,0,.22,1,.85.85,0,0,0,1.19.05A1.32,1.32,0,0,0,205.71,19.39Z"/><path d="M210.48,17.17c1.31.14,2,.73,2,1.77s-.66,1.65-2,1.77v.45h-1.21V20.7c-1.31-.12-2-.7-2-1.76s.66-1.64,2-1.77v-.33h1.21Zm-1.21,2.65V18a.87.87,0,0,0-.48.34,1,1,0,0,0-.18.57.88.88,0,0,0,.18.54A1,1,0,0,0,209.27,19.82Zm1.21,0a.88.88,0,0,0,.67-.88.91.91,0,0,0-.18-.56.88.88,0,0,0-.49-.35Z"/><path d="M215.76,20.44h-1.52l-.21.72h-1.36l1.62-4.32h1.46l1.62,4.32H216Zm-.28-.93L215,18l-.47,1.55Z"/><path d="M217.49,16.84h4.06V17.9h-1.37v3.26h-1.33V17.9h-1.36Z"/><line class="b" x1="39.37" y1="19.2" x2="50.38" y2="19.2"/><polygon points="51.79 19.2 49.8 20.01 50.27 19.2 49.8 18.39 51.79 19.2"/><line class="c" x1="131.02" y1="19.77" x2="142.02" y2="19.77"/><polygon points="143.44 19.77 141.45 20.59 141.92 19.77 141.45 18.96 143.44 19.77"/><line class="c" x1="143.44" y1="17.86" x2="132.43" y2="17.86"/><polygon points="131.02 17.86 133.01 17.05 132.53 17.86 133.01 18.67 131.02 17.86"/><path d="M58.71,33H57.55v1.82H56.8V32.43h1.91Z"/><path d="M59.05,32.43h2v.51H59.79v.38H61v.5H59.79v.47h1.29v.55h-2Z"/><path d="M63.67,34.84h-.84l-.29-.63a1.23,1.23,0,0,0-.16-.27.21.21,0,0,0-.16-.06v1h-.74V32.43h.74v.92a.16.16,0,0,0,.15-.07,1.18,1.18,0,0,0,.17-.36,1.24,1.24,0,0,1,.17-.33.57.57,0,0,1,.28-.14,3,3,0,0,1,.6,0v.51h0a.45.45,0,0,0-.28.07.55.55,0,0,0-.15.24.89.89,0,0,1-.13.24.41.41,0,0,1-.18.12.73.73,0,0,1,.28.19,1.64,1.64,0,0,1,.25.4Z"/><path d="M65.54,33.85l.65.2a1.29,1.29,0,0,1-.2.46,1,1,0,0,1-.36.27,1.17,1.17,0,0,1-.53.1,1.46,1.46,0,0,1-.64-.12,1,1,0,0,1-.43-.4,1.36,1.36,0,0,1-.18-.73,1.21,1.21,0,0,1,.32-.92,1.18,1.18,0,0,1,.9-.32,1.22,1.22,0,0,1,.71.18,1.06,1.06,0,0,1,.39.57l-.66.14a.62.62,0,0,0-.07-.16.37.37,0,0,0-.15-.13.46.46,0,0,0-.21-.05.43.43,0,0,0-.38.21.83.83,0,0,0-.11.47.9.9,0,0,0,.13.55.47.47,0,0,0,.66,0A.76.76,0,0,0,65.54,33.85Z"/><path d="M66.46,33.63a1.31,1.31,0,0,1,2.17-.92,1.2,1.2,0,0,1,.33.9,1.43,1.43,0,0,1-.15.7,1,1,0,0,1-.41.42,1.36,1.36,0,0,1-.67.15,1.63,1.63,0,0,1-.67-.13,1.06,1.06,0,0,1-.43-.41A1.38,1.38,0,0,1,66.46,33.63Zm.74,0a.81.81,0,0,0,.14.52.51.51,0,0,0,.74,0,.87.87,0,0,0,.13-.56.68.68,0,0,0-.14-.49A.44.44,0,0,0,67.7,33a.44.44,0,0,0-.36.16A.82.82,0,0,0,67.2,33.64Z"/><path d="M71.55,34.84h-.84l-.29-.63a1.23,1.23,0,0,0-.16-.27.21.21,0,0,0-.16-.06v1h-.74V32.43h.74v.92a.17.17,0,0,0,.15-.07,1.5,1.5,0,0,0,.17-.36,1.24,1.24,0,0,1,.17-.33.57.57,0,0,1,.28-.14,3,3,0,0,1,.6,0v.51h0a.45.45,0,0,0-.28.07.55.55,0,0,0-.15.24.89.89,0,0,1-.13.24.47.47,0,0,1-.18.12.73.73,0,0,1,.28.19,1.64,1.64,0,0,1,.25.4Z"/><path d="M74.12,32.43v2.41h-.7V33.51l-.9,1.33h-.7V32.43h.7v1.33l.9-1.33Z"/><path d="M74.62,32.43h.75v.84h.81v-.84h.75v2.41h-.75v-1h-.81v1h-.75Z"/><path d="M78.9,34.44h-.84l-.12.4h-.76l.91-2.41h.81l.9,2.41H79Zm-.15-.52-.27-.87-.26.87Z"/><path d="M81.55,33.53a.51.51,0,0,1,.43.54.72.72,0,0,1-.27.58,1.16,1.16,0,0,1-.77.23,1,1,0,0,1-1-.71l.7-.06a.31.31,0,0,0,.34.25.32.32,0,0,0,.23-.07.27.27,0,0,0,.08-.22.24.24,0,0,0-.1-.21.37.37,0,0,0-.27-.09h-.2v-.43h.16a.31.31,0,0,0,.22-.07.25.25,0,0,0,.08-.21c0-.13-.08-.2-.24-.2a.27.27,0,0,0-.3.23L79.93,33c.11-.42.43-.62,1-.62a1.22,1.22,0,0,1,.71.17.56.56,0,0,1,.25.47A.5.5,0,0,1,81.55,33.53Z"/><path d="M83.84,34.44H83l-.12.4h-.76L83,32.43h.81l.91,2.41H84Zm-.16-.52-.26-.87-.27.87Z"/><path d="M58.71,3.94H57.55V5.76H56.8V3.35h1.91Z"/><path d="M61.26,5.76h-.74V3.94h-.58v.74a3.42,3.42,0,0,1,0,.67.48.48,0,0,1-.23.32,1.34,1.34,0,0,1-.58.1l-.28,0V5.25h.12a.29.29,0,0,0,.21-.06.4.4,0,0,0,.06-.25V3.35h2.07Z"/><path d="M62.79,4.19a1.11,1.11,0,0,1,.41-.66A1.3,1.3,0,0,1,64,3.31a1.22,1.22,0,0,1,.93.32,1.21,1.21,0,0,1,.33.91,1.3,1.3,0,0,1-.32.93,1.22,1.22,0,0,1-.9.33,1.27,1.27,0,0,1-.91-.29,1.17,1.17,0,0,1-.35-.73H62.5v1h-.74V3.35h.74v.84Zm1.21,1a.45.45,0,0,0,.38-.16,1,1,0,0,0,.12-.56c0-.43-.17-.65-.51-.65s-.49.23-.49.69S63.66,5.24,64,5.24Z"/><path d="M67.84,5.76H67l-.29-.62a1.63,1.63,0,0,0-.16-.28.23.23,0,0,0-.16-.06v1h-.75V3.35h.75v.92a.18.18,0,0,0,.15-.07,2.07,2.07,0,0,0,.17-.36,1,1,0,0,1,.17-.33.53.53,0,0,1,.27-.14,3,3,0,0,1,.61,0v.51h0a.43.43,0,0,0-.28.07.47.47,0,0,0-.15.24,1.29,1.29,0,0,1-.13.24.52.52,0,0,1-.19.12.67.67,0,0,1,.28.19,1.62,1.62,0,0,1,.26.4Z"/><path d="M68,4.55a1.14,1.14,0,0,1,1.24-1.24,1.25,1.25,0,0,1,.93.32,1.25,1.25,0,0,1,.32.9,1.43,1.43,0,0,1-.14.7,1,1,0,0,1-.41.42,1.36,1.36,0,0,1-.67.15,1.45,1.45,0,0,1-.67-.13,1.08,1.08,0,0,1-.44-.41A1.38,1.38,0,0,1,68,4.55Zm.74,0a.79.79,0,0,0,.14.52.51.51,0,0,0,.74,0,.87.87,0,0,0,.13-.56A.73.73,0,0,0,69.63,4a.44.44,0,0,0-.37-.16A.44.44,0,0,0,68.9,4,.82.82,0,0,0,68.76,4.56Z"/><path d="M73.11,5.76h-.84L72,5.14a1.63,1.63,0,0,0-.16-.28.23.23,0,0,0-.16-.06v1h-.75V3.35h.75v.92a.18.18,0,0,0,.15-.07A2.07,2.07,0,0,0,72,3.84a1,1,0,0,1,.17-.33.53.53,0,0,1,.27-.14,3,3,0,0,1,.61,0v.51h0a.43.43,0,0,0-.28.07.55.55,0,0,0-.15.24,1.29,1.29,0,0,1-.13.24.52.52,0,0,1-.19.12.67.67,0,0,1,.28.19,1.62,1.62,0,0,1,.26.4Z"/><path d="M75.68,3.35V5.76H75V4.43l-.9,1.33h-.71V3.35h.7V4.68L75,3.35Z"/><path d="M76.18,3.35h.74v.84h.82V3.35h.74V5.76h-.74v-1h-.82v1h-.74Z"/><path d="M80.46,5.36h-.85l-.11.4h-.76l.9-2.41h.81l.91,2.41h-.78Zm-.15-.52L80,4l-.26.87Z"/><path d="M83.11,4.45a.52.52,0,0,1,.43.54.72.72,0,0,1-.27.58,1.18,1.18,0,0,1-.77.23,1,1,0,0,1-1-.71l.7-.06a.31.31,0,0,0,.34.26.32.32,0,0,0,.23-.08A.27.27,0,0,0,82.8,5a.24.24,0,0,0-.1-.21.4.4,0,0,0-.27-.09h-.21V4.26h.16a.33.33,0,0,0,.23-.07A.29.29,0,0,0,82.69,4c0-.13-.08-.19-.25-.19a.26.26,0,0,0-.29.22l-.66-.08c.1-.41.43-.62,1-.62a1.19,1.19,0,0,1,.7.17.55.55,0,0,1,.26.47A.52.52,0,0,1,83.11,4.45Z"/><path d="M85.39,5.36h-.84l-.12.4h-.76l.91-2.41h.81l.9,2.41h-.78Zm-.15-.52L85,4l-.26.87Z"/><path class="d" d="M97.58,23v7.25s-.14,3.29-3,3.29h-7"/><line class="d" x1="87.54" y1="31.78" x2="87.54" y2="35.46"/><path class="d" d="M187.76,15.37V8.12s-.14-3.29-3-3.29H89.36"/><line class="d" x1="89.36" y1="6.57" x2="89.36" y2="2.89"/><path class="e" d="M53.91,4.83s-5.73-.55-5.73,3.8V13"/><circle class="e" cx="48.18" cy="15.31" r="2.33"/><rect class="f" x="46.67" y="14.9" width="3.03" height="0.6"/><rect class="f" x="46.67" y="14.9" width="3.03" height="0.6" transform="translate(63.38 -32.98) rotate(90)"/><path class="e" d="M53.73,33.57S48,34.12,48,29.77V25.42"/><circle class="e" cx="48" cy="23.09" r="2.33"/><rect class="f" x="46.48" y="22.9" width="3.03" height="0.6"/><rect class="f" x="46.48" y="22.9" width="3.03" height="0.6" transform="translate(24.8 71.2) rotate(-90)"/><line class="g" x1="41.17" y1="4.81" x2="41.17" y2="5.81"/><line class="h" x1="41.17" y1="7.76" x2="41.17" y2="34.17"/><line class="g" x1="41.17" y1="35.15" x2="41.17" y2="36.15"/><path class="i" d="M10.7,5.3h.44v.5h.49V5.3h.44V6.73h-.44V6.15h-.49v.58H10.7Z"/><path class="i" d="M12.36,5.3h1.19v.3h-.74v.23h.69v.29h-.69v.29h.76v.32H12.36Z"/><path class="i" d="M13.75,6A.77.77,0,0,1,15,5.47a.69.69,0,0,1,.2.53.8.8,0,0,1-.09.41.53.53,0,0,1-.24.25.82.82,0,0,1-.4.09,1,1,0,0,1-.4-.07.62.62,0,0,1-.26-.25A.87.87,0,0,1,13.75,6Zm.45,0a.44.44,0,0,0,.08.31.27.27,0,0,0,.22.09.28.28,0,0,0,.22-.09A.53.53,0,0,0,14.8,6a.41.41,0,0,0-.09-.3.27.27,0,0,0-.22-.09.26.26,0,0,0-.21.09A.47.47,0,0,0,14.2,6Z"/><path class="i" d="M15.92,5.85h.24a.9.9,0,0,1,.48.11.44.44,0,0,1,.16.36.34.34,0,0,1-.15.3.67.67,0,0,1-.41.11h-.76V5.3h1.2v.29h-.76Zm0,.57h.23c.13,0,.2,0,.2-.15s-.07-.13-.2-.13h-.23Z"/><path class="i" d="M17,5.3h.74a.53.53,0,0,1,.36.11.49.49,0,0,1,.11.33.45.45,0,0,1-.13.34.54.54,0,0,1-.39.12h-.25v.53H17Zm.44.61h.11a.26.26,0,0,0,.18,0,.12.12,0,0,0,0-.11.15.15,0,0,0,0-.11s-.09,0-.17,0h-.13Z"/><path class="i" d="M19.36,6.49h-.51l-.07.24h-.45l.54-1.43h.48l.54,1.43h-.46Zm-.1-.31-.15-.51L19,6.18Z"/><path class="i" d="M19.93,5.3h1.35v.35h-.46V6.73h-.44V5.65h-.45Z"/><path class="i" d="M22.85,5.3V6.73h-.42V5.94l-.53.79h-.42V5.3h.41v.79l.54-.79Z"/><path class="i" d="M23.14,5.3h.58l.22.87.23-.87h.58V6.73h-.36V5.64l-.28,1.09h-.33L23.5,5.64V6.73h-.36Z"/><path class="i" d="M25.91,6.49h-.5l-.07.24h-.45l.53-1.43h.49l.53,1.43H26Zm-.09-.31-.16-.51-.16.51Z"/><path class="i" d="M27.41,6.73V6.15h0a.2.2,0,0,0-.11,0l-.08.11-.24.44h-.5l.22-.42.06-.08a.3.3,0,0,1,.07-.08.38.38,0,0,1,.11-.05L26.75,6a.32.32,0,0,1-.14-.14.46.46,0,0,1-.05-.2.38.38,0,0,1,.07-.24.37.37,0,0,1,.17-.13,1.24,1.24,0,0,1,.31,0h.74V6.73Zm0-1.14h-.2a.3.3,0,0,0-.16,0,.14.14,0,0,0-.05.11.11.11,0,0,0,0,.08.12.12,0,0,0,.07.05l.12,0h.19Z"/><path class="i" d="M28.81,5.3h.74a.53.53,0,0,1,.36.11.45.45,0,0,1,.12.33.46.46,0,0,1-.14.34.54.54,0,0,1-.39.12h-.25v.53h-.44Zm.44.61h.11a.26.26,0,0,0,.18,0,.12.12,0,0,0,.05-.11.15.15,0,0,0,0-.11s-.09,0-.17,0h-.13Z"/><path class="i" d="M30.26,5.3h1.18v.3H30.7v.23h.69v.29H30.7v.29h.76v.32h-1.2Z"/><path class="i" d="M32.58,6.49h-.5L32,6.73h-.45L32.1,5.3h.48l.54,1.43h-.47Zm-.09-.31-.16-.51-.16.51Z"/><path class="i" d="M34.56,6.73h-.5l-.17-.37a.39.39,0,0,0-.1-.16.1.1,0,0,0-.09,0v.57h-.44V5.3h.44v.55a.13.13,0,0,0,.09,0,1.79,1.79,0,0,0,.1-.22A.41.41,0,0,1,34,5.4a.31.31,0,0,1,.16-.09l.36,0v.3h0a.27.27,0,0,0-.17,0,.56.56,0,0,0-.09.14.71.71,0,0,1-.07.15.41.41,0,0,1-.11.07.42.42,0,0,1,.16.11.83.83,0,0,1,.15.24Z"/><path class="i" d="M36.24,7h-.35V6.73H34.72V5.3h.44V6.38h.49V5.3h.44V6.4h.15Z"/><path class="i" d="M37.81,5.3V6.73h-.42V5.94l-.53.79h-.42V5.3h.41v.79l.54-.79Z"/><path class="i" d="M38.92,6.73V6.15h0a.17.17,0,0,0-.1,0,.35.35,0,0,0-.08.11l-.24.44H38l.21-.42a.23.23,0,0,1,.07-.08.3.3,0,0,1,.07-.08.38.38,0,0,1,.11-.05L38.27,6a.32.32,0,0,1-.14-.14.35.35,0,0,1-.05-.2.45.45,0,0,1,.06-.24.4.4,0,0,1,.18-.13,1.19,1.19,0,0,1,.31,0h.74V6.73Zm0-1.14h-.19a.34.34,0,0,0-.17,0,.14.14,0,0,0,0,.11.11.11,0,0,0,0,.08.12.12,0,0,0,.07.05l.12,0h.18Z"/></svg>