<svg xmlns="http://www.w3.org/2000/svg" xmlns:xlink="http://www.w3.org/1999/xlink" viewBox="0 0 152.94 105.8"><defs><style>.a{fill:#f0f0fa;}.b,.d,.e,.f,.g,.h,.k,.l,.m,.n,.o,.q{fill:none;stroke-miterlimit:10;}.b{stroke:#1d1d1b;}.b,.k,.l,.m,.n,.o,.q{stroke-width:0.5px;}.c{fill:#1d1d1b;}.d{stroke:#922d50;}.d,.e,.f,.g,.h,.k,.l,.m,.n,.o,.q{stroke-linecap:round;}.d,.e,.f,.g,.h{stroke-width:0.75px;}.e{stroke:#034078;}.f,.g,.h{stroke:#f39200;}.g{stroke-dasharray:3.1 3.1;}.h{stroke-dasharray:3.09 3.09;}.i{fill:#922d50;}.j{fill:#034078;}.k,.l,.m,.n,.o{stroke:#009fe3;}.l{stroke-dasharray:2.14 2.14;}.m{stroke-dasharray:1.97 1.97;}.n{stroke-dasharray:1.91 1.91;}.o{stroke-dasharray:2.09 2.09;}.p{fill:#009fe3;}.q{stroke:url(#a);}.r{fill:url(#b);}</style><linearGradient id="a" x1="71.56" y1="95.16" x2="96.98" y2="95.16" gradientUnits="userSpaceOnUse"><stop offset="0" stop-color="#009fe3"/><stop offset="0.26" stop-color="#009de1"/><stop offset="0.41" stop-color="#0298d8"/><stop offset="0.53" stop-color="#048fca"/><stop offset="0.63" stop-color="#0682b7"/><stop offset="0.73" stop-color="#0a729d"/><stop offset="0.81" stop-color="#0f5d7d"/><stop offset="0.89" stop-color="#144558"/><stop offset="0.97" stop-color="#1a292e"/><stop offset="1" stop-color="#1d1d1b"/></linearGradient><linearGradient id="b" x1="71.56" y1="95.16" x2="96.98" y2="95.16" xlink:href="#a"/></defs><title>michmen</title><rect class="a" width="152.94" height="105.8"/><line class="b" x1="33.85" y1="94.41" x2="33.85" y2="15.82"/><polygon class="c" points="33.85 12.29 35.88 17.26 33.85 16.08 31.82 17.26 33.85 12.29"/><line class="b" x1="30.32" y1="90.7" x2="141.59" y2="90.7"/><polygon class="c" points="145.12 90.7 140.14 92.73 141.32 90.7 140.14 88.67 145.12 90.7"/><path d="M32.82,95.3c0,1.93-.72,3-2,3-1.11,0-1.86-1-1.88-2.92s.83-3,2-3S32.82,93.49,32.82,95.3Zm-3.09.09c0,1.48.46,2.31,1.16,2.31s1.16-.91,1.16-2.36S31.69,93,30.9,93,29.73,93.84,29.73,95.39Z"/><path d="M100.63,94.42H101v.64a.2.2,0,0,0,.14-.06.69.69,0,0,0,.11-.23.58.58,0,0,1,.17-.29.39.39,0,0,1,.25-.07h.16v.27a.31.31,0,0,0-.2,0s-.07.08-.1.19a.38.38,0,0,1-.21.26.57.57,0,0,1,.33.35l0,0,.23.43h-.45l-.2-.45a.72.72,0,0,0-.11-.18.2.2,0,0,0-.14,0V96h-.41Z"/><path d="M102,95.18a.85.85,0,0,1,.1-.4.74.74,0,0,1,.29-.29.8.8,0,0,1,.41-.1.78.78,0,0,1,.59.23.79.79,0,0,1,.22.58.78.78,0,0,1-.23.59.74.74,0,0,1-.57.23,1,1,0,0,1-.41-.09.7.7,0,0,1-.3-.29A.92.92,0,0,1,102,95.18Zm.42,0a.52.52,0,0,0,.11.35.36.36,0,0,0,.55,0,.53.53,0,0,0,.11-.36.52.52,0,0,0-.11-.35.37.37,0,0,0-.27-.12.38.38,0,0,0-.28.12A.53.53,0,0,0,102.44,95.21Z"/><path d="M103.94,94.42h.41V95h.6v-.58h.41V96H105v-.66h-.6V96h-.41Z"/><path d="M106.69,95.49l.41.07a.69.69,0,0,1-.25.34.75.75,0,0,1-.43.12.73.73,0,0,1-.61-.26,1,1,0,0,1-.15-.54.9.9,0,0,1,.2-.61.67.67,0,0,1,.52-.22.68.68,0,0,1,.55.23,1,1,0,0,1,.19.7h-1a.48.48,0,0,0,.1.29.33.33,0,0,0,.24.1.25.25,0,0,0,.17,0A.38.38,0,0,0,106.69,95.49Zm0-.42a.41.41,0,0,0-.09-.27.29.29,0,0,0-.44,0,.4.4,0,0,0-.09.27Z"/><path d="M107.44,94.42h.42v1.23h.59V94.42h.41v1.23H109v.75h-.34V96h-1.25Z"/><path d="M109.66,94.9l-.38-.07a.62.62,0,0,1,.22-.33.75.75,0,0,1,.46-.11,1,1,0,0,1,.41.06.4.4,0,0,1,.19.17.8.8,0,0,1,.06.37v.48a2.55,2.55,0,0,0,0,.31,1.45,1.45,0,0,0,.08.21h-.41s0-.07,0-.12a.18.18,0,0,1,0-.05A.75.75,0,0,1,110,96a.58.58,0,0,1-.26,0,.52.52,0,0,1-.38-.13.45.45,0,0,1-.14-.33.48.48,0,0,1,.06-.24.52.52,0,0,1,.18-.15,1.45,1.45,0,0,1,.33-.1,2.79,2.79,0,0,0,.4-.1v0a.21.21,0,0,0-.06-.17.3.3,0,0,0-.22-.06.26.26,0,0,0-.27.2Zm.55.34-.25.06a.69.69,0,0,0-.22.07.18.18,0,0,0-.09.15.21.21,0,0,0,.07.15.23.23,0,0,0,.16.06.36.36,0,0,0,.22-.07.33.33,0,0,0,.1-.14.93.93,0,0,0,0-.2Z"/><path d="M110.84,94.42h1.42v.34h-.5V96h-.42V94.76h-.5Z"/><path d="M112.49,94.42h.39v.23a.61.61,0,0,1,.2-.19.57.57,0,0,1,.29-.07.6.6,0,0,1,.46.21.85.85,0,0,1,.19.6.89.89,0,0,1-.19.61.6.6,0,0,1-.46.21.47.47,0,0,1-.24,0,.77.77,0,0,1-.22-.17v.78h-.42Zm.41.76a.62.62,0,0,0,.11.39.32.32,0,0,0,.25.12.28.28,0,0,0,.24-.11.75.75,0,0,0,0-.75.3.3,0,0,0-.24-.11.31.31,0,0,0-.26.11A.58.58,0,0,0,112.9,95.18Z"/><path d="M114.66,94.9l-.38-.07a.62.62,0,0,1,.22-.33.75.75,0,0,1,.46-.11,1,1,0,0,1,.41.06.4.4,0,0,1,.19.17.8.8,0,0,1,.06.37v.48a2.55,2.55,0,0,0,0,.31,1.45,1.45,0,0,0,.08.21h-.41s0-.07,0-.12a.18.18,0,0,1,0-.05A.75.75,0,0,1,115,96a.58.58,0,0,1-.26,0,.52.52,0,0,1-.38-.13.45.45,0,0,1-.14-.33.48.48,0,0,1,.06-.24.52.52,0,0,1,.18-.15,1.45,1.45,0,0,1,.33-.1,2.79,2.79,0,0,0,.4-.1v0a.21.21,0,0,0-.06-.17.3.3,0,0,0-.22-.06.26.26,0,0,0-.27.2Zm.55.34-.25.06a.69.69,0,0,0-.22.07.18.18,0,0,0-.09.15.21.21,0,0,0,.07.15.23.23,0,0,0,.16.06.36.36,0,0,0,.22-.07.33.33,0,0,0,.1-.14.93.93,0,0,0,0-.2Z"/><path d="M116,94.42h.42v1.23H117V94.42h.41v1.23h.17v.75h-.34V96H116Z"/><path d="M117.87,94.42h.4v1l.64-1h.4V96h-.39V95l-.65,1h-.4Z"/><path d="M121.08,94.42V96h-.41v-.65h0a.49.49,0,0,0-.2,0,.52.52,0,0,0-.14.15l0,0L120,96h-.49l.3-.46a.46.46,0,0,1,.23-.22.39.39,0,0,1-.28-.13.47.47,0,0,1-.11-.31.44.44,0,0,1,.07-.26.4.4,0,0,1,.19-.15,1.46,1.46,0,0,1,.35,0Zm-.41.27h-.3a.44.44,0,0,0-.23,0,.18.18,0,0,0-.06.15.19.19,0,0,0,.07.16.51.51,0,0,0,.25,0h.27Z"/><path d="M122.32,94.42h1.06v.34h-.64V96h-.42Z"/><path d="M123.63,94.42H125V96h-.41V94.76H124v.7a.85.85,0,0,1-.06.38.31.31,0,0,1-.14.14.7.7,0,0,1-.24,0,1.33,1.33,0,0,1-.26,0v-.31h.17c.06,0,.09,0,.1,0a1,1,0,0,0,0-.31Z"/><path d="M125.43,94.42h.42v.64h.33a.77.77,0,0,1,1.29-.46.85.85,0,0,1,.21.62,1.07,1.07,0,0,1-.08.41.67.67,0,0,1-.24.29.77.77,0,0,1-.42.1.7.7,0,0,1-.56-.2.68.68,0,0,1-.2-.44h-.33V96h-.42Zm1.49.29a.3.3,0,0,0-.25.11.62.62,0,0,0-.08.35.68.68,0,0,0,.09.42.3.3,0,0,0,.25.11.26.26,0,0,0,.24-.12.62.62,0,0,0,.08-.37.72.72,0,0,0-.08-.4A.3.3,0,0,0,126.92,94.71Z"/><path d="M128,94.42h.41v.64a.26.26,0,0,0,.15-.06,1.11,1.11,0,0,0,.1-.23.58.58,0,0,1,.17-.29.41.41,0,0,1,.25-.07h.16v.27c-.11,0-.18,0-.21,0a.35.35,0,0,0-.1.19.38.38,0,0,1-.21.26.57.57,0,0,1,.33.35l0,0,.23.43h-.45l-.2-.45a.51.51,0,0,0-.11-.18.2.2,0,0,0-.14,0V96H128Z"/><path d="M129.39,95.18a.85.85,0,0,1,.1-.4.74.74,0,0,1,.29-.29.8.8,0,0,1,.41-.1.77.77,0,0,1,.59.23.79.79,0,0,1,.22.58.78.78,0,0,1-.23.59.74.74,0,0,1-.57.23,1,1,0,0,1-.41-.09.7.7,0,0,1-.3-.29A.92.92,0,0,1,129.39,95.18Zm.42,0a.52.52,0,0,0,.11.35.36.36,0,0,0,.55,0,.53.53,0,0,0,.11-.36.52.52,0,0,0-.11-.35.37.37,0,0,0-.27-.12.38.38,0,0,0-.28.12A.53.53,0,0,0,129.81,95.21Z"/><path d="M131.71,95.35v-.27l.16,0A.18.18,0,0,0,132,95a.16.16,0,0,0,0-.12.27.27,0,0,0-.05-.14.21.21,0,0,0-.16-.06.24.24,0,0,0-.15,0,.35.35,0,0,0-.12.17l-.35-.08a.49.49,0,0,1,.23-.31.71.71,0,0,1,.39-.1.64.64,0,0,1,.44.13.38.38,0,0,1,.16.32.31.31,0,0,1-.07.21.63.63,0,0,1-.21.15.5.5,0,0,1,.26.14.32.32,0,0,1,.09.24.38.38,0,0,1-.18.31.75.75,0,0,1-.49.13c-.37,0-.6-.14-.68-.43l.38-.07a.31.31,0,0,0,.3.23.24.24,0,0,0,.18-.06.19.19,0,0,0,.07-.15.15.15,0,0,0-.07-.14.29.29,0,0,0-.19-.05Z"/><path d="M132.79,94.42h.42v.65h.41a1.18,1.18,0,0,1,.37,0,.37.37,0,0,1,.22.15.44.44,0,0,1,.09.27.39.39,0,0,1-.15.34.8.8,0,0,1-.47.12h-.89Zm.42,1.31h.38a.42.42,0,0,0,.22,0,.18.18,0,0,0,.07-.15.16.16,0,0,0-.09-.16.82.82,0,0,0-.32,0h-.26Zm1.33-1.31H135V96h-.41Z"/><path d="M136.11,94.79v-.38h1.51v.38Zm0,.65v-.38h1.51v.38Z"/><path d="M138.8,96.6V93.83h.74v.32h-.34v2.12h.34v.33Z"/><path d="M139.79,94.42h1.06v.34h-.64V96h-.42Z"/><path d="M141.1,94.42h1.39V96h-.41V94.76h-.57v.7a.85.85,0,0,1-.06.38.31.31,0,0,1-.14.14.7.7,0,0,1-.24,0,1.38,1.38,0,0,1-.26,0v-.31H141c.06,0,.09,0,.1,0a1,1,0,0,0,0-.31Z"/><path d="M142.91,94.42h.41v.64h.33a.77.77,0,0,1,1.29-.46.85.85,0,0,1,.21.62.91.91,0,0,1-.08.41.67.67,0,0,1-.24.29.77.77,0,0,1-.42.1.7.7,0,0,1-.56-.2.74.74,0,0,1-.2-.44h-.33V96h-.41Zm1.48.29a.31.31,0,0,0-.25.11.62.62,0,0,0-.08.35.68.68,0,0,0,.09.42.32.32,0,0,0,.26.11.26.26,0,0,0,.23-.12.62.62,0,0,0,.08-.37.65.65,0,0,0-.08-.4A.3.3,0,0,0,144.39,94.71Z"/><path d="M145.47,94.42h.41v.64A.26.26,0,0,0,146,95a.74.74,0,0,0,.1-.23.52.52,0,0,1,.18-.29.36.36,0,0,1,.24-.07h.17v.27c-.11,0-.18,0-.21,0a.43.43,0,0,0-.1.19.38.38,0,0,1-.21.26.57.57,0,0,1,.33.35l0,0,.23.43h-.44l-.21-.45a.51.51,0,0,0-.11-.18.2.2,0,0,0-.14,0V96h-.41Z"/><path d="M146.86,95.18a.85.85,0,0,1,.1-.4.81.81,0,0,1,.29-.29.84.84,0,0,1,.42-.1.76.76,0,0,1,.58.23.8.8,0,0,1,.23.58.82.82,0,0,1-.23.59.78.78,0,0,1-.58.23,1,1,0,0,1-.41-.09.7.7,0,0,1-.3-.29A.92.92,0,0,1,146.86,95.18Zm.43,0a.48.48,0,0,0,.11.35.35.35,0,0,0,.54,0,.53.53,0,0,0,.11-.36.52.52,0,0,0-.11-.35.36.36,0,0,0-.54,0A.49.49,0,0,0,147.29,95.21Z"/><path d="M149.18,95.35v-.27l.16,0a.18.18,0,0,0,.09-.07.16.16,0,0,0,0-.12.2.2,0,0,0-.05-.14.21.21,0,0,0-.16-.06.24.24,0,0,0-.15,0,.35.35,0,0,0-.12.17l-.35-.08a.49.49,0,0,1,.23-.31.77.77,0,0,1,.4-.1.61.61,0,0,1,.43.13.38.38,0,0,1,.16.32.31.31,0,0,1-.07.21.63.63,0,0,1-.21.15.47.47,0,0,1,.26.14.32.32,0,0,1,.09.24.4.4,0,0,1-.17.31.8.8,0,0,1-.5.13c-.37,0-.6-.14-.68-.43l.38-.07a.31.31,0,0,0,.3.23.29.29,0,0,0,.19-.06.23.23,0,0,0,.07-.15.16.16,0,0,0-.08-.14.29.29,0,0,0-.19-.05Z"/><path d="M150.26,94.42h.42v.65h.41a1.25,1.25,0,0,1,.38,0,.35.35,0,0,1,.21.15.44.44,0,0,1,.09.27.39.39,0,0,1-.15.34.78.78,0,0,1-.47.12h-.89Zm.42,1.31h.38a.4.4,0,0,0,.22,0,.16.16,0,0,0,.07-.15.16.16,0,0,0-.09-.16.76.76,0,0,0-.31,0h-.27ZM152,94.42h.41V96H152Z"/><path d="M153.41,93.83V96.6h-.73v-.33H153V94.15h-.34v-.32Z"/><path d="M5.79,5.66l-.38-.07a.62.62,0,0,1,.22-.33.84.84,0,0,1,.46-.11,1,1,0,0,1,.41.06.43.43,0,0,1,.2.17,1,1,0,0,1,0,.37v.49a1.24,1.24,0,0,0,0,.3.58.58,0,0,0,.07.21H6.43s0-.07,0-.12a.13.13,0,0,1,0,0,.65.65,0,0,1-.23.15.58.58,0,0,1-.26.06.52.52,0,0,1-.38-.14.42.42,0,0,1-.14-.33.44.44,0,0,1,.06-.23.46.46,0,0,1,.18-.16,1.45,1.45,0,0,1,.33-.1,2.46,2.46,0,0,0,.4-.1v0c0-.08,0-.14,0-.17a.34.34,0,0,0-.23,0,.29.29,0,0,0-.17,0A.36.36,0,0,0,5.79,5.66ZM6.34,6l-.25.06a1.13,1.13,0,0,0-.22.07.17.17,0,0,0-.08.15.2.2,0,0,0,.06.15A.24.24,0,0,0,6,6.49a.35.35,0,0,0,.21-.07.28.28,0,0,0,.1-.14.93.93,0,0,0,0-.2Z"/><path d="M7.14,5.18h.42v.64a.16.16,0,0,0,.14-.06.72.72,0,0,0,.11-.22A.57.57,0,0,1,8,5.24a.46.46,0,0,1,.25-.07h.16v.28a.45.45,0,0,0-.21,0,.36.36,0,0,0-.09.19A.43.43,0,0,1,7.88,6a.55.55,0,0,1,.33.34v0l.24.43H8L7.8,6.3a.46.46,0,0,0-.11-.18.22.22,0,0,0-.13,0v.67H7.14Z"/><path d="M8.49,5.18H9.9v.34H9.4V6.75H9V5.52h-.5Z"/><path d="M10.14,5.18h.4v1l.64-1h.4V6.75h-.4v-1l-.64,1h-.4Z"/><path d="M12,5.18h.91a.72.72,0,0,1,.42.11.34.34,0,0,1,.13.3.35.35,0,0,1-.07.23.31.31,0,0,1-.19.13.42.42,0,0,1,.24.15.41.41,0,0,1,.08.24.42.42,0,0,1-.13.3.66.66,0,0,1-.4.11H12Zm.42.65h.27a.66.66,0,0,0,.28,0,.19.19,0,0,0,.08-.16A.14.14,0,0,0,13,5.49a.63.63,0,0,0-.28,0h-.27Zm0,.65h.33a.51.51,0,0,0,.25,0,.17.17,0,0,0,0-.31,1,1,0,0,0-.36,0h-.21Z"/><path d="M13.85,5.18h.41v.58h.6V5.18h.41V6.75h-.41V6.09h-.6v.66h-.41Z"/><path d="M15.59,6a.91.91,0,0,1,.1-.4.76.76,0,0,1,.29-.3.87.87,0,0,1,.42-.1.78.78,0,0,1,.58.23.86.86,0,0,1,0,1.17.77.77,0,0,1-.58.24,1,1,0,0,1-.41-.1.7.7,0,0,1-.3-.29A1,1,0,0,1,15.59,6ZM16,6a.48.48,0,0,0,.11.35.35.35,0,0,0,.54,0A.49.49,0,0,0,16.78,6a.48.48,0,0,0-.11-.35.36.36,0,0,0-.54,0A.49.49,0,0,0,16,6Z"/><path d="M18.86,5.65l-.41.07a.26.26,0,0,0-.09-.18.29.29,0,0,0-.19-.07.31.31,0,0,0-.25.11.56.56,0,0,0-.09.36.62.62,0,0,0,.09.39.3.3,0,0,0,.25.12.27.27,0,0,0,.2-.07.38.38,0,0,0,.1-.23l.41.07a.67.67,0,0,1-.24.42.74.74,0,0,1-.49.15.71.71,0,0,1-.54-.22A.84.84,0,0,1,17.4,6a.81.81,0,0,1,.21-.6.69.69,0,0,1,.55-.22.81.81,0,0,1,.46.12A.7.7,0,0,1,18.86,5.65Z"/><path d="M19,5.18H20.4v.34h-.5V6.75h-.41V5.52H19Z"/><path d="M20.66,5.18h.42v.65h.41a1.76,1.76,0,0,1,.38,0,.37.37,0,0,1,.22.15.5.5,0,0,1,.08.27.41.41,0,0,1-.15.35.86.86,0,0,1-.47.11h-.89Zm.42,1.31h.38c.12,0,.2,0,.23-.06a.2.2,0,0,0,.06-.14.16.16,0,0,0-.09-.16.76.76,0,0,0-.31,0h-.27Z"/><path d="M24.25,4.59h.41v.79a.58.58,0,0,1,.18-.17.48.48,0,0,1,.65.18,1,1,0,0,1,.16.59.9.9,0,0,1-.18.57.52.52,0,0,1-.42.24.39.39,0,0,1-.21-.06.67.67,0,0,1-.18-.16v.78h-.41V6.57a.9.9,0,0,1-.19.16.43.43,0,0,1-.22.06.49.49,0,0,1-.42-.24A1,1,0,0,1,23.25,6a.92.92,0,0,1,.19-.58.56.56,0,0,1,.41-.23.54.54,0,0,1,.22,0,.58.58,0,0,1,.18.17ZM24,5.47a.23.23,0,0,0-.2.13.7.7,0,0,0-.09.37.74.74,0,0,0,.08.36c.06.09.12.14.2.14a.26.26,0,0,0,.21-.14A.75.75,0,0,0,24.25,6a.62.62,0,0,0-.09-.38A.23.23,0,0,0,24,5.47Zm1,0a.25.25,0,0,0-.21.15.81.81,0,0,0-.08.37.61.61,0,0,0,.09.35.23.23,0,0,0,.2.13.23.23,0,0,0,.2-.15A.61.61,0,0,0,25.22,6a.74.74,0,0,0-.07-.36A.23.23,0,0,0,24.94,5.47Z"/><path d="M26.86,6.25l.41.07a.7.7,0,0,1-.25.35.75.75,0,0,1-.43.12A.72.72,0,0,1,26,6.52.91.91,0,0,1,25.83,6a.9.9,0,0,1,.2-.61.67.67,0,0,1,.52-.22.72.72,0,0,1,.55.23,1,1,0,0,1,.19.71h-1a.47.47,0,0,0,.1.28.34.34,0,0,0,.24.11.25.25,0,0,0,.17-.06A.38.38,0,0,0,26.86,6.25Zm0-.42a.37.37,0,0,0-.09-.27.31.31,0,0,0-.44,0,.4.4,0,0,0-.09.27Z"/><path d="M27.62,5.18H28v.23a.65.65,0,0,1,.21-.19.53.53,0,0,1,.28-.07.62.62,0,0,1,.47.21.92.92,0,0,1,.19.6.9.9,0,0,1-.2.61.6.6,0,0,1-.46.22.48.48,0,0,1-.24-.06A.77.77,0,0,1,28,6.56v.79h-.41Zm.41.76a.59.59,0,0,0,.1.39.35.35,0,0,0,.26.13.31.31,0,0,0,.24-.12A.62.62,0,0,0,28.72,6a.6.6,0,0,0-.09-.36.32.32,0,0,0-.25-.12.34.34,0,0,0-.25.11A.52.52,0,0,0,28,5.94Z"/><path d="M29.45,5.18H30l.39,1.1.39-1.1h.51V6.75H30.9v-1l-.38,1h-.35l-.37-1v1h-.35Z"/><path d="M32.58,6.25l.41.07a.7.7,0,0,1-.25.35.75.75,0,0,1-.43.12.72.72,0,0,1-.61-.27A.91.91,0,0,1,31.55,6a.9.9,0,0,1,.2-.61.67.67,0,0,1,.52-.22.72.72,0,0,1,.55.23,1,1,0,0,1,.19.71H32a.47.47,0,0,0,.1.28.34.34,0,0,0,.24.11.25.25,0,0,0,.17-.06A.38.38,0,0,0,32.58,6.25Zm0-.42a.37.37,0,0,0-.09-.27.31.31,0,0,0-.44,0,.4.4,0,0,0-.09.27Z"/><path d="M33.33,5.18h.42v.58h.59V5.18h.42V6.75h-.42V6.09h-.59v.66h-.42Z"/><path d="M35,5.18h1.42v.34H35.9V6.75h-.41V5.52H35Z"/><path d="M37,5.66l-.37-.07a.53.53,0,0,1,.22-.33.8.8,0,0,1,.46-.11,1.07,1.07,0,0,1,.41.06.46.46,0,0,1,.19.17.83.83,0,0,1,.05.37v.49a2.11,2.11,0,0,0,0,.3.86.86,0,0,0,.07.21H37.6l0-.12a.2.2,0,0,0,0,0,.65.65,0,0,1-.23.15.55.55,0,0,1-.26.06.54.54,0,0,1-.38-.14.42.42,0,0,1-.14-.33.45.45,0,0,1,.07-.23.35.35,0,0,1,.18-.16,1.18,1.18,0,0,1,.33-.1l.4-.1v0a.21.21,0,0,0-.06-.17.33.33,0,0,0-.22,0,.3.3,0,0,0-.18,0A.36.36,0,0,0,37,5.66Zm.56.34-.25.06L37,6.13a.19.19,0,0,0-.08.15.2.2,0,0,0,.06.15.25.25,0,0,0,.17.06.33.33,0,0,0,.21-.07.23.23,0,0,0,.1-.14.75.75,0,0,0,0-.2Z"/><path d="M5.48,11V8.21h.73v.33H5.87v2.12h.34V11Z"/><path d="M7.23,9.17V8.79H8.75v.38Zm0,.66V9.44H8.75v.39Z"/><path d="M9.91,8.81h.41v.64a.26.26,0,0,0,.15-.06.88.88,0,0,0,.1-.23.62.62,0,0,1,.18-.3A.44.44,0,0,1,11,8.8h.16v.27a.45.45,0,0,0-.21,0,.51.51,0,0,0-.1.19.38.38,0,0,1-.21.27.57.57,0,0,1,.34.34v0l.23.43h-.44l-.21-.45a.44.44,0,0,0-.11-.17.18.18,0,0,0-.14,0v.66H9.91Z"/><path d="M11.3,9.57a.83.83,0,0,1,.11-.4.68.68,0,0,1,.28-.3,1,1,0,0,1,.42-.1.78.78,0,0,1,.58.23.82.82,0,0,1,.23.59.84.84,0,0,1-.23.59.8.8,0,0,1-.58.23.86.86,0,0,1-.41-.1.61.61,0,0,1-.29-.28A1,1,0,0,1,11.3,9.57Zm.43,0a.49.49,0,0,0,.11.36.36.36,0,0,0,.54,0,.49.49,0,0,0,.11-.36.5.5,0,0,0-.11-.36.36.36,0,0,0-.54,0A.52.52,0,0,0,11.73,9.59Z"/><path d="M13.23,8.81h.41v.57h.6V8.81h.41v1.56h-.41V9.72h-.6v.65h-.41Z"/><path d="M15.05,8.81h.42V10h.59V8.81h.41V10h.17v.75H16.3v-.42H15.05Z"/><path d="M17.83,9.88l.41.07a.62.62,0,0,1-.25.34.71.71,0,0,1-.43.12.69.69,0,0,1-.6-.27.91.91,0,0,1-.16-.54A.85.85,0,0,1,17,9a.67.67,0,0,1,.51-.22.7.7,0,0,1,.55.23,1,1,0,0,1,.2.71h-1a.39.39,0,0,0,.1.29.3.3,0,0,0,.24.1.28.28,0,0,0,.16,0A.32.32,0,0,0,17.83,9.88Zm0-.42a.47.47,0,0,0-.1-.28.3.3,0,0,0-.44,0,.36.36,0,0,0-.08.27Z"/><path d="M18.59,8.81H19v.57h.6V8.81H20v1.56H19.6V9.72H19v.65h-.41Z"/><path d="M20.24,8.81h1.42v.33h-.5v1.23h-.42V9.14h-.5Z"/><path d="M21.9,8.81h.38V9a.55.55,0,0,1,.21-.19.54.54,0,0,1,.28-.08.57.57,0,0,1,.46.22.84.84,0,0,1,.19.59.88.88,0,0,1-.19.61.58.58,0,0,1-.46.22.6.6,0,0,1-.24-.05,1.09,1.09,0,0,1-.22-.18V11H21.9Zm.41.75a.59.59,0,0,0,.1.39.32.32,0,0,0,.26.13.34.34,0,0,0,.24-.11A.64.64,0,0,0,23,9.59a.55.55,0,0,0-.1-.37.29.29,0,0,0-.24-.12.3.3,0,0,0-.25.12A.49.49,0,0,0,22.31,9.56Z"/><path d="M24.06,9.29l-.37-.07a.55.55,0,0,1,.22-.34.8.8,0,0,1,.46-.11.89.89,0,0,1,.41.07A.4.4,0,0,1,25,9a.8.8,0,0,1,.05.37v.48a1.9,1.9,0,0,0,0,.3.86.86,0,0,0,.07.21H24.7l0-.12a.43.43,0,0,0,0-.05.87.87,0,0,1-.23.16.71.71,0,0,1-.26.05.53.53,0,0,1-.38-.13.45.45,0,0,1-.14-.33.48.48,0,0,1,.07-.24.44.44,0,0,1,.17-.16,1.45,1.45,0,0,1,.33-.1,2,2,0,0,0,.41-.1v0a.21.21,0,0,0-.06-.17.4.4,0,0,0-.22-.05.3.3,0,0,0-.18,0A.34.34,0,0,0,24.06,9.29Zm.56.33-.25.07a.51.51,0,0,0-.23.07.19.19,0,0,0-.08.14.2.2,0,0,0,.06.15.22.22,0,0,0,.17.07A.37.37,0,0,0,24.5,10a.21.21,0,0,0,.1-.13.91.91,0,0,0,0-.21Z"/><path d="M25.42,8.81h.41V10h.59V8.81h.42V10H27v.75h-.33v-.42H25.42Z"/><path d="M27.28,8.81h.4v1l.63-1h.41v1.56h-.4v-1l-.64,1h-.4Z"/><path d="M30.49,8.81v1.56h-.41V9.72h0a.46.46,0,0,0-.2,0,.41.41,0,0,0-.14.15l0,0-.28.43h-.48l.3-.45a.46.46,0,0,1,.23-.22.37.37,0,0,1-.28-.14.41.41,0,0,1-.11-.31A.46.46,0,0,1,29.13,9a.33.33,0,0,1,.19-.14,1.08,1.08,0,0,1,.35,0Zm-.41.26h-.3a.41.41,0,0,0-.23,0,.2.2,0,0,0,0,.31.48.48,0,0,0,.24.05h.28Z"/><path d="M6.38,11.84h.41v.79A.48.48,0,0,1,7,12.46a.48.48,0,0,1,.24-.06.47.47,0,0,1,.41.24,1,1,0,0,1,.16.59.92.92,0,0,1-.18.57.49.49,0,0,1-.42.23A.41.41,0,0,1,7,14a.7.7,0,0,1-.18-.17v.78H6.38v-.78a.6.6,0,0,1-.19.17A.42.42,0,0,1,6,14a.48.48,0,0,1-.42-.23,1,1,0,0,1-.16-.59.85.85,0,0,1,.19-.58A.5.5,0,0,1,6,12.4a.51.51,0,0,1,.22,0,.58.58,0,0,1,.18.17Zm-.28.87a.26.26,0,0,0-.2.14.75.75,0,0,0-.08.37.64.64,0,0,0,.08.36.21.21,0,0,0,.4,0,.69.69,0,0,0,.09-.38.55.55,0,0,0-.1-.37A.24.24,0,0,0,6.1,12.71Zm1,0a.23.23,0,0,0-.2.15.68.68,0,0,0-.08.37.72.72,0,0,0,.08.35.25.25,0,0,0,.2.13.23.23,0,0,0,.2-.15.65.65,0,0,0,.09-.35.8.8,0,0,0-.08-.36A.24.24,0,0,0,7.07,12.72Z"/><path d="M9,13.5l.41.07a.59.59,0,0,1-.25.34.73.73,0,0,1-.43.12.71.71,0,0,1-.6-.26A.89.89,0,0,1,8,13.23a.84.84,0,0,1,.21-.61.64.64,0,0,1,.51-.22.67.67,0,0,1,.55.23,1,1,0,0,1,.19.7h-1a.38.38,0,0,0,.1.29.3.3,0,0,0,.24.1.22.22,0,0,0,.16-.05A.31.31,0,0,0,9,13.5Zm0-.42a.37.37,0,0,0-.09-.27.3.3,0,0,0-.21-.1.33.33,0,0,0-.23.1.4.4,0,0,0-.09.27Z"/><path d="M9.75,12.43h.39v.23a.52.52,0,0,1,.2-.19.57.57,0,0,1,.29-.07.6.6,0,0,1,.46.21.9.9,0,0,1,.19.6,1,1,0,0,1-.19.61.62.62,0,0,1-.47.21.46.46,0,0,1-.23,0,.58.58,0,0,1-.22-.18v.79H9.75Zm.41.76a.62.62,0,0,0,.11.39.32.32,0,0,0,.25.12.28.28,0,0,0,.24-.11.56.56,0,0,0,.1-.38.63.63,0,0,0-.1-.37.32.32,0,0,0-.5,0A.52.52,0,0,0,10.16,13.19Z"/><path d="M11.58,12.43h.51l.39,1.09.39-1.09h.52V14H13V13l-.38,1H12.3l-.37-1v1h-.35Z"/><path d="M14.71,13.5l.41.07a.64.64,0,0,1-.25.34.73.73,0,0,1-.43.12.71.71,0,0,1-.6-.26,1,1,0,0,1,0-1.15.75.75,0,0,1,1.07,0,1,1,0,0,1,.19.7h-1a.38.38,0,0,0,.1.29.29.29,0,0,0,.23.1.25.25,0,0,0,.17-.05A.31.31,0,0,0,14.71,13.5Zm0-.42a.37.37,0,0,0-.09-.27.29.29,0,0,0-.44,0,.4.4,0,0,0-.09.27Z"/><path d="M15.46,12.43h.42V13h.59v-.58h.42V14h-.42v-.66h-.59V14h-.42Z"/><path d="M17.12,12.43h1.42v.34H18V14h-.42V12.77h-.5Z"/><path d="M19.09,12.91l-.37-.07a.53.53,0,0,1,.22-.33.73.73,0,0,1,.46-.11,1.07,1.07,0,0,1,.41.06.46.46,0,0,1,.19.17.8.8,0,0,1,.06.37v.48a2.16,2.16,0,0,0,0,.31,1.45,1.45,0,0,0,.08.21h-.41a.83.83,0,0,1,0-.12l0-.05a.62.62,0,0,1-.22.15.6.6,0,0,1-.26,0,.52.52,0,0,1-.38-.13.4.4,0,0,1-.14-.33.48.48,0,0,1,.06-.24.4.4,0,0,1,.18-.16,1.8,1.8,0,0,1,.33-.09l.4-.1v0a.24.24,0,0,0-.06-.18.37.37,0,0,0-.22,0,.26.26,0,0,0-.17,0A.3.3,0,0,0,19.09,12.91Zm.56.34-.25.06a.78.78,0,0,0-.23.07.19.19,0,0,0-.08.15.18.18,0,0,0,.07.15.21.21,0,0,0,.16.06.31.31,0,0,0,.21-.07.26.26,0,0,0,.1-.14.75.75,0,0,0,0-.2Z"/><path d="M21.88,11.84v2.77h-.74v-.33h.34V12.16h-.34v-.32Z"/><path class="d" d="M33.94,90.7S50.86,78,57.63,63.67s10-41.94,28.13-42.07,44.13,0,44.13,0"/><path class="e" d="M129.89,41.36s-63.39-.66-73.68-.8S42.65,53.35,42.65,53.35L33.94,90.7"/><line class="f" x1="28.65" y1="21.54" x2="30.15" y2="21.54"/><line class="g" x1="33.25" y1="21.54" x2="93.68" y2="21.54"/><line class="f" x1="95.23" y1="21.54" x2="96.73" y2="21.54"/><line class="f" x1="28.65" y1="40.56" x2="30.15" y2="40.56"/><line class="h" x1="33.24" y1="40.56" x2="56.41" y2="40.56"/><line class="f" x1="57.95" y1="40.56" x2="59.45" y2="40.56"/><path class="i" d="M9.76,18.63h.94l.65,2.09L12,18.63h.91l-1.08,2.91h-1Z"/><path class="i" d="M13.08,21.2h.69l.26,1,.27-1H15v1.69h-.43V21.6l-.33,1.29h-.39l-.33-1.29v1.29h-.43Z"/><path class="i" d="M16.37,22.61h-.6l-.08.28h-.54l.64-1.69h.57L17,22.89h-.55Zm-.11-.36-.19-.61-.19.61Z"/><path class="i" d="M17.05,21.2h.58l.3.52.29-.52h.57l-.52.82.57.87h-.59l-.33-.54-.34.54H17l.58-.88Z"/><path class="i" d="M21.15,21.61h-.82v1.28H19.8V21.2h1.35Z"/><path class="i" d="M22.94,22.89h-.52V21.61H22v.53a2.67,2.67,0,0,1,0,.47.37.37,0,0,1-.16.22.86.86,0,0,1-.41.07.75.75,0,0,1-.2,0v-.34h.08a.21.21,0,0,0,.15-.05.25.25,0,0,0,0-.17V21.2h1.45Z"/><path class="i" d="M24.84,22.89h-.59L24,22.46a1.31,1.31,0,0,0-.11-.2.21.21,0,0,0-.11,0v.67h-.53V21.2h.53v.65a.12.12,0,0,0,.1-.05.91.91,0,0,0,.12-.26,1,1,0,0,1,.12-.23.42.42,0,0,1,.2-.1,2.12,2.12,0,0,1,.42,0v.36h0a.33.33,0,0,0-.19.05.36.36,0,0,0-.11.17.65.65,0,0,1-.09.17.3.3,0,0,1-.13.09.49.49,0,0,1,.2.13,1.72,1.72,0,0,1,.18.28Z"/><path class="i" d="M9.76,46h.94l.65,2.1L12,46h.91l-1.08,2.91h-1Z"/><path class="i" d="M14.08,48.57V50.3H13.6V49.17l-.22.14a1.51,1.51,0,0,1-.28.1V49a1.22,1.22,0,0,0,.38-.19.71.71,0,0,0,.21-.27Z"/><path class="i" d="M15.71,48.57H16l-.43,1.76h-.24Z"/><path class="i" d="M18.21,50.3H16.79a1,1,0,0,1,.15-.4,2.05,2.05,0,0,1,.47-.43,1.73,1.73,0,0,0,.26-.23.29.29,0,0,0,.06-.16.18.18,0,0,0-.06-.13.17.17,0,0,0-.14-.05.2.2,0,0,0-.15.05.42.42,0,0,0-.08.2l-.47,0a.81.81,0,0,1,.1-.31.51.51,0,0,1,.21-.17,1,1,0,0,1,.37-.06,1,1,0,0,1,.39.06.54.54,0,0,1,.22.17.5.5,0,0,1,.08.27.52.52,0,0,1-.09.29,1.11,1.11,0,0,1-.33.31l-.19.14-.12.1h.74Z"/><path class="i" d="M20.62,49H19.8V50.3h-.52V48.6h1.34Z"/><path class="i" d="M22.42,50.3H21.9V49h-.41v.52a1.79,1.79,0,0,1,0,.47.32.32,0,0,1-.16.23,1,1,0,0,1-.4.07l-.2,0v-.35h.08a.21.21,0,0,0,.15,0,.26.26,0,0,0,0-.18V48.6h1.46Z"/><path class="i" d="M24.31,50.3h-.59l-.2-.44a.61.61,0,0,0-.12-.19.12.12,0,0,0-.11,0v.67h-.52V48.6h.52v.65a.12.12,0,0,0,.11,0,2,2,0,0,0,.12-.25.68.68,0,0,1,.12-.23.31.31,0,0,1,.19-.1,2.17,2.17,0,0,1,.43,0V49h0a.3.3,0,0,0-.2,0,.41.41,0,0,0-.11.16.38.38,0,0,1-.08.17.34.34,0,0,1-.14.09.46.46,0,0,1,.2.13,1.13,1.13,0,0,1,.18.28Z"/><path class="j" d="M9.76,37.15h.94l.65,2.09L12,37.15h.91l-1.08,2.91h-1Z"/><path class="j" d="M13.08,39.71h.69l.26,1,.27-1H15v1.7h-.43V40.12l-.33,1.29h-.39l-.33-1.29v1.29h-.43Z"/><path class="j" d="M16.37,41.13h-.6l-.08.28h-.54l.64-1.7h.57l.64,1.7h-.55Zm-.11-.37-.19-.61-.19.61Z"/><path class="j" d="M17.05,39.71h.58l.3.53.29-.53h.57l-.52.83.57.87h-.59l-.33-.54-.34.54H17l.58-.88Z"/><path class="j" d="M21.15,40.13h-.82v1.28H19.8v-1.7h1.35Z"/><path class="j" d="M22.93,41.41h-.59L22.13,41a.66.66,0,0,0-.11-.19.14.14,0,0,0-.11,0v.67h-.53v-1.7h.53v.66a.16.16,0,0,0,.1,0,.91.91,0,0,0,.12-.26.79.79,0,0,1,.12-.23.34.34,0,0,1,.2-.1,2.12,2.12,0,0,1,.42,0v.36h0a.34.34,0,0,0-.2,0,.36.36,0,0,0-.11.17.87.87,0,0,1-.09.17.48.48,0,0,1-.13.09.41.41,0,0,1,.2.12,1.91,1.91,0,0,1,.18.29Z"/><path class="j" d="M24.66,41.41h-.59L23.86,41a.66.66,0,0,0-.11-.19.14.14,0,0,0-.11,0v.67h-.52v-1.7h.52v.66a.22.22,0,0,0,.11,0,1.59,1.59,0,0,0,.11-.26.79.79,0,0,1,.12-.23.34.34,0,0,1,.2-.1,2.12,2.12,0,0,1,.42,0v.36h0a.34.34,0,0,0-.2,0,.45.45,0,0,0-.11.17.87.87,0,0,1-.09.17.48.48,0,0,1-.13.09.41.41,0,0,1,.2.12,1.34,1.34,0,0,1,.18.29Z"/><path class="j" d="M9.76,60.14h.94l.65,2.1.65-2.1h.91l-1.08,2.91h-1Z"/><path class="j" d="M14.08,62.68v1.73H13.6V63.28l-.22.14a1.51,1.51,0,0,1-.28.1v-.38a1.22,1.22,0,0,0,.38-.19.71.71,0,0,0,.21-.27Z"/><path class="j" d="M15.71,62.68H16l-.43,1.76h-.24Z"/><path class="j" d="M18.21,64.41H16.79a1,1,0,0,1,.15-.4,2.05,2.05,0,0,1,.47-.43,1.73,1.73,0,0,0,.26-.23.29.29,0,0,0,.06-.16.18.18,0,0,0-.06-.13.17.17,0,0,0-.14-.05.2.2,0,0,0-.15.05.42.42,0,0,0-.08.2l-.47,0a.81.81,0,0,1,.1-.31.51.51,0,0,1,.21-.17,1,1,0,0,1,.37-.06,1,1,0,0,1,.39.06.54.54,0,0,1,.22.17.5.5,0,0,1,.08.27.52.52,0,0,1-.09.29,1.11,1.11,0,0,1-.33.31l-.19.14-.12.1h.74Z"/><path class="j" d="M20.62,63.13H19.8v1.28h-.52v-1.7h1.34Z"/><path class="j" d="M22.41,64.41h-.6l-.2-.44a1,1,0,0,0-.11-.19.16.16,0,0,0-.12,0v.67h-.52v-1.7h.52v.65c.05,0,.09,0,.11,0a.8.8,0,0,0,.12-.25.68.68,0,0,1,.12-.23.34.34,0,0,1,.2-.1,2.12,2.12,0,0,1,.42,0v.36h0a.26.26,0,0,0-.19,0,.33.33,0,0,0-.11.16.52.52,0,0,1-.09.17.3.3,0,0,1-.13.09.63.63,0,0,1,.2.13,1.56,1.56,0,0,1,.17.28Z"/><path class="j" d="M24.14,64.41h-.6l-.2-.44a1,1,0,0,0-.11-.19.15.15,0,0,0-.11,0v.67h-.53v-1.7h.53v.65a.1.1,0,0,0,.1,0,.8.8,0,0,0,.12-.25.68.68,0,0,1,.12-.23.34.34,0,0,1,.2-.1,2.12,2.12,0,0,1,.42,0v.36h0a.26.26,0,0,0-.19,0,.33.33,0,0,0-.11.16.52.52,0,0,1-.09.17.3.3,0,0,1-.13.09.63.63,0,0,1,.2.13,2.32,2.32,0,0,1,.18.28Z"/><path class="j" d="M97.75,37.59H96.32v2.23h-.91v-3h2.34Z"/><path class="j" d="M98.16,36.87h2.44v.63H99.07V38h1.42v.6H99.07v.58h1.58v.67H98.16Z"/><path class="j" d="M103.82,39.82h-1l-.36-.76a1.08,1.08,0,0,0-.2-.34.24.24,0,0,0-.19-.07v1.17h-.91v-3h.91V38a.26.26,0,0,0,.19-.08,2.57,2.57,0,0,0,.2-.46,1.36,1.36,0,0,1,.21-.39.58.58,0,0,1,.34-.17,3.28,3.28,0,0,1,.74-.06v.63h0a.53.53,0,0,0-.34.09.6.6,0,0,0-.19.28,1,1,0,0,1-.15.3.63.63,0,0,1-.23.16.74.74,0,0,1,.34.22,2,2,0,0,1,.31.49Z"/><path class="j" d="M106.12,38.61l.8.24a1.45,1.45,0,0,1-.26.56,1,1,0,0,1-.43.34,1.54,1.54,0,0,1-.65.12,2,2,0,0,1-.79-.14,1.21,1.21,0,0,1-.52-.49,1.67,1.67,0,0,1-.23-.9,1.54,1.54,0,0,1,.39-1.13,1.5,1.5,0,0,1,1.11-.39,1.47,1.47,0,0,1,.87.22,1.33,1.33,0,0,1,.48.69l-.81.18a.67.67,0,0,0-.09-.19.46.46,0,0,0-.18-.16.54.54,0,0,0-.25-.06.53.53,0,0,0-.48.25,1.52,1.52,0,0,0,0,1.25.52.52,0,0,0,.42.18.49.49,0,0,0,.39-.14A.91.91,0,0,0,106.12,38.61Z"/><path class="j" d="M107.24,38.34a1.51,1.51,0,0,1,.41-1.12,1.49,1.49,0,0,1,1.12-.4,1.54,1.54,0,0,1,1.13.39,1.5,1.5,0,0,1,.4,1.11,1.89,1.89,0,0,1-.17.85,1.25,1.25,0,0,1-.51.51,1.58,1.58,0,0,1-.82.19,1.82,1.82,0,0,1-.82-.16,1.21,1.21,0,0,1-.53-.5A1.65,1.65,0,0,1,107.24,38.34Zm.92,0a1,1,0,0,0,.16.64.56.56,0,0,0,.45.2.57.57,0,0,0,.46-.2,1,1,0,0,0,.16-.68.93.93,0,0,0-.17-.61.63.63,0,0,0-.9,0A1,1,0,0,0,108.16,38.35Z"/><path class="j" d="M113.48,39.82h-1l-.36-.76a1.41,1.41,0,0,0-.19-.34.26.26,0,0,0-.2-.07v1.17h-.91v-3h.91V38a.26.26,0,0,0,.19-.08,3.21,3.21,0,0,0,.21-.46,1.16,1.16,0,0,1,.2-.39.61.61,0,0,1,.34-.17,3.34,3.34,0,0,1,.74-.06v.63h0a.56.56,0,0,0-.35.09.69.69,0,0,0-.19.28.83.83,0,0,1-.15.3.56.56,0,0,1-.23.16.69.69,0,0,1,.34.22,2,2,0,0,1,.32.49Z"/><path class="j" d="M116.63,36.87v3h-.86V38.2l-1.1,1.62h-.87v-3h.87V38.5l1.11-1.63Z"/><path class="j" d="M117.24,36.87h.91v1h1v-1h.92v3h-.92v-1.2h-1v1.2h-.91Z"/><path class="j" d="M122.49,39.33h-1l-.14.49h-.93l1.11-3h1l1.11,3h-1Zm-.19-.64L122,37.63l-.32,1.06Z"/><path class="j" d="M125.73,38.21a.64.64,0,0,1,.53.67.88.88,0,0,1-.33.71,1.41,1.41,0,0,1-.94.28A1.19,1.19,0,0,1,123.7,39l.86-.07a.38.38,0,0,0,.41.31.42.42,0,0,0,.29-.09.41.41,0,0,0,.1-.27.3.3,0,0,0-.13-.26.48.48,0,0,0-.33-.1h-.25V38h.2a.4.4,0,0,0,.27-.09.33.33,0,0,0,.1-.26q0-.24-.3-.24a.31.31,0,0,0-.36.28l-.82-.1c.14-.51.53-.76,1.2-.76a1.54,1.54,0,0,1,.86.21.65.65,0,0,1,.31.57A.62.62,0,0,1,125.73,38.21Z"/><path class="j" d="M128.53,39.33h-1l-.15.49h-.93l1.11-3h1l1.11,3h-1Zm-.19-.64L128,37.63l-.32,1.06Z"/><path class="i" d="M97.07,17.67H95.65V19.9h-.91V17h2.33Z"/><path class="i" d="M100.2,19.9h-.91V17.67h-.72v.91a4,4,0,0,1-.06.82.56.56,0,0,1-.27.39,1.56,1.56,0,0,1-.71.12l-.34,0v-.6h.14a.37.37,0,0,0,.26-.08.44.44,0,0,0,.07-.3V17h2.54Z"/><path class="i" d="M102.07,18a1.31,1.31,0,0,1,.5-.8,1.58,1.58,0,0,1,1-.28,1.54,1.54,0,0,1,1.13.39,1.48,1.48,0,0,1,.4,1.11,1.59,1.59,0,0,1-.39,1.15,1.46,1.46,0,0,1-1.1.4,1.55,1.55,0,0,1-1.12-.36,1.42,1.42,0,0,1-.43-.88h-.32V19.9h-.91V17h.91v1Zm1.48,1.28a.55.55,0,0,0,.46-.19,1.08,1.08,0,0,0,.16-.68c0-.54-.21-.81-.62-.81s-.61.29-.61.85S103.14,19.26,103.55,19.26Z"/><path class="i" d="M108.26,19.9h-1l-.36-.76a1.33,1.33,0,0,0-.2-.34.24.24,0,0,0-.19-.07V19.9h-.91V17h.91v1.13a.22.22,0,0,0,.18-.08,1.92,1.92,0,0,0,.21-.45,1.31,1.31,0,0,1,.21-.4.58.58,0,0,1,.34-.17,3.42,3.42,0,0,1,.74-.05v.62h0a.53.53,0,0,0-.34.09.59.59,0,0,0-.19.29.85.85,0,0,1-.16.29.52.52,0,0,1-.22.16.74.74,0,0,1,.34.22,2,2,0,0,1,.31.49Z"/><path class="i" d="M108.47,18.43A1.4,1.4,0,0,1,110,16.9a1.54,1.54,0,0,1,1.13.39,1.5,1.5,0,0,1,.4,1.11,1.89,1.89,0,0,1-.17.85,1.32,1.32,0,0,1-.5.52A1.71,1.71,0,0,1,110,20a1.83,1.83,0,0,1-.83-.16,1.21,1.21,0,0,1-.53-.5A1.64,1.64,0,0,1,108.47,18.43Zm.92,0a1,1,0,0,0,.16.64.56.56,0,0,0,.45.2.59.59,0,0,0,.46-.19,1.09,1.09,0,0,0,.16-.69.93.93,0,0,0-.17-.61.55.55,0,0,0-.45-.19.57.57,0,0,0-.45.19A1,1,0,0,0,109.39,18.43Z"/><path class="i" d="M114.71,19.9h-1l-.35-.76a1.72,1.72,0,0,0-.2-.34.26.26,0,0,0-.2-.07V19.9H112V17h.91v1.13a.24.24,0,0,0,.19-.08,3.48,3.48,0,0,0,.21-.45,1.13,1.13,0,0,1,.2-.4.61.61,0,0,1,.34-.17,3.48,3.48,0,0,1,.74-.05v.62h0a.56.56,0,0,0-.35.09.58.58,0,0,0-.18.29,1.07,1.07,0,0,1-.16.29.56.56,0,0,1-.23.16.77.77,0,0,1,.35.22,2.33,2.33,0,0,1,.31.49Z"/><path class="i" d="M117.86,17V19.9H117V18.28l-1.1,1.62H115V17h.86v1.63L117,17Z"/><path class="i" d="M118.47,17h.91v1h1V17h.92V19.9h-.92V18.71h-1V19.9h-.91Z"/><path class="i" d="M123.72,19.41h-1l-.14.49h-.93L122.72,17h1l1.11,2.95h-.95Zm-.19-.64-.33-1.06-.32,1.06Z"/><path class="i" d="M127,18.29a.64.64,0,0,1,.53.67.88.88,0,0,1-.33.71,1.39,1.39,0,0,1-.94.28,1.19,1.19,0,0,1-1.29-.87l.86-.07a.38.38,0,0,0,.41.31.4.4,0,0,0,.29-.09.35.35,0,0,0,.1-.27.32.32,0,0,0-.12-.26.53.53,0,0,0-.34-.1h-.25v-.53h.2a.38.38,0,0,0,.27-.09.33.33,0,0,0,.1-.26q0-.24-.3-.24a.32.32,0,0,0-.36.28l-.81-.1c.13-.51.53-.76,1.19-.76a1.54,1.54,0,0,1,.86.21.65.65,0,0,1,.31.57A.6.6,0,0,1,127,18.29Z"/><path class="i" d="M129.76,19.41h-1l-.14.49h-.94L128.76,17h1l1.11,2.95h-1Zm-.18-.64-.33-1.06-.32,1.06Z"/><line class="k" x1="27.58" y1="63.05" x2="28.58" y2="63.05"/><line class="l" x1="30.72" y1="63.05" x2="38.21" y2="63.05"/><polyline class="k" points="39.28 63.05 40.28 63.05 40.28 64.05"/><line class="m" x1="40.28" y1="66.03" x2="40.28" y2="88.71"/><line class="k" x1="40.28" y1="89.7" x2="40.28" y2="90.7"/><line class="k" x1="28.65" y1="48.94" x2="29.65" y2="48.94"/><line class="n" x1="31.56" y1="48.94" x2="61.1" y2="48.94"/><polyline class="k" points="62.05 48.95 63.05 48.95 63.05 49.95"/><line class="o" x1="63.05" y1="52.04" x2="63.05" y2="88.65"/><line class="k" x1="63.05" y1="89.7" x2="63.05" y2="90.7"/><path class="p" d="M38.79,97.76V92h1.09v3l1.29-1.46h1.35L41.1,95.13l1.52,2.63H41.44l-1-1.87-.52.54v1.33Z"/><path class="p" d="M43,98h.59v.33a1,1,0,0,1,.75-.38.82.82,0,0,1,.4.09.71.71,0,0,1,.28.29,1.32,1.32,0,0,1,.35-.29.86.86,0,0,1,.39-.09.88.88,0,0,1,.45.11.65.65,0,0,1,.28.31,1.6,1.6,0,0,1,.06.51v1.54H45.9V99a1.19,1.19,0,0,0-.06-.47.3.3,0,0,0-.27-.13.5.5,0,0,0-.26.08.48.48,0,0,0-.17.24,2,2,0,0,0,0,.5v1.16h-.64V99.1a2.12,2.12,0,0,0,0-.46.3.3,0,0,0-.11-.15.37.37,0,0,0-.2,0,.5.5,0,0,0-.26.08.4.4,0,0,0-.17.23,1.51,1.51,0,0,0,0,.5v1.17H43Z"/><path class="p" d="M59.51,97.76V92h1.1v3l1.29-1.46h1.35l-1.42,1.52,1.52,2.63H62.17l-1.05-1.87-.51.54v1.33Z"/><path class="p" d="M63.71,98h.59v.33a1,1,0,0,1,.76-.38.84.84,0,0,1,.4.09.71.71,0,0,1,.28.29,1.18,1.18,0,0,1,.35-.29.86.86,0,0,1,.39-.09.88.88,0,0,1,.45.11.7.7,0,0,1,.28.31,1.6,1.6,0,0,1,.06.51v1.54h-.64V99a1.19,1.19,0,0,0-.06-.47.31.31,0,0,0-.28-.13.46.46,0,0,0-.25.08.43.43,0,0,0-.17.24,1.59,1.59,0,0,0-.05.5v1.16h-.64V99.1a1.49,1.49,0,0,0,0-.46.24.24,0,0,0-.1-.15.39.39,0,0,0-.2,0,.45.45,0,0,0-.26.08.4.4,0,0,0-.17.23,1.45,1.45,0,0,0-.06.5v1.17h-.64Z"/><path class="p" d="M85.86,53.35V50.67h.51v1.42l.6-.68h.63l-.66.71.71,1.23H87.1l-.49-.87-.24.25v.62Z"/><path class="p" d="M87.82,53.46h.28v.16a.44.44,0,0,1,.35-.18.38.38,0,0,1,.19,0,.35.35,0,0,1,.13.14.52.52,0,0,1,.16-.14.39.39,0,0,1,.18,0,.33.33,0,0,1,.21.05.28.28,0,0,1,.13.15.63.63,0,0,1,0,.23v.72h-.29V54a.47.47,0,0,0,0-.22.13.13,0,0,0-.12-.06.17.17,0,0,0-.12,0,.15.15,0,0,0-.08.11.63.63,0,0,0,0,.23v.54h-.3V54a1,1,0,0,0,0-.21.18.18,0,0,0,0-.07s0,0-.09,0a.28.28,0,0,0-.13,0,.31.31,0,0,0-.08.11,1.21,1.21,0,0,0,0,.23v.55h-.3Z"/><path class="p" d="M90.87,52.64v-.52h1v.52Z"/><path class="p" d="M93.2,51.41h.51v.79a.25.25,0,0,0,.18-.08,1.06,1.06,0,0,0,.13-.28.65.65,0,0,1,.21-.36.49.49,0,0,1,.31-.08h.2v.34a.72.72,0,0,0-.26,0,.83.83,0,0,0-.12.24.46.46,0,0,1-.26.33.7.7,0,0,1,.41.43l0,0,.28.54h-.55L94,52.79a.65.65,0,0,0-.13-.22.29.29,0,0,0-.17,0v.83H93.2Z"/><path class="p" d="M94.92,52.35a1,1,0,0,1,.13-.49.89.89,0,0,1,.35-.37,1.14,1.14,0,0,1,.52-.12,1,1,0,0,1,.72,1.73.94.94,0,0,1-.72.29,1.19,1.19,0,0,1-.51-.12.81.81,0,0,1-.36-.35A1.14,1.14,0,0,1,94.92,52.35Zm.53,0a.64.64,0,0,0,.13.44.46.46,0,0,0,.68,0,.81.81,0,0,0,0-.88.44.44,0,0,0-.68,0A.64.64,0,0,0,95.45,52.38Z"/><path class="p" d="M97.3,51.41h.52v.71h.73v-.71h.52v1.94h-.52v-.82h-.73v.82H97.3Z"/><path class="p" d="M99.56,51.41h.52v1.52h.73V51.41h.51v1.52h.2v.93h-.41v-.51H99.56Z"/><path class="p" d="M103,52.73l.51.09a.77.77,0,0,1-.31.43,1,1,0,0,1-.53.14.88.88,0,0,1-.75-.33,1.26,1.26,0,0,1,.06-1.42.93.93,0,0,1,1.32,0,1.24,1.24,0,0,1,.24.88h-1.28a.48.48,0,0,0,.12.35.38.38,0,0,0,.3.13.29.29,0,0,0,.2-.07A.36.36,0,0,0,103,52.73Zm0-.52a.5.5,0,0,0-.11-.34.39.39,0,0,0-.27-.11.38.38,0,0,0-.28.12.44.44,0,0,0-.1.33Z"/><path class="p" d="M103.68,51.41h1.76v.41h-.63v1.53h-.51V51.82h-.62Z"/><path class="p" d="M105.73,51.41h.48v.28a.7.7,0,0,1,.25-.23.68.68,0,0,1,.35-.09.7.7,0,0,1,.57.26,1.06,1.06,0,0,1,.24.74,1.09,1.09,0,0,1-.24.75.74.74,0,0,1-.57.27.65.65,0,0,1-.29-.06,1,1,0,0,1-.28-.22v1h-.51Zm.51.94a.79.79,0,0,0,.12.48.43.43,0,0,0,.32.16.37.37,0,0,0,.3-.15.72.72,0,0,0,.12-.47.65.65,0,0,0-.13-.45.37.37,0,0,0-.3-.15.39.39,0,0,0-.31.15A.65.65,0,0,0,106.24,52.35Z"/><path class="p" d="M108.41,52l-.47-.08a.81.81,0,0,1,.27-.42,1,1,0,0,1,.57-.13,1.13,1.13,0,0,1,.51.08.45.45,0,0,1,.24.2,1,1,0,0,1,.07.46v.6a1.74,1.74,0,0,0,0,.38,1.61,1.61,0,0,0,.09.26h-.51l0-.15a.35.35,0,0,0,0-.06,1,1,0,0,1-.28.19.91.91,0,0,1-.32.06.68.68,0,0,1-.48-.16.57.57,0,0,1-.09-.7.47.47,0,0,1,.22-.2,1.35,1.35,0,0,1,.41-.12,3.35,3.35,0,0,0,.5-.13v0a.26.26,0,0,0-.08-.21.45.45,0,0,0-.27-.06.48.48,0,0,0-.22.05A.39.39,0,0,0,108.41,52Zm.69.42-.32.08a1,1,0,0,0-.28.09.21.21,0,0,0-.1.18.25.25,0,0,0,.08.18.28.28,0,0,0,.21.08.43.43,0,0,0,.26-.09.3.3,0,0,0,.13-.17,1.21,1.21,0,0,0,0-.25Z"/><path class="p" d="M110.09,51.41h.51v1.52h.73V51.41h.52v1.52h.2v.93h-.42v-.51h-1.54Z"/><path class="p" d="M112.39,51.41h.5v1.22l.78-1.22h.51v1.94h-.49V52.11l-.8,1.24h-.5Z"/><path class="p" d="M116.37,51.41v1.94h-.51v-.81h0a.55.55,0,0,0-.25.05.75.75,0,0,0-.17.18l0,0-.34.54h-.59l.36-.56c.11-.16.2-.26.29-.28a.48.48,0,0,1-.35-.16.56.56,0,0,1-.14-.39.57.57,0,0,1,.09-.32.43.43,0,0,1,.24-.18,1.56,1.56,0,0,1,.44-.05Zm-.51.33h-.37a.52.52,0,0,0-.29.06.23.23,0,0,0-.08.19.21.21,0,0,0,.09.19.63.63,0,0,0,.31.06h.34Z"/><path class="p" d="M119.62,52l-.51.09a.36.36,0,0,0-.12-.22.34.34,0,0,0-.23-.08.39.39,0,0,0-.31.13.73.73,0,0,0-.11.44.76.76,0,0,0,.12.49.35.35,0,0,0,.31.14.35.35,0,0,0,.24-.08.52.52,0,0,0,.13-.28l.5.08a.9.9,0,0,1-.3.53,1,1,0,0,1-.6.17.9.9,0,0,1-.68-.27,1.22,1.22,0,0,1,0-1.49.9.9,0,0,1,.68-.26,1,1,0,0,1,.57.15A1,1,0,0,1,119.62,52Z"/><path class="p" d="M119.76,51.41h.55l.46,1.38.45-1.38h.54l-.69,1.87-.12.33a1.54,1.54,0,0,1-.13.26.67.67,0,0,1-.14.15.52.52,0,0,1-.2.08.68.68,0,0,1-.26,0,1,1,0,0,1-.29,0l0-.4.21,0a.34.34,0,0,0,.27-.11.85.85,0,0,0,.13-.27Z"/><path class="p" d="M123.54,50.61h.35a.58.58,0,0,1-.12.35.75.75,0,0,1-.52.12h-.17a1.37,1.37,0,0,0-.39.05.47.47,0,0,0-.25.21,1,1,0,0,0-.11.5.85.85,0,0,1,.3-.32.89.89,0,0,1,1.07.19,1,1,0,0,1,0,1.39,1.06,1.06,0,0,1-1.27.14.79.79,0,0,1-.34-.4A2.74,2.74,0,0,1,122,52a1.56,1.56,0,0,1,.26-1,1.1,1.1,0,0,1,.9-.31h.25A.15.15,0,0,0,123.54,50.61Zm-1,1.78a.6.6,0,0,0,.13.42A.39.39,0,0,0,123,53a.44.44,0,0,0,.34-.16.63.63,0,0,0,.13-.41.62.62,0,0,0-.13-.42.44.44,0,0,0-.33-.16.41.41,0,0,0-.33.16A.59.59,0,0,0,122.51,52.39Z"/><path class="p" d="M126,52l-.51.09a.36.36,0,0,0-.12-.22.34.34,0,0,0-.23-.08.39.39,0,0,0-.31.13.73.73,0,0,0-.11.44.76.76,0,0,0,.12.49.35.35,0,0,0,.31.14.35.35,0,0,0,.24-.08.52.52,0,0,0,.13-.28l.5.08a.9.9,0,0,1-.3.53,1,1,0,0,1-.6.17.9.9,0,0,1-.68-.27,1.22,1.22,0,0,1,0-1.49.9.9,0,0,1,.68-.26,1,1,0,0,1,.57.15A1,1,0,0,1,126,52Z"/><path class="p" d="M126.19,51.41H128v.41h-.62v1.53h-.52V51.82h-.62Z"/><path class="p" d="M128.24,51.41h.48v.28a.79.79,0,0,1,.25-.23.7.7,0,0,1,.35-.09.73.73,0,0,1,.58.26,1.11,1.11,0,0,1,.23.74,1.14,1.14,0,0,1-.23.75.76.76,0,0,1-.58.27.68.68,0,0,1-.29-.06,1,1,0,0,1-.28-.22v1h-.51Zm.51.94a.72.72,0,0,0,.13.48.4.4,0,0,0,.31.16.37.37,0,0,0,.3-.15.94.94,0,0,0,0-.92.37.37,0,0,0-.3-.15.41.41,0,0,0-.32.15A.65.65,0,0,0,128.75,52.35Z"/><path class="p" d="M130.92,52l-.46-.08a.71.71,0,0,1,.27-.42,1,1,0,0,1,.57-.13,1.13,1.13,0,0,1,.51.08.46.46,0,0,1,.23.2,1,1,0,0,1,.07.46v.6a3.18,3.18,0,0,0,0,.38,1.06,1.06,0,0,0,.1.26h-.51a1.31,1.31,0,0,1-.05-.15l0-.06a1,1,0,0,1-.28.19.87.87,0,0,1-.32.06.64.64,0,0,1-.47-.16.52.52,0,0,1-.18-.41.55.55,0,0,1,.08-.29.53.53,0,0,1,.22-.2,1.45,1.45,0,0,1,.41-.12,3,3,0,0,0,.5-.13v0a.25.25,0,0,0-.07-.21.46.46,0,0,0-.28-.06.41.41,0,0,0-.21.05A.48.48,0,0,0,130.92,52Zm.69.42-.31.08a.89.89,0,0,0-.28.09.19.19,0,0,0-.1.18A.22.22,0,0,0,131,53a.24.24,0,0,0,.2.08.48.48,0,0,0,.27-.09.33.33,0,0,0,.12-.17,1.21,1.21,0,0,0,0-.25Z"/><path class="p" d="M132.39,51.41h1.75v.41h-.62v1.53H133V51.82h-.62Z"/><path class="p" d="M134.83,52l-.46-.08a.71.71,0,0,1,.27-.42,1,1,0,0,1,.57-.13,1.13,1.13,0,0,1,.51.08.54.54,0,0,1,.24.2,1.19,1.19,0,0,1,.07.46v.6a3.18,3.18,0,0,0,0,.38,1.06,1.06,0,0,0,.1.26h-.51s0-.09,0-.15l0-.06a1,1,0,0,1-.28.19.87.87,0,0,1-.32.06.64.64,0,0,1-.47-.16.52.52,0,0,1-.17-.41.54.54,0,0,1,.07-.29.53.53,0,0,1,.22-.2,1.45,1.45,0,0,1,.41-.12,3,3,0,0,0,.5-.13v0a.25.25,0,0,0-.07-.21.46.46,0,0,0-.28-.06.41.41,0,0,0-.21.05A.48.48,0,0,0,134.83,52Zm.69.42-.31.08a.89.89,0,0,0-.28.09.19.19,0,0,0-.1.18.25.25,0,0,0,.08.18.24.24,0,0,0,.2.08.46.46,0,0,0,.27-.09.33.33,0,0,0,.12-.17,1.21,1.21,0,0,0,0-.25Z"/><path class="p" d="M85.87,58.78V55.35h.91v.4h-.42v2.62h.42v.41Z"/><path class="p" d="M87.1,56.08h1.31v.42h-.8V58H87.1Z"/><path class="p" d="M88.72,56.08h1.72V58h-.51V56.5h-.7v.87a1.07,1.07,0,0,1-.07.47c-.06.09-.11.15-.17.17a.78.78,0,0,1-.3.05,1.53,1.53,0,0,1-.33,0v-.37h.21c.07,0,.11,0,.13-.06a1.59,1.59,0,0,0,0-.38Z"/><path class="p" d="M91,56.08h.51v.79h.41a.94.94,0,0,1,.28-.6.92.92,0,0,1,.65-.23.94.94,0,0,1,.67.26,1.09,1.09,0,0,1,.26.77,1.19,1.19,0,0,1-.1.51.73.73,0,0,1-.3.35.89.89,0,0,1-.52.14.88.88,0,0,1-.69-.26.8.8,0,0,1-.25-.54h-.41V58H91Zm1.84.36a.36.36,0,0,0-.31.14.7.7,0,0,0-.1.43.89.89,0,0,0,.11.52.37.37,0,0,0,.32.14.31.31,0,0,0,.29-.16.79.79,0,0,0,.1-.45.8.8,0,0,0-.11-.49A.35.35,0,0,0,92.8,56.44Z"/><path class="p" d="M94.13,56.08h.52v.8a.3.3,0,0,0,.18-.08,1.39,1.39,0,0,0,.12-.28.81.81,0,0,1,.22-.37.57.57,0,0,1,.31-.08h.2v.34a.29.29,0,0,0-.38.28A.48.48,0,0,1,95,57a.68.68,0,0,1,.41.42l0,0,.29.53h-.55L95,57.46a1.14,1.14,0,0,0-.13-.22.29.29,0,0,0-.17,0V58h-.52Z"/><path class="p" d="M95.86,57a1.11,1.11,0,0,1,.12-.5.89.89,0,0,1,.36-.36,1,1,0,0,1,.52-.13,1,1,0,0,1,1,1,1.05,1.05,0,0,1-.28.73,1,1,0,0,1-.72.29,1.13,1.13,0,0,1-.51-.12.86.86,0,0,1-.37-.36A1.19,1.19,0,0,1,95.86,57Zm.52,0a.67.67,0,0,0,.14.45.43.43,0,0,0,.34.15.46.46,0,0,0,.34-.15.69.69,0,0,0,.13-.45.64.64,0,0,0-.13-.44.46.46,0,0,0-.34-.15.43.43,0,0,0-.34.15A.64.64,0,0,0,96.38,57.05Z"/><path class="p" d="M98.73,57.23v-.34h.2a.23.23,0,0,0,.11-.09.2.2,0,0,0,.06-.15.28.28,0,0,0-.07-.17.26.26,0,0,0-.2-.08.35.35,0,0,0-.18,0,.33.33,0,0,0-.15.2l-.43-.09a.55.55,0,0,1,.28-.38.88.88,0,0,1,.49-.13.81.81,0,0,1,.54.16.5.5,0,0,1,.19.4.37.37,0,0,1-.08.26.83.83,0,0,1-.26.18.66.66,0,0,1,.32.18.44.44,0,0,1,.11.29.49.49,0,0,1-.21.39,1,1,0,0,1-.61.17.76.76,0,0,1-.85-.55l.47-.08a.38.38,0,0,0,.37.28.33.33,0,0,0,.23-.07.23.23,0,0,0,.09-.18.21.21,0,0,0-.09-.18.43.43,0,0,0-.24-.06Z"/><path class="p" d="M100.07,56.08h.52v.81h.51a1.81,1.81,0,0,1,.46,0,.52.52,0,0,1,.28.19.58.58,0,0,1,.11.34.48.48,0,0,1-.2.42.94.94,0,0,1-.58.14h-1.1Zm.52,1.62h.47a.45.45,0,0,0,.27-.06.21.21,0,0,0,.09-.19.19.19,0,0,0-.11-.19.91.91,0,0,0-.39,0h-.33Zm1.65-1.62h.51V58h-.51Z"/><path class="p" d="M104,55.35v3.43h-.91v-.41h.43V55.75h-.43v-.4Z"/><path class="p" d="M104.5,57.51H105v.37a1.12,1.12,0,0,1,0,.35.51.51,0,0,1-.14.23.85.85,0,0,1-.28.16l-.1-.21a.42.42,0,0,0,.22-.14.37.37,0,0,0,.07-.25h-.24Z"/><path class="p" d="M106.57,56.08h1.72V58h-.51V56.5h-.7V58h-.51Z"/><path class="p" d="M108.83,56.08h.48v.29a.72.72,0,0,1,.25-.24.7.7,0,0,1,.35-.09.77.77,0,0,1,.58.26,1.13,1.13,0,0,1,.23.74,1.15,1.15,0,0,1-.23.76.76.76,0,0,1-.58.27.57.57,0,0,1-.29-.07.86.86,0,0,1-.28-.22v1h-.51Zm.51.94a.71.71,0,0,0,.13.48.37.37,0,0,0,.31.16.39.39,0,0,0,.3-.14.76.76,0,0,0,.12-.47.72.72,0,0,0-.12-.46.36.36,0,0,0-.3-.14.4.4,0,0,0-.32.14A.67.67,0,0,0,109.34,57Z"/><path class="p" d="M111.12,56.08h.49V57.3l.79-1.22h.5V58h-.49V56.78l-.8,1.24h-.49Z"/><path class="p" d="M114.45,56.08H115v.8a.3.3,0,0,0,.18-.08,1.25,1.25,0,0,0,.13-.28.81.81,0,0,1,.21-.37.57.57,0,0,1,.31-.08h.2v.34a.51.51,0,0,0-.26,0,.83.83,0,0,0-.12.24.47.47,0,0,1-.25.33c.16,0,.29.18.41.42l0,0,.28.53h-.55l-.25-.56a1.05,1.05,0,0,0-.14-.22.29.29,0,0,0-.17,0V58h-.51Z"/><path class="p" d="M116.17,57a1,1,0,0,1,.13-.5.81.81,0,0,1,.35-.36,1,1,0,0,1,.52-.13,1,1,0,0,1,1,1,1,1,0,0,1-.28.73,1,1,0,0,1-.72.29,1.19,1.19,0,0,1-.51-.12.78.78,0,0,1-.36-.36A1.08,1.08,0,0,1,116.17,57Zm.53,0a.67.67,0,0,0,.13.45.46.46,0,0,0,.68,0,.69.69,0,0,0,.13-.45.64.64,0,0,0-.13-.44.46.46,0,0,0-.68,0A.64.64,0,0,0,116.7,57.05Z"/><path class="p" d="M118.25,56.08H120v.42h-.62V58h-.51V56.5h-.62Z"/><path class="p" d="M120.14,57a1.13,1.13,0,0,1,.13-.5.78.78,0,0,1,.36-.36,1,1,0,0,1,.51-.13,1,1,0,0,1,.72.29,1,1,0,0,1,.29.72,1,1,0,0,1-.29.73,1,1,0,0,1-.71.29,1.13,1.13,0,0,1-.51-.12.81.81,0,0,1-.37-.36A1.19,1.19,0,0,1,120.14,57Zm.53,0a.67.67,0,0,0,.14.45.43.43,0,0,0,.33.15.43.43,0,0,0,.34-.15.69.69,0,0,0,.14-.45.64.64,0,0,0-.14-.44.43.43,0,0,0-.34-.15.43.43,0,0,0-.33.15A.64.64,0,0,0,120.67,57.05Z"/><path class="p" d="M122.53,56.08H123v.29a.72.72,0,0,1,.25-.24.74.74,0,0,1,.36-.09.76.76,0,0,1,.57.26,1.13,1.13,0,0,1,.23.74,1.15,1.15,0,0,1-.23.76.74.74,0,0,1-.58.27.57.57,0,0,1-.29-.07.86.86,0,0,1-.28-.22v1h-.51ZM123,57a.71.71,0,0,0,.13.48.39.39,0,0,0,.61,0,.76.76,0,0,0,.12-.47.72.72,0,0,0-.12-.46.36.36,0,0,0-.3-.14.4.4,0,0,0-.32.14A.67.67,0,0,0,123,57Z"/><path class="p" d="M124.71,57a1,1,0,0,1,.13-.5.78.78,0,0,1,.36-.36,1,1,0,0,1,1.51.88,1,1,0,0,1-.28.73,1,1,0,0,1-.72.29,1.11,1.11,0,0,1-.5-.12.76.76,0,0,1-.37-.36A1.08,1.08,0,0,1,124.71,57Zm.53,0a.62.62,0,0,0,.14.45.43.43,0,0,0,.33.15.43.43,0,0,0,.34-.15.69.69,0,0,0,.14-.45.64.64,0,0,0-.14-.44.43.43,0,0,0-.34-.15.43.43,0,0,0-.33.15A.6.6,0,0,0,125.24,57.05Z"/><path class="p" d="M127.1,56.08h.5V57.3l.78-1.22h.51V58h-.49V56.78L127.6,58h-.5Zm1.23-.78h.25a.53.53,0,0,1-.57.53.56.56,0,0,1-.39-.14.6.6,0,0,1-.18-.39h.25a.29.29,0,0,0,.09.19.33.33,0,0,0,.23.07.32.32,0,0,0,.23-.07A.29.29,0,0,0,128.33,55.3Z"/><path class="p" d="M130.33,57a1.13,1.13,0,0,1,.13-.5.78.78,0,0,1,.36-.36,1,1,0,0,1,.51-.13,1,1,0,0,1,.72.29,1,1,0,0,1,.29.72,1,1,0,0,1-.29.73,1,1,0,0,1-.71.29,1.13,1.13,0,0,1-.51-.12.81.81,0,0,1-.37-.36A1.19,1.19,0,0,1,130.33,57Zm.53,0a.67.67,0,0,0,.14.45.43.43,0,0,0,.34.15.43.43,0,0,0,.33-.15.69.69,0,0,0,.14-.45.64.64,0,0,0-.14-.44.43.43,0,0,0-.33-.15.43.43,0,0,0-.34.15A.64.64,0,0,0,130.86,57.05Z"/><path class="p" d="M134.19,55.28h.35a.59.59,0,0,1-.12.36c-.07.08-.24.12-.52.12h-.16a1.09,1.09,0,0,0-.4.06.42.42,0,0,0-.25.21.91.91,0,0,0-.1.5.7.7,0,0,1,.29-.32.83.83,0,0,1,.43-.11.81.81,0,0,1,.64.3,1,1,0,0,1,.27.69,1,1,0,0,1-1,1,1,1,0,0,1-.54-.15.79.79,0,0,1-.33-.41,2.46,2.46,0,0,1-.1-.85,1.58,1.58,0,0,1,.25-1,1.13,1.13,0,0,1,.9-.3h.26A.14.14,0,0,0,134.19,55.28Zm-1,1.79a.64.64,0,0,0,.13.42.43.43,0,0,0,.33.15.39.39,0,0,0,.33-.16.6.6,0,0,0,.14-.41.64.64,0,0,0-.14-.42.44.44,0,0,0-.66,0A.62.62,0,0,0,133.16,57.07Z"/><path class="p" d="M134.8,56.08H136v.81h.51a1.89,1.89,0,0,1,.47,0,.48.48,0,0,1,.26.19.51.51,0,0,1,.11.34.52.52,0,0,1-.16.4.86.86,0,0,1-.61.16h-1.09V56.5h-.64ZM136,57.7h.47a.44.44,0,0,0,.29-.07.24.24,0,0,0,.07-.18.19.19,0,0,0-.11-.19.91.91,0,0,0-.39,0H136Z"/><path class="p" d="M138.85,57.41l.51.08a.87.87,0,0,1-.31.43.93.93,0,0,1-.54.15.86.86,0,0,1-.74-.33,1.11,1.11,0,0,1-.2-.67,1.09,1.09,0,0,1,.26-.76.82.82,0,0,1,.63-.27.88.88,0,0,1,.69.29,1.27,1.27,0,0,1,.23.87H138.1a.52.52,0,0,0,.12.36.41.41,0,0,0,.3.12.32.32,0,0,0,.2-.06A.44.44,0,0,0,138.85,57.41Zm0-.52a.55.55,0,0,0-.12-.34.34.34,0,0,0-.27-.12.32.32,0,0,0-.27.13.44.44,0,0,0-.11.33Z"/><path class="p" d="M139.77,56.08h.63l.49,1.36.48-1.36H142V58h-.43V56.75L141.1,58h-.44l-.45-1.27V58h-.44Z"/><path class="p" d="M85.86,60.76h.5V62l.78-1.22h.51V62.7h-.49V61.46l-.8,1.24h-.5Z"/><path class="p" d="M89.87,61.33l-.51.09a.42.42,0,0,0-.12-.23.33.33,0,0,0-.23-.07.39.39,0,0,0-.31.13.73.73,0,0,0-.11.44.76.76,0,0,0,.12.49.35.35,0,0,0,.31.14.35.35,0,0,0,.24-.08.56.56,0,0,0,.13-.29l.5.09a.84.84,0,0,1-.3.52.93.93,0,0,1-.6.18.9.9,0,0,1-.68-.27,1.07,1.07,0,0,1-.25-.74,1.05,1.05,0,0,1,.26-.75.87.87,0,0,1,.68-.27,1,1,0,0,1,.57.16A.93.93,0,0,1,89.87,61.33Z"/><path class="p" d="M90.23,60.76H92V62.7h-.52V61.17h-.69V62.7h-.52Z"/><path class="p" d="M92.39,61.7a1.09,1.09,0,0,1,.13-.49.81.81,0,0,1,.36-.37,1.07,1.07,0,0,1,.51-.13,1,1,0,0,1,.72.29,1,1,0,0,1-.71,1.74,1.13,1.13,0,0,1-.51-.12.84.84,0,0,1-.37-.35A1.26,1.26,0,0,1,92.39,61.7Zm.53,0a.64.64,0,0,0,.14.44.43.43,0,0,0,.33.15.43.43,0,0,0,.34-.15.65.65,0,0,0,.14-.45.62.62,0,0,0-.14-.43.41.41,0,0,0-.34-.16.41.41,0,0,0-.33.16A.64.64,0,0,0,92.92,61.73Z"/><path class="p" d="M94.84,60.76h1.72V62.7h-.51V61.17h-.7v.88a.88.88,0,0,1-.08.46.37.37,0,0,1-.17.18.74.74,0,0,1-.3,0l-.32,0v-.38h.21c.07,0,.11,0,.13-.07a1.54,1.54,0,0,0,0-.38Z"/><path class="p" d="M97.09,60.76h.51v.8h.52a1.72,1.72,0,0,1,.46,0,.47.47,0,0,1,.27.19.49.49,0,0,1,.11.33.5.5,0,0,1-.19.43,1,1,0,0,1-.58.14h-1.1Zm.51,1.61h.48c.15,0,.25,0,.29-.07a.27.27,0,0,0,.06-.17.19.19,0,0,0-.11-.2,1.07,1.07,0,0,0-.38,0H97.6Z"/><path class="p" d="M99.9,61.9v-.33l.19,0a.28.28,0,0,0,.12-.08.3.3,0,0,0,.05-.16.29.29,0,0,0-.06-.17.27.27,0,0,0-.2-.07.41.41,0,0,0-.19,0,.4.4,0,0,0-.14.21l-.44-.09a.66.66,0,0,1,.28-.39,1,1,0,0,1,.49-.13.82.82,0,0,1,.55.17.48.48,0,0,1,.19.4.41.41,0,0,1-.08.25.85.85,0,0,1-.27.19.58.58,0,0,1,.33.17.44.44,0,0,1,.1.3.49.49,0,0,1-.21.39,1,1,0,0,1-.61.16.78.78,0,0,1-.85-.54l.47-.09a.4.4,0,0,0,.38.29.36.36,0,0,0,.23-.08.22.22,0,0,0,.08-.18.2.2,0,0,0-.09-.17.33.33,0,0,0-.23-.07Z"/><path class="p" d="M101,61.7a1.09,1.09,0,0,1,.13-.49.81.81,0,0,1,.36-.37,1.07,1.07,0,0,1,.51-.13,1,1,0,0,1,.73.29,1,1,0,0,1,.28.72,1,1,0,0,1-.29.73,1,1,0,0,1-.71.29,1.13,1.13,0,0,1-.51-.12.84.84,0,0,1-.37-.35A1.26,1.26,0,0,1,101,61.7Zm.53,0a.64.64,0,0,0,.14.44.43.43,0,0,0,.34.15.43.43,0,0,0,.33-.15.65.65,0,0,0,.14-.45.62.62,0,0,0-.14-.43.41.41,0,0,0-.33-.16.41.41,0,0,0-.34.16A.64.64,0,0,0,101.55,61.73Z"/><path class="p" d="M103.43,60.76h1.13a.87.87,0,0,1,.51.12.44.44,0,0,1,.17.38.48.48,0,0,1-.09.29.45.45,0,0,1-.24.16.46.46,0,0,1,.3.18.5.5,0,0,1-.06.67.78.78,0,0,1-.5.14h-1.22Zm.52.8h.33a.79.79,0,0,0,.35-.06.2.2,0,0,0,.1-.19.17.17,0,0,0-.1-.17.73.73,0,0,0-.35,0H104Zm0,.81h.41a.76.76,0,0,0,.31,0,.2.2,0,0,0,.11-.19.2.2,0,0,0-.12-.2,1.19,1.19,0,0,0-.45,0H104Z"/><path class="p" d="M106.06,61.35l-.46-.08a.71.71,0,0,1,.27-.42,1,1,0,0,1,.57-.14,1.14,1.14,0,0,1,.51.09.46.46,0,0,1,.23.2,1,1,0,0,1,.07.46v.6a1.9,1.9,0,0,0,0,.38,1.61,1.61,0,0,0,.09.26h-.5a1.31,1.31,0,0,1,0-.15l0-.06a1,1,0,0,1-.28.19.87.87,0,0,1-.32.06.68.68,0,0,1-.48-.16.57.57,0,0,1-.17-.41.61.61,0,0,1,.08-.3.51.51,0,0,1,.22-.19,1.45,1.45,0,0,1,.41-.12,3,3,0,0,0,.5-.13v0a.26.26,0,0,0-.08-.21.43.43,0,0,0-.27-.06.41.41,0,0,0-.21,0A.34.34,0,0,0,106.06,61.35Zm.69.42-.31.08a1.27,1.27,0,0,0-.28.08.24.24,0,0,0,0,.37.28.28,0,0,0,.2.08.48.48,0,0,0,.27-.09.33.33,0,0,0,.12-.17,1.29,1.29,0,0,0,0-.25Z"/><path class="p" d="M107.74,60.76h.51v.71H109v-.71h.52V62.7H109v-.82h-.73v.82h-.51Z"/><path class="p" d="M110,60.76h.51v.71h.73v-.71h.52V62.7h-.52v-.82h-.73v.82H110Z"/><path class="p" d="M112.16,61.7a1.07,1.07,0,0,1,.12-.49.86.86,0,0,1,.36-.37,1.07,1.07,0,0,1,.51-.13,1,1,0,0,1,.73.29,1,1,0,0,1,.28.72,1,1,0,0,1-.29.73,1,1,0,0,1-.71.29,1.13,1.13,0,0,1-.51-.12.89.89,0,0,1-.37-.35A1.26,1.26,0,0,1,112.16,61.7Zm.52,0a.64.64,0,0,0,.14.44.43.43,0,0,0,.34.15.43.43,0,0,0,.33-.15.65.65,0,0,0,.14-.45.62.62,0,0,0-.14-.43.41.41,0,0,0-.33-.16.41.41,0,0,0-.34.16A.64.64,0,0,0,112.68,61.73Z"/><path class="p" d="M114.54,60.76h1.31v.41h-.8V62.7h-.51Z"/><path class="p" d="M116,61.7a1.07,1.07,0,0,1,.12-.49.92.92,0,0,1,.36-.37,1.14,1.14,0,0,1,.52-.13,1,1,0,0,1,1,1,1,1,0,0,1-.28.73,1,1,0,0,1-.72.29,1.13,1.13,0,0,1-.51-.12.89.89,0,0,1-.37-.35A1.26,1.26,0,0,1,116,61.7Zm.52,0a.64.64,0,0,0,.14.44.43.43,0,0,0,.34.15.46.46,0,0,0,.34-.15.65.65,0,0,0,.13-.45.61.61,0,0,0-.13-.43.44.44,0,0,0-.34-.16.41.41,0,0,0-.34.16A.64.64,0,0,0,116.47,61.73Z"/><path class="p" d="M87,64.7h.51v1a.66.66,0,0,1,.22-.22.6.6,0,0,1,.3-.07.59.59,0,0,1,.51.3,1.33,1.33,0,0,1,.2.73,1.2,1.2,0,0,1-.22.71.67.67,0,0,1-.53.29.59.59,0,0,1-.26-.07.86.86,0,0,1-.22-.21v1H87v-1a.79.79,0,0,1-.24.21.6.6,0,0,1-.27.07.63.63,0,0,1-.52-.29,1.32,1.32,0,0,1-.2-.74,1.13,1.13,0,0,1,.23-.72.67.67,0,0,1,.51-.28.5.5,0,0,1,.27.07.55.55,0,0,1,.22.21Zm-.34,1.08a.3.3,0,0,0-.25.17.88.88,0,0,0-.11.45.94.94,0,0,0,.1.45.27.27,0,0,0,.5,0,.84.84,0,0,0,.11-.46.7.7,0,0,0-.12-.46A.29.29,0,0,0,86.65,65.78Zm1.2,0a.31.31,0,0,0-.26.19,1,1,0,0,0-.1.46.82.82,0,0,0,.11.44.31.31,0,0,0,.25.16.3.3,0,0,0,.25-.19.83.83,0,0,0,.1-.43,1,1,0,0,0-.09-.44A.31.31,0,0,0,87.85,65.78Z"/><path class="p" d="M90.22,66.75l.51.09a.82.82,0,0,1-.31.43.9.9,0,0,1-.53.15.87.87,0,0,1-.75-.33,1.11,1.11,0,0,1-.19-.67,1.07,1.07,0,0,1,.25-.76.84.84,0,0,1,.64-.27.85.85,0,0,1,.68.28,1.27,1.27,0,0,1,.24.88H89.47a.58.58,0,0,0,.13.36.4.4,0,0,0,.29.12A.37.37,0,0,0,90.1,67,.51.51,0,0,0,90.22,66.75Zm0-.51a.48.48,0,0,0-.11-.34.37.37,0,0,0-.27-.12.36.36,0,0,0-.28.12.53.53,0,0,0-.11.34Z"/><path class="p" d="M91.16,65.43h.48v.29a.72.72,0,0,1,.25-.24.74.74,0,0,1,.36-.09.76.76,0,0,1,.57.26,1.08,1.08,0,0,1,.24.74,1.1,1.1,0,0,1-.24.76.74.74,0,0,1-.58.27.73.73,0,0,1-.29-.07.84.84,0,0,1-.27-.22v1h-.52Zm.51.94a.71.71,0,0,0,.13.48.4.4,0,0,0,.62,0,.85.85,0,0,0,.11-.48.71.71,0,0,0-.12-.45.37.37,0,0,0-.3-.15.37.37,0,0,0-.31.15A.61.61,0,0,0,91.67,66.37Z"/><path class="p" d="M93.43,65.43h.63l.48,1.35L95,65.43h.63v1.94h-.43V66.1l-.48,1.27h-.43l-.45-1.27v1.27h-.44Z"/><path class="p" d="M97.3,66.75l.51.09a.82.82,0,0,1-.31.43.9.9,0,0,1-.53.15.87.87,0,0,1-.75-.33,1.11,1.11,0,0,1-.19-.67,1.07,1.07,0,0,1,.25-.76.93.93,0,0,1,1.32,0,1.27,1.27,0,0,1,.24.88H96.56a.52.52,0,0,0,.12.36A.41.41,0,0,0,97,67a.34.34,0,0,0,.2-.06A.51.51,0,0,0,97.3,66.75Zm0-.51a.48.48,0,0,0-.11-.34.37.37,0,0,0-.27-.12.38.38,0,0,0-.28.12.53.53,0,0,0-.11.34Z"/><path class="p" d="M98.24,65.43h.51v.71h.74v-.71H100v1.94h-.51v-.81h-.74v.81h-.51Z"/><path class="p" d="M100.29,65.43H102v.42h-.62v1.52h-.51V65.85h-.62Z"/><path class="p" d="M102.73,66l-.46-.08a.71.71,0,0,1,.27-.42,1,1,0,0,1,.57-.13,1.29,1.29,0,0,1,.51.08.43.43,0,0,1,.23.21,1,1,0,0,1,.07.46v.59a1.85,1.85,0,0,0,0,.38,1.61,1.61,0,0,0,.09.26h-.5a.64.64,0,0,1,0-.15.39.39,0,0,1,0-.06.82.82,0,0,1-.28.19.88.88,0,0,1-.32.07.64.64,0,0,1-.47-.17.52.52,0,0,1-.18-.41.57.57,0,0,1,.08-.29.53.53,0,0,1,.22-.2,2.66,2.66,0,0,1,.41-.12,2.41,2.41,0,0,0,.5-.12v0a.34.34,0,0,0-.07-.22.46.46,0,0,0-.28-.06.33.33,0,0,0-.21.06A.28.28,0,0,0,102.73,66Zm.69.42-.31.08a.8.8,0,0,0-.28.09.21.21,0,0,0-.1.18.25.25,0,0,0,.08.19.27.27,0,0,0,.2.07.48.48,0,0,0,.27-.09.3.3,0,0,0,.12-.17,1.14,1.14,0,0,0,0-.25Z"/><path class="p" d="M105.47,68.13V64.7h.91v.4H106v2.62h.43v.41Z"/><path class="p" d="M106.74,64.7h1.82v.44h-1.28v2.23h-.54Z"/><path class="p" d="M108.93,64.7h1.88v2.67h-.54V65.15h-.81v1.14a5.29,5.29,0,0,1,0,.69.44.44,0,0,1-.16.3.62.62,0,0,1-.4.11l-.34,0V67h.12a.43.43,0,0,0,.23,0s.06-.11.06-.23v-2Z"/><path class="p" d="M111.38,64.7h.54v1.13a.34.34,0,0,0,.24-.09,2,2,0,0,0,.2-.42,1.16,1.16,0,0,1,.34-.54,1.05,1.05,0,0,1,.54-.1h.08v.4h-.08a.48.48,0,0,0-.24.05.25.25,0,0,0-.13.12,2.67,2.67,0,0,0-.14.35,1.74,1.74,0,0,1-.1.23.54.54,0,0,1-.21.17.63.63,0,0,1,.3.21,2.31,2.31,0,0,1,.26.44l.36.73h-.63l-.32-.69a.16.16,0,0,1,0-.06l-.07-.12a.92.92,0,0,0-.17-.25.34.34,0,0,0-.2,0v1.17h-.54Z"/><path class="p" d="M114.41,67.42l.66-2.77h.39l-.67,2.77Z"/><path class="p" d="M116.79,64.7h1.82v.44h-1.28v2.23h-.54Z"/><path class="p" d="M118.89,64.7h.54v1.13a.35.35,0,0,0,.25-.09,2,2,0,0,0,.2-.42,1.25,1.25,0,0,1,.33-.54,1.12,1.12,0,0,1,.55-.1h.08v.4h-.08a.48.48,0,0,0-.24.05.22.22,0,0,0-.13.12,2.67,2.67,0,0,0-.14.35,1,1,0,0,1-.11.23.44.44,0,0,1-.2.17.63.63,0,0,1,.3.21,3,3,0,0,1,.26.44l.36.73h-.63l-.32-.69,0-.06-.07-.12a.92.92,0,0,0-.17-.25.38.38,0,0,0-.21,0v1.17h-.54Z"/><path class="p" d="M121.18,64.7h.54v1.13a.34.34,0,0,0,.24-.09,1.61,1.61,0,0,0,.2-.42,1.16,1.16,0,0,1,.34-.54,1.05,1.05,0,0,1,.54-.1h.08v.4H123a.48.48,0,0,0-.24.05.29.29,0,0,0-.13.12c0,.06-.07.17-.14.35a1,1,0,0,1-.1.23.54.54,0,0,1-.21.17.63.63,0,0,1,.3.21,2.31,2.31,0,0,1,.26.44l.37.73h-.64l-.32-.69a.15.15,0,0,0,0-.06l-.07-.12a.73.73,0,0,0-.17-.25.34.34,0,0,0-.2,0v1.17h-.54Z"/><path class="p" d="M124.16,64.7v3.43h-.91v-.41h.42V65.1h-.42v-.4Z"/><path class="p" d="M85.86,70.11h.48v.28a.82.82,0,0,1,.25-.24.7.7,0,0,1,.35-.09.74.74,0,0,1,.58.27,1.09,1.09,0,0,1,.23.74,1.14,1.14,0,0,1-.23.75.74.74,0,0,1-.58.27.68.68,0,0,1-.29-.06,1.27,1.27,0,0,1-.28-.22v1h-.51Zm.51.93a.75.75,0,0,0,.13.49.4.4,0,0,0,.31.15.39.39,0,0,0,.3-.14.74.74,0,0,0,.12-.47.69.69,0,0,0-.12-.45.37.37,0,0,0-.3-.15.43.43,0,0,0-.32.14A.67.67,0,0,0,86.37,71Z"/><path class="p" d="M89.28,71.43l.51.08a.77.77,0,0,1-.31.43.9.9,0,0,1-.53.15.87.87,0,0,1-.75-.33,1.11,1.11,0,0,1-.19-.67,1,1,0,0,1,.25-.75.81.81,0,0,1,.64-.28.85.85,0,0,1,.68.29,1.22,1.22,0,0,1,.24.87H88.54a.51.51,0,0,0,.12.36.42.42,0,0,0,.3.13.35.35,0,0,0,.2-.07A.42.42,0,0,0,89.28,71.43Zm0-.52a.5.5,0,0,0-.11-.34.35.35,0,0,0-.27-.11.38.38,0,0,0-.28.12.49.49,0,0,0-.11.33Z"/><path class="p" d="M90.62,70.7l-.46-.09a.71.71,0,0,1,.27-.41,1,1,0,0,1,.57-.14,1.29,1.29,0,0,1,.51.08.63.63,0,0,1,.24.21,1.2,1.2,0,0,1,.06.46v.6a3.32,3.32,0,0,0,0,.38,1.24,1.24,0,0,0,.1.26h-.51a1,1,0,0,1,0-.16.39.39,0,0,1,0-.06,1,1,0,0,1-.28.2.87.87,0,0,1-.32.06.64.64,0,0,1-.47-.16.54.54,0,0,1-.18-.41.61.61,0,0,1,.08-.3A.57.57,0,0,1,90.4,71a1.45,1.45,0,0,1,.41-.12,3,3,0,0,0,.5-.13v0a.25.25,0,0,0-.07-.21.46.46,0,0,0-.28-.06.33.33,0,0,0-.21.05A.48.48,0,0,0,90.62,70.7Zm.69.41a1.91,1.91,0,0,1-.31.08.89.89,0,0,0-.28.09.21.21,0,0,0-.1.18.24.24,0,0,0,.08.19.28.28,0,0,0,.2.08.46.46,0,0,0,.27-.09.38.38,0,0,0,.12-.17,1.29,1.29,0,0,0,0-.25Z"/><path class="p" d="M92.3,70.11h.51v.79a.25.25,0,0,0,.18-.08.92.92,0,0,0,.13-.28.81.81,0,0,1,.21-.37.57.57,0,0,1,.31-.08h.2v.34a.58.58,0,0,0-.26,0,.61.61,0,0,0-.13.24.47.47,0,0,1-.25.33.73.73,0,0,1,.41.42.08.08,0,0,0,0,0l.28.54h-.55l-.25-.56a.68.68,0,0,0-.14-.22.22.22,0,0,0-.17,0v.83H92.3Z"/><path class="p" d="M94.17,70.11h.52v1.52h.73V70.11h.51v1.52h.2v.93h-.41v-.51H94.17Z"/><path class="p" d="M96.48,70.11H97v1.21l.79-1.21h.5v1.94h-.49V70.81L97,72.05h-.49Z"/><path class="p" d="M98.78,70.11h.49v1.21l.79-1.21h.5v1.94h-.49V70.81l-.8,1.24h-.49Z"/><path class="p" d="M102.11,70.11h.48v.28a.82.82,0,0,1,.25-.24.7.7,0,0,1,.35-.09.74.74,0,0,1,.58.27,1.09,1.09,0,0,1,.23.74,1.14,1.14,0,0,1-.23.75.74.74,0,0,1-.58.27.68.68,0,0,1-.29-.06,1.27,1.27,0,0,1-.28-.22v1h-.51Zm.51.93a.75.75,0,0,0,.13.49.4.4,0,0,0,.31.15.39.39,0,0,0,.3-.14.74.74,0,0,0,.12-.47.69.69,0,0,0-.12-.45.37.37,0,0,0-.3-.15.43.43,0,0,0-.32.14A.67.67,0,0,0,102.62,71Z"/><path class="p" d="M104.79,70.7l-.46-.09a.71.71,0,0,1,.27-.41,1,1,0,0,1,.57-.14,1.29,1.29,0,0,1,.51.08.63.63,0,0,1,.24.21,1.2,1.2,0,0,1,.06.46v.6a3.32,3.32,0,0,0,0,.38,1.24,1.24,0,0,0,.1.26h-.51a1,1,0,0,1,0-.16.39.39,0,0,1,0-.06,1,1,0,0,1-.28.2.87.87,0,0,1-.32.06.64.64,0,0,1-.47-.16.54.54,0,0,1-.18-.41.61.61,0,0,1,.08-.3.57.57,0,0,1,.22-.19,1.45,1.45,0,0,1,.41-.12,3,3,0,0,0,.5-.13v0a.25.25,0,0,0-.07-.21.46.46,0,0,0-.28-.06.33.33,0,0,0-.21.05A.48.48,0,0,0,104.79,70.7Zm.69.41a1.91,1.91,0,0,1-.31.08.89.89,0,0,0-.28.09.21.21,0,0,0-.1.18.24.24,0,0,0,.08.19.28.28,0,0,0,.2.08.46.46,0,0,0,.27-.09.38.38,0,0,0,.12-.17,1.29,1.29,0,0,0,0-.25Z"/><path class="p" d="M106.5,70.11h1.12a.87.87,0,0,1,.51.12.44.44,0,0,1,.18.38.43.43,0,0,1-.1.29.46.46,0,0,1-.23.16.51.51,0,0,1,.3.18.53.53,0,0,1,.09.3.44.44,0,0,1-.16.36.72.72,0,0,1-.49.15H106.5Zm.51.8h.33a.76.76,0,0,0,.35-.06.2.2,0,0,0,.11-.19.18.18,0,0,0-.1-.17.8.8,0,0,0-.36,0H107Zm0,.81h.41a.67.67,0,0,0,.32-.06.19.19,0,0,0,.1-.19.19.19,0,0,0-.12-.19,1,1,0,0,0-.44-.06H107Z"/><path class="p" d="M109.86,71.43l.51.08a.82.82,0,0,1-.31.43.9.9,0,0,1-.53.15.87.87,0,0,1-.75-.33,1.11,1.11,0,0,1-.19-.67,1,1,0,0,1,.25-.75.81.81,0,0,1,.64-.28.85.85,0,0,1,.68.29,1.22,1.22,0,0,1,.24.87h-1.28a.51.51,0,0,0,.12.36.42.42,0,0,0,.3.13.35.35,0,0,0,.2-.07A.42.42,0,0,0,109.86,71.43Zm0-.52a.5.5,0,0,0-.11-.34.39.39,0,0,0-.55,0,.49.49,0,0,0-.11.33Z"/><path class="p" d="M110.8,70.11h.51v.71h.74v-.71h.51v1.94h-.51v-.82h-.74v.82h-.51Z"/><path class="p" d="M114.1,70.11h1.72v1.94h-.52V70.52h-.69v1.53h-.51Z"/><path class="p" d="M116.26,71.05a1.11,1.11,0,0,1,.12-.5.89.89,0,0,1,.36-.36,1.06,1.06,0,0,1,1.24.16,1.06,1.06,0,0,1,0,1.45,1,1,0,0,1-.71.29,1.13,1.13,0,0,1-.51-.12.89.89,0,0,1-.37-.35A1.26,1.26,0,0,1,116.26,71.05Zm.52,0a.64.64,0,0,0,.14.44.43.43,0,0,0,.34.15.43.43,0,0,0,.33-.15.65.65,0,0,0,.14-.45.66.66,0,0,0-.14-.44.43.43,0,0,0-.33-.15.43.43,0,0,0-.34.15A.67.67,0,0,0,116.78,71.08Z"/><path class="p" d="M118.71,70.11h1.71v1.94h-.51V70.52h-.7v.87a1,1,0,0,1-.07.47A.43.43,0,0,1,119,72a1.08,1.08,0,0,1-.3,0l-.33,0v-.38h.21c.07,0,.12,0,.13-.07a1.35,1.35,0,0,0,0-.38Z"/><path class="p" d="M120.77,71.05a1.13,1.13,0,0,1,.13-.5.78.78,0,0,1,.36-.36,1,1,0,0,1,.51-.13,1,1,0,0,1,.72.29,1,1,0,0,1,.29.72,1,1,0,0,1-.29.73,1,1,0,0,1-.71.29,1.13,1.13,0,0,1-.51-.12.84.84,0,0,1-.37-.35A1.26,1.26,0,0,1,120.77,71.05Zm.53,0a.64.64,0,0,0,.14.44.43.43,0,0,0,.33.15.43.43,0,0,0,.34-.15.65.65,0,0,0,.14-.45.66.66,0,0,0-.14-.44.43.43,0,0,0-.34-.15.43.43,0,0,0-.33.15A.67.67,0,0,0,121.3,71.08Z"/><path class="p" d="M123.18,70.11h1.12a.89.89,0,0,1,.52.12.43.43,0,0,1,.17.38.48.48,0,0,1-.09.29.45.45,0,0,1-.24.16.46.46,0,0,1,.3.18.47.47,0,0,1,.1.3.42.42,0,0,1-.17.36.7.7,0,0,1-.49.15h-1.22Zm.52.8H124a.79.79,0,0,0,.35-.06.2.2,0,0,0,.1-.19.17.17,0,0,0-.1-.17.73.73,0,0,0-.35,0h-.33Zm0,.81h.4a.62.62,0,0,0,.32-.06c.07,0,.1-.09.1-.19a.18.18,0,0,0-.11-.19,1.14,1.14,0,0,0-.45-.06h-.26Z"/><path class="p" d="M125.46,70.11h.5v1.21l.78-1.21h.51v1.94h-.49V70.81l-.8,1.24h-.5Z"/><path class="p" d="M127.75,70.11h.52v.71H129v-.71h.52v1.94H129v-.82h-.73v.82h-.52Z"/><path class="p" d="M131.16,71.43l.51.08a.87.87,0,0,1-.31.43.93.93,0,0,1-.54.15.86.86,0,0,1-.74-.33,1.11,1.11,0,0,1-.2-.67,1.05,1.05,0,0,1,.26-.75.79.79,0,0,1,.63-.28.88.88,0,0,1,.69.29,1.27,1.27,0,0,1,.23.87h-1.28a.51.51,0,0,0,.12.36.42.42,0,0,0,.3.13.32.32,0,0,0,.2-.07A.36.36,0,0,0,131.16,71.43Zm0-.52a.55.55,0,0,0-.12-.34.33.33,0,0,0-.27-.11.34.34,0,0,0-.27.12.44.44,0,0,0-.11.33Z"/><path class="p" d="M85.76,75.72a1.07,1.07,0,0,1,.12-.49,1,1,0,0,1,.36-.37,1.11,1.11,0,0,1,.52-.12,1,1,0,0,1,1,1,1,1,0,0,1-.29.73.91.91,0,0,1-.71.29,1.13,1.13,0,0,1-.51-.12.83.83,0,0,1-.37-.35A1.2,1.2,0,0,1,85.76,75.72Zm.52,0a.64.64,0,0,0,.14.44.44.44,0,0,0,.34.16.44.44,0,0,0,.33-.16.76.76,0,0,0,0-.88.43.43,0,0,0-.33-.15.43.43,0,0,0-.34.15A.64.64,0,0,0,86.28,75.75Z"/><path class="p" d="M87.84,74.78h1.75v.42H89v1.52h-.51V75.2h-.62Z"/><path class="p" d="M91,74.78h.64l.48,1.35.48-1.35h.64v1.94h-.44V75.44l-.47,1.28h-.44l-.45-1.28v1.28H91Z"/><path class="p" d="M94,75.37l-.47-.08a.71.71,0,0,1,.27-.42,1,1,0,0,1,.57-.13,1.13,1.13,0,0,1,.51.08.49.49,0,0,1,.24.2,1,1,0,0,1,.07.46v.6a1.74,1.74,0,0,0,0,.38.73.73,0,0,0,.09.26h-.51s0-.08,0-.15,0,0,0-.06a.87.87,0,0,1-.28.19.83.83,0,0,1-.32.06.65.65,0,0,1-.47-.16.55.55,0,0,1-.17-.41.47.47,0,0,1,.08-.29.48.48,0,0,1,.22-.2,1.35,1.35,0,0,1,.41-.12,2.13,2.13,0,0,0,.49-.13v0a.25.25,0,0,0-.07-.21.45.45,0,0,0-.27-.06.42.42,0,0,0-.22.05A.39.39,0,0,0,94,75.37Zm.68.42-.31.08a1,1,0,0,0-.28.09.21.21,0,0,0-.1.18.25.25,0,0,0,.08.18.26.26,0,0,0,.21.08.43.43,0,0,0,.26-.09.33.33,0,0,0,.12-.17.76.76,0,0,0,0-.25Z"/><path class="p" d="M95.71,74.78h.51v.79a.26.26,0,0,0,.19-.08,1.22,1.22,0,0,0,.12-.27.71.71,0,0,1,.22-.37.49.49,0,0,1,.31-.08h.2v.34a.51.51,0,0,0-.26,0s-.08.1-.12.23a.48.48,0,0,1-.26.33.72.72,0,0,1,.41.43l0,0,.29.54h-.55l-.26-.56a.88.88,0,0,0-.13-.22.3.3,0,0,0-.18,0v.83h-.51Z"/><path class="p" d="M99.25,75.35l-.51.1a.41.41,0,0,0-.11-.23.42.42,0,0,0-.55,0,.74.74,0,0,0-.11.45.73.73,0,0,0,.12.48.36.36,0,0,0,.31.15.36.36,0,0,0,.24-.09.52.52,0,0,0,.13-.28l.5.08a.9.9,0,0,1-.3.53,1,1,0,0,1-.6.17.89.89,0,0,1-.67-.26,1.21,1.21,0,0,1,0-1.5.91.91,0,0,1,.68-.26,1,1,0,0,1,.57.15A.85.85,0,0,1,99.25,75.35Z"/><path class="p" d="M99.62,74.78h.5V76l.78-1.22h.51v1.94h-.49V75.48l-.8,1.24h-.5Z"/><path class="p" d="M102,74.78h.63l.49,1.35.48-1.35h.64v1.94h-.44V75.44l-.47,1.28h-.44l-.45-1.28v1.28H102Z"/><path class="p" d="M105,75.37l-.46-.08a.71.71,0,0,1,.27-.42,1,1,0,0,1,.57-.13,1.13,1.13,0,0,1,.51.08.54.54,0,0,1,.24.2,1.19,1.19,0,0,1,.07.46v.6a3.18,3.18,0,0,0,0,.38,1.06,1.06,0,0,0,.1.26h-.51s0-.08,0-.15l0-.06a1,1,0,0,1-.28.19.87.87,0,0,1-.32.06.64.64,0,0,1-.47-.16.52.52,0,0,1-.17-.41.54.54,0,0,1,.07-.29.6.6,0,0,1,.22-.2,1.45,1.45,0,0,1,.41-.12,2.26,2.26,0,0,0,.5-.13v0a.25.25,0,0,0-.07-.21.46.46,0,0,0-.28-.06.41.41,0,0,0-.21.05A.48.48,0,0,0,105,75.37Zm.69.42-.31.08a.89.89,0,0,0-.28.09.19.19,0,0,0-.1.18.25.25,0,0,0,.08.18.24.24,0,0,0,.2.08.44.44,0,0,0,.27-.09.33.33,0,0,0,.12-.17,1.21,1.21,0,0,0,0-.25Z"/><path class="p" d="M106.87,74.78h1.72v1.94h-.51V75.2h-.7v.87a1,1,0,0,1-.08.46.43.43,0,0,1-.17.18.74.74,0,0,1-.3,0l-.32,0v-.38h.21c.07,0,.11,0,.13-.07a2.27,2.27,0,0,0,0-.38Z"/><path class="p" d="M109.12,74.78h.51v.81h.52a1.86,1.86,0,0,1,.46,0,.47.47,0,0,1,.27.19.58.58,0,0,1,.11.34.52.52,0,0,1-.19.42,1,1,0,0,1-.58.14h-1.1Zm.51,1.61h.48a.41.41,0,0,0,.29-.07.25.25,0,0,0,.06-.17.21.21,0,0,0-.11-.2,1.1,1.1,0,0,0-.39,0h-.33Z"/><path class="p" d="M111.38,74.78h.52v.71h.73v-.71h.52v1.94h-.52v-.81h-.73v.81h-.52Z"/><path class="p" d="M113.54,75.72a1.09,1.09,0,0,1,.13-.49.86.86,0,0,1,.36-.37,1.07,1.07,0,0,1,.51-.12,1,1,0,0,1,.73.28,1,1,0,0,1,.28.72,1,1,0,0,1-.29.73.92.92,0,0,1-.71.29,1.13,1.13,0,0,1-.51-.12.79.79,0,0,1-.37-.35A1.2,1.2,0,0,1,113.54,75.72Zm.53,0a.64.64,0,0,0,.14.44.44.44,0,0,0,.34.16.44.44,0,0,0,.33-.16.76.76,0,0,0,0-.88.43.43,0,0,0-.33-.15.43.43,0,0,0-.34.15A.64.64,0,0,0,114.07,75.75Z"/><path class="p" d="M115.93,74.78h1.31v.42h-.8v1.52h-.51Z"/><path class="p" d="M117.34,75.72a1.07,1.07,0,0,1,.12-.49,1,1,0,0,1,.36-.37,1.11,1.11,0,0,1,.52-.12,1,1,0,0,1,1,1,1,1,0,0,1-.29.73.91.91,0,0,1-.71.29,1.13,1.13,0,0,1-.51-.12.83.83,0,0,1-.37-.35A1.2,1.2,0,0,1,117.34,75.72Zm.52,0a.64.64,0,0,0,.14.44.44.44,0,0,0,.34.16.44.44,0,0,0,.33-.16.76.76,0,0,0,0-.88.43.43,0,0,0-.33-.15.43.43,0,0,0-.34.15A.64.64,0,0,0,117.86,75.75Z"/><path class="p" d="M121.9,76.1l.51.09a.82.82,0,0,1-.31.43,1,1,0,0,1-.53.14.87.87,0,0,1-.75-.33,1.09,1.09,0,0,1-.19-.67,1,1,0,0,1,.25-.75.93.93,0,0,1,1.32,0,1.25,1.25,0,0,1,.24.88h-1.28a.48.48,0,0,0,.12.35.38.38,0,0,0,.3.13.29.29,0,0,0,.2-.07A.42.42,0,0,0,121.9,76.1Zm0-.52a.47.47,0,0,0-.11-.33.37.37,0,0,0-.27-.12.36.36,0,0,0-.28.12.49.49,0,0,0-.11.33Z"/><path class="p" d="M122.84,74.78h1.31v.42h-.8v1.52h-.51Z"/><path class="p" d="M124.25,75.72a1.07,1.07,0,0,1,.12-.49,1,1,0,0,1,.36-.37,1.14,1.14,0,0,1,.52-.12,1,1,0,0,1,.72,1.73.94.94,0,0,1-.72.29,1.13,1.13,0,0,1-.51-.12.83.83,0,0,1-.37-.35A1.2,1.2,0,0,1,124.25,75.72Zm.52,0a.64.64,0,0,0,.14.44.44.44,0,0,0,.68,0,.81.81,0,0,0,0-.88.46.46,0,0,0-.68,0A.64.64,0,0,0,124.77,75.75Z"/><path class="p" d="M85.87,82.15V78.72h.91v.4h-.42v2.62h.42v.41Z"/><path class="p" d="M87,80.4a1,1,0,0,1,.13-.5.78.78,0,0,1,.36-.36,1,1,0,0,1,1.51.88,1,1,0,0,1-.28.73,1,1,0,0,1-.72.29,1.11,1.11,0,0,1-.5-.12.81.81,0,0,1-.37-.36A1.08,1.08,0,0,1,87,80.4Zm.53,0a.62.62,0,0,0,.14.45A.43.43,0,0,0,88,81a.43.43,0,0,0,.34-.15.67.67,0,0,0,.14-.45.66.66,0,0,0-.14-.44.43.43,0,0,0-.34-.15.43.43,0,0,0-.33.15A.61.61,0,0,0,87.53,80.42Z"/><path class="p" d="M90.86,78.66h.35a.58.58,0,0,1-.12.35.75.75,0,0,1-.52.12h-.16a1.09,1.09,0,0,0-.4.06.42.42,0,0,0-.25.21.91.91,0,0,0-.1.5.75.75,0,0,1,.29-.32.83.83,0,0,1,.43-.11.81.81,0,0,1,.64.3,1,1,0,0,1,.27.69,1,1,0,0,1-.28.7,1,1,0,0,1-.73.29,1,1,0,0,1-.54-.15.76.76,0,0,1-.33-.4A2.48,2.48,0,0,1,89.3,80a1.59,1.59,0,0,1,.26-1,1.13,1.13,0,0,1,.9-.3h.26A.15.15,0,0,0,90.86,78.66Zm-1,1.78a.6.6,0,0,0,.13.42.42.42,0,0,0,.32.15.41.41,0,0,0,.34-.16.71.71,0,0,0,0-.82.41.41,0,0,0-.33-.16A.43.43,0,0,0,90,80,.64.64,0,0,0,89.83,80.44Z"/><path class="p" d="M91.47,79.46h1.15v.8h.51a1.81,1.81,0,0,1,.46,0,.47.47,0,0,1,.27.19.51.51,0,0,1,.11.34.56.56,0,0,1-.16.41.92.92,0,0,1-.61.15H92.1V79.87h-.63Zm1.15,1.61h.47c.15,0,.25,0,.29-.07a.29.29,0,0,0,.07-.18.19.19,0,0,0-.11-.19.93.93,0,0,0-.39,0h-.33Z"/><path class="p" d="M95.51,80.78l.52.08a.83.83,0,0,1-.32.43,1,1,0,0,1-1.28-.18,1.18,1.18,0,0,1-.19-.67,1.14,1.14,0,0,1,.25-.76.84.84,0,0,1,.64-.27.85.85,0,0,1,.68.29,1.22,1.22,0,0,1,.24.87H94.77a.52.52,0,0,0,.12.36.41.41,0,0,0,.3.12.32.32,0,0,0,.2-.06A.34.34,0,0,0,95.51,80.78Zm0-.52a.5.5,0,0,0-.11-.34.34.34,0,0,0-.27-.12.39.39,0,0,0-.28.13.48.48,0,0,0-.1.33Z"/><path class="p" d="M96.44,79.46h.63l.48,1.35L98,79.46h.63v1.93h-.43V80.12l-.48,1.27h-.43l-.45-1.27v1.27h-.44Z"/><path class="p" d="M99.52,80.05,99.06,80a.71.71,0,0,1,.27-.41,1,1,0,0,1,.57-.14,1.29,1.29,0,0,1,.51.08.53.53,0,0,1,.23.21,1,1,0,0,1,.07.46v.6a1.79,1.79,0,0,0,0,.37,1.34,1.34,0,0,0,.09.26h-.5a.64.64,0,0,1,0-.15l0-.06a.82.82,0,0,1-.28.19.71.71,0,0,1-.32.07.68.68,0,0,1-.47-.16.54.54,0,0,1-.18-.41.54.54,0,0,1,.3-.5,2,2,0,0,1,.41-.11,3,3,0,0,0,.5-.13v0a.29.29,0,0,0-.07-.21.39.39,0,0,0-.28-.07.33.33,0,0,0-.21.06A.31.31,0,0,0,99.52,80.05Zm.69.41a1.91,1.91,0,0,1-.31.08.8.8,0,0,0-.28.09.21.21,0,0,0-.1.18.24.24,0,0,0,.08.19.28.28,0,0,0,.2.08.48.48,0,0,0,.27-.09.38.38,0,0,0,.12-.17,1.29,1.29,0,0,0,0-.25Z"/><path class="p" d="M101.93,78.72v3.43H101v-.41h.42V79.12H101v-.4Z"/><path class="p" d="M104,80.6v-.34h.19a.19.19,0,0,0,.11-.09.2.2,0,0,0,.06-.15.28.28,0,0,0-.07-.17.25.25,0,0,0-.2-.08.35.35,0,0,0-.18,0c-.06,0-.1.1-.15.21l-.43-.1a.55.55,0,0,1,.28-.38.9.9,0,0,1,.49-.13.87.87,0,0,1,.54.16.51.51,0,0,1,.2.41.37.37,0,0,1-.09.25.83.83,0,0,1-.26.18.66.66,0,0,1,.32.18.44.44,0,0,1,.11.3.46.46,0,0,1-.21.38,1,1,0,0,1-.61.17.77.77,0,0,1-.85-.54l.47-.09a.39.39,0,0,0,.37.29.34.34,0,0,0,.23-.08.22.22,0,0,0,0-.36.43.43,0,0,0-.24-.06Z"/><path class="p" d="M105.34,79.46h.51v.71h.74v-.71h.51v1.93h-.51v-.81h-.74v.81h-.51Z"/><path class="p" d="M108,80.05l-.46-.09a.71.71,0,0,1,.27-.41,1,1,0,0,1,.57-.14,1.29,1.29,0,0,1,.51.08.63.63,0,0,1,.24.21,1.2,1.2,0,0,1,.06.46v.6a3,3,0,0,0,0,.37.93.93,0,0,0,.1.26h-.51a.64.64,0,0,1,0-.15l0-.06a.82.82,0,0,1-.28.19.71.71,0,0,1-.32.07.68.68,0,0,1-.47-.16.54.54,0,0,1-.18-.41.61.61,0,0,1,.08-.3.7.7,0,0,1,.22-.2,2,2,0,0,1,.41-.11,3,3,0,0,0,.5-.13v0a.25.25,0,0,0-.07-.21.39.39,0,0,0-.28-.07.33.33,0,0,0-.21.06A.42.42,0,0,0,108,80.05Zm.69.41a1.91,1.91,0,0,1-.31.08.89.89,0,0,0-.28.09.21.21,0,0,0-.1.18.24.24,0,0,0,.08.19.28.28,0,0,0,.2.08.46.46,0,0,0,.27-.09.38.38,0,0,0,.12-.17,1.29,1.29,0,0,0,0-.25Z"/><path class="p" d="M109.55,79.46h.51v.46a.78.78,0,0,0,0,.24.29.29,0,0,0,.12.13.43.43,0,0,0,.24,0,.89.89,0,0,0,.3-.06v-.82h.52v1.93h-.52v-.77a2.13,2.13,0,0,1-.45.08.88.88,0,0,1-.43-.1.52.52,0,0,1-.25-.26,1,1,0,0,1-.07-.42Z"/><path class="p" d="M112.9,80.78l.51.08a.82.82,0,0,1-.31.43.9.9,0,0,1-.53.15.87.87,0,0,1-.75-.33,1.11,1.11,0,0,1-.19-.67,1.09,1.09,0,0,1,.25-.76.84.84,0,0,1,.64-.27.88.88,0,0,1,.68.29,1.22,1.22,0,0,1,.24.87h-1.29a.58.58,0,0,0,.13.36.4.4,0,0,0,.29.12.37.37,0,0,0,.21-.06A.47.47,0,0,0,112.9,80.78Zm0-.52a.45.45,0,0,0-.12-.34.34.34,0,0,0-.26-.12.37.37,0,0,0-.28.13.49.49,0,0,0-.11.33Z"/><path class="p" d="M113.84,79.46h.51v.71h.73v-.71h.52v1.93h-.52v-.81h-.73v.81h-.51Z"/><path class="p" d="M116.1,79.46h.5v1.21l.78-1.21h.51v1.93h-.49V80.15l-.8,1.24h-.5Z"/><path class="p" d="M120.08,79.46v1.93h-.51v-.8h0a.49.49,0,0,0-.24,0,.6.6,0,0,0-.18.18l0,0-.34.54h-.59l.36-.56a.67.67,0,0,1,.29-.28.46.46,0,0,1-.35-.16.55.55,0,0,1-.13-.38.61.61,0,0,1,.08-.32.5.5,0,0,1,.24-.19,1.63,1.63,0,0,1,.44,0Zm-.51.33h-.37a.48.48,0,0,0-.28,0,.22.22,0,0,0-.09.19.21.21,0,0,0,.1.2.71.71,0,0,0,.3,0h.34Z"/><line class="q" x1="96.73" y1="95.16" x2="73.57" y2="95.16"/><polygon class="r" points="71.81 95.16 74.3 94.14 73.71 95.16 74.3 96.17 71.81 95.16"/></svg>