<svg xmlns="http://www.w3.org/2000/svg" viewBox="0 0 16 13.1"><title>book</title><path d="M8.5,2.69a3.71,3.71,0,0,1,3.11-.76,12.76,12.76,0,0,1,3.39.9v9.92a13.43,13.43,0,0,0-3.29-.81,5.49,5.49,0,0,0-3.21.49ZM8,1.78A4.94,4.94,0,0,0,4.29.94,13.69,13.69,0,0,0,.29,2,.51.51,0,0,0,0,2.5v11a.5.5,0,0,0,.5.5A.54.54,0,0,0,.71,14a12.65,12.65,0,0,1,3.68-1c1.41-.14,2.59.09,3.22.88a.5.5,0,0,0,.7.08l.08-.08c.63-.79,1.81-1,3.22-.88a12.65,12.65,0,0,1,3.68,1,.5.5,0,0,0,.67-.24.78.78,0,0,0,0-.21V2.5A.51.51,0,0,0,15.71,2a13.6,13.6,0,0,0-4-1.1A4.93,4.93,0,0,0,8,1.78Z" transform="translate(0 -0.9)"/></svg>