<svg xmlns="http://www.w3.org/2000/svg" viewBox="0 0 150.58 170.09"><defs><style>.a,.b{fill:none;stroke:#000;stroke-linecap:round;stroke-miterlimit:10;}.a{stroke-width:2px;}</style></defs><title>carbs(formula)</title><path d="M161.14,76.33l.32-1.53a1.5,1.5,0,0,0,.59.09.81.81,0,0,0,.75-.36l.12-.24-2.65-5.77h1.87l.91,2.28.65,1.87h.05l.62-1.87.83-2.28H167l-2.41,6a2.53,2.53,0,0,1-2.41,1.92A2.75,2.75,0,0,1,161.14,76.33Z" transform="translate(-116.39 -68.52)"/><path d="M167.68,70.39h4.09v1.38h-2.33v4.57h-1.76Z" transform="translate(-116.39 -68.52)"/><path d="M172.15,76.35l.29-1.58a1.25,1.25,0,0,0,.3,0c.32,0,.56-.24.64-.89.16-1.17.27-2.35.41-3.54h4.39v6h-1.76V71.77h-1.23c-.1.87-.21,1.78-.33,2.65-.19,1.33-.85,2.06-2,2.06A1.8,1.8,0,0,1,172.15,76.35Z" transform="translate(-116.39 -68.52)"/><path d="M179.39,73.37a2.93,2.93,0,0,1,2.81-3.12c1.69,0,2.53,1.23,2.53,2.86a4.33,4.33,0,0,1-.07.78H181.1a1.44,1.44,0,0,0,1.54,1.26,2.54,2.54,0,0,0,1.29-.39l.58,1.06a3.9,3.9,0,0,1-2.11.67A2.91,2.91,0,0,1,179.39,73.37Zm3.84-.65c0-.65-.28-1.13-1-1.13a1.18,1.18,0,0,0-1.16,1.13Z" transform="translate(-116.39 -68.52)"/><path d="M186,70.39h2.53c1.33,0,2.4.38,2.4,1.57a1.25,1.25,0,0,1-1,1.23v0a1.36,1.36,0,0,1,1.22,1.39c0,1.22-1.12,1.71-2.48,1.71h-2.68v-6Zm2.42,2.33c.58,0,.82-.21.82-.57s-.23-.59-.81-.59h-.7v1.16Zm.16,2.45c.62,0,.87-.28.87-.67s-.26-.63-.88-.63h-.84v1.29h.85Z" transform="translate(-116.39 -68.52)"/><path d="M191.94,73.37a2.91,2.91,0,1,1,2.9,3.12A2.92,2.92,0,0,1,191.94,73.37Zm4,0c0-1-.36-1.7-1.09-1.7s-1.09.67-1.09,1.7.36,1.69,1.09,1.69S195.93,74.4,195.93,73.37Z" transform="translate(-116.39 -68.52)"/><path d="M200,78.4h-1.52l-.17-2.29V75H205v1.16l-.17,2.29h-1.52V76.34H200V78.4Zm2.34-6.63h-1.28l-.15,1.38c-.22,2-1,2.8-2.08,2.83l-.14-1c.28-.15.49-.52.69-2.2l.28-2.36h4.44v5.44h-1.76V71.77Z" transform="translate(-116.39 -68.52)"/><path d="M206,70.39h1.76v1.9h.44c1.44,0,2.55.52,2.55,2s-1.11,2-2.55,2H206ZM208.08,75c.64,0,.94-.23.94-.71s-.3-.69-.94-.69h-.36V75h.36Zm3.43-4.61h1.76v6h-1.76Z" transform="translate(-116.39 -68.52)"/><line class="a" x1="22.69" y1="52.16" x2="51.97" y2="13.26"/><line class="a" x1="117.74" y1="52.16" x2="88.46" y2="13.26"/><line class="a" x1="22.69" y1="98.57" x2="51.97" y2="137.47"/><line class="a" x1="117.74" y1="98.57" x2="88.46" y2="137.47"/><path class="b" d="M154.7,149.8H123a6.11,6.11,0,0,1-6.11-6.11v-9.8a6.11,6.11,0,0,1,6.11-6.11h31.68a6.11,6.11,0,0,1,6.11,6.11v9.8A6.11,6.11,0,0,1,154.7,149.8Z" transform="translate(-116.39 -68.52)"/><path class="b" d="M253.06,149.8H221.38a6.11,6.11,0,0,1-6.11-6.11v-9.8a6.11,6.11,0,0,1,6.11-6.11h31.68a6.11,6.11,0,0,1,6.11,6.11v9.8A6.11,6.11,0,0,1,253.06,149.8Z" transform="translate(-116.39 -68.52)"/><path d="M126.24,138.18c0-2.59,1.71-4.1,3.69-4.1a3.34,3.34,0,0,1,2.35,1l-.93,1.13a1.93,1.93,0,0,0-1.38-.62c-1.07,0-1.92.94-1.92,2.51s.75,2.54,1.89,2.54a2.08,2.08,0,0,0,1.53-.73l.93,1.11a3.23,3.23,0,0,1-2.52,1.15C127.9,142.19,126.24,140.81,126.24,138.18Z" transform="translate(-116.39 -68.52)"/><path d="M135.48,136.07H141v1.25h-5.52Zm0,2.79H141v1.25h-5.52Z" transform="translate(-116.39 -68.52)"/><path d="M144.36,138.1c0-2.55,1.44-4,3.55-4s3.55,1.47,3.55,4-1.44,4.09-3.55,4.09S144.36,140.66,144.36,138.1Zm5.29,0c0-1.57-.67-2.49-1.74-2.49s-1.74.92-1.74,2.49.67,2.56,1.74,2.56S149.65,139.67,149.65,138.1Z" transform="translate(-116.39 -68.52)"/><path d="M229.63,138.1c0-2.55,1.44-4,3.55-4s3.55,1.47,3.55,4-1.44,4.09-3.55,4.09S229.63,140.66,229.63,138.1Zm5.29,0c0-1.57-.67-2.49-1.74-2.49s-1.74.92-1.74,2.49.67,2.56,1.74,2.56S234.92,139.67,234.92,138.1Z" transform="translate(-116.39 -68.52)"/><path d="M238.2,134.23H240v3h2.7v-3h1.77v7.82h-1.77v-3.26H240v3.26H238.2Z" transform="translate(-116.39 -68.52)"/><path d="M185.41,140H181.5v-2.3h3.91v-4.1h2.39v4.09h3.91v2.3H187.8V144h-2.39Z" transform="translate(-116.39 -68.52)"/><path class="b" d="M210.41,238.11H163.25a6.11,6.11,0,0,1-6.11-6.11v-9.8a6.11,6.11,0,0,1,6.11-6.11h47.16a6.11,6.11,0,0,1,6.11,6.11V232A6.11,6.11,0,0,1,210.41,238.11Z" transform="translate(-116.39 -68.52)"/><path d="M167.06,225.9c0-2.59,1.71-4.1,3.69-4.1a3.34,3.34,0,0,1,2.35,1l-.93,1.13a1.93,1.93,0,0,0-1.38-.62c-1.07,0-1.92.94-1.92,2.51s.75,2.54,1.89,2.54a2.08,2.08,0,0,0,1.53-.73l.93,1.11a3.23,3.23,0,0,1-2.52,1.15C168.72,229.91,167.06,228.54,167.06,225.9Z" transform="translate(-116.39 -68.52)"/><path d="M174,230.3h.84l.07.44h0a1.58,1.58,0,0,1,1.11-.52c.75,0,1.08.53,1.08,1.4v2.15h-1v-2c0-.5-.13-.66-.43-.66a.86.86,0,0,0-.64.34v2.34h-1V230.3Z" transform="translate(-116.39 -68.52)"/><path d="M178.36,226.43a10.14,10.14,0,0,1,1.58-5.48l1.11.46a10.21,10.21,0,0,0-1.27,5,10.1,10.1,0,0,0,1.27,5l-1.11.46A10.14,10.14,0,0,1,178.36,226.43Z" transform="translate(-116.39 -68.52)"/><path d="M182.55,222h1.77v3H187v-3h1.77v7.82H187v-3.26h-2.7v3.26h-1.77Z" transform="translate(-116.39 -68.52)"/><path d="M190,233.18c1.13-1.07,1.93-1.83,1.93-2.46a.6.6,0,0,0-.63-.67,1.15,1.15,0,0,0-.79.45l-.56-.55a1.87,1.87,0,0,1,1.49-.7,1.36,1.36,0,0,1,1.47,1.41c0,.75-.7,1.54-1.42,2.29a6.57,6.57,0,0,1,.74,0h.89v.86H190v-.58Z" transform="translate(-116.39 -68.52)"/><path d="M193.85,225.93c0-2.59,1.09-3.92,2.72-3.92s2.73,1.34,2.73,3.92-1.09,4-2.73,4S193.85,228.52,193.85,225.93Zm3.78,0c0-2.08-.46-2.55-1.06-2.55s-1.06.48-1.06,2.55.46,2.62,1.06,2.62S197.63,228,197.63,225.93Z" transform="translate(-116.39 -68.52)"/><path d="M200.32,231.45a10.21,10.21,0,0,0,1.27-5,10.1,10.1,0,0,0-1.27-5l1.11-.46a10.29,10.29,0,0,1,0,11Z" transform="translate(-116.39 -68.52)"/><path d="M204.31,230.3h.81l.07.44h0a1.39,1.39,0,0,1,1-.53.93.93,0,0,1,.93.58,1.45,1.45,0,0,1,1.06-.58c.73,0,1.05.53,1.05,1.4v2.15h-1v-2c0-.5-.13-.66-.42-.66a.84.84,0,0,0-.57.34v2.34h-1v-2c0-.5-.13-.66-.42-.66a.84.84,0,0,0-.57.34v2.34h-1V230.3Z" transform="translate(-116.39 -68.52)"/><path d="M116.39,156.17h1.17v1.74h1.06l1.64,2.82H119l-1.1-1.85h-.38v1.85h-1.17Zm1.44,1.93.67-1.21a1.3,1.3,0,0,1,1.24-.81.91.91,0,0,1,.41.07l-.19,1.08a.56.56,0,0,0-.2,0c-.2,0-.32.1-.46.35l-.45.79Z" transform="translate(-116.39 -68.52)"/><path d="M121.51,156.17h1.41l1.34,4.55H123l-.5-2.21c-.11-.43-.22-1-.33-1.44h0c-.09.46-.2,1-.31,1.44l-.5,2.21h-1.19Zm-.38,2.66h2.16v.93h-2.16Z" transform="translate(-116.39 -68.52)"/><path d="M124.68,156.17h1.62c1,0,1.79.36,1.79,1.51a1.58,1.58,0,0,1-1.77,1.6h-.48v1.44h-1.16Zm1.59,2.16a.59.59,0,0,0,.68-.64c0-.4-.26-.56-.71-.56h-.39v1.2Z" transform="translate(-116.39 -68.52)"/><path d="M128.81,156.17h3.12v1h-2v.71h.52c.92,0,1.72.32,1.72,1.36s-.79,1.47-1.7,1.47h-1.71Zm1.6,3.63c.45,0,.67-.17.67-.53s-.23-.49-.67-.49H130v1Z" transform="translate(-116.39 -68.52)"/><path d="M132.75,158.43c0-1.5.83-2.34,2.05-2.34s2,.85,2,2.34-.83,2.38-2,2.38S132.75,159.93,132.75,158.43Zm2.91,0c0-.83-.33-1.3-.86-1.3s-.86.48-.86,1.3.33,1.34.86,1.34S135.66,159.25,135.66,158.43Z" transform="translate(-116.39 -68.52)"/><path d="M137.64,156.17h2.88v1h-1.71v3.54h-1.17Z" transform="translate(-116.39 -68.52)"/><path d="M141.24,156.17h1.62c1,0,1.79.36,1.79,1.51a1.58,1.58,0,0,1-1.77,1.6h-.48v1.44h-1.17v-4.55Zm1.59,2.16a.59.59,0,0,0,.68-.64c0-.4-.26-.56-.71-.56h-.39v1.2Z" transform="translate(-116.39 -68.52)"/><path d="M145.39,160.71l.2-1a.84.84,0,0,0,.35.06.41.41,0,0,0,.37-.15l.05-.1-1.49-3.31h1.24l.39,1.06.38,1.16h0l.37-1.16.35-1.06h1.17l-1.33,3.44a1.57,1.57,0,0,1-2.08,1.1Z" transform="translate(-116.39 -68.52)"/><path d="M149.24,156.17h3.57v4.55h-1.17v-3.54H150.4v3.54h-1.17v-4.55Z" transform="translate(-116.39 -68.52)"/><path d="M153.79,156.17h3.57v4.55h-1.17v-3.54H155v3.54h-1.17v-4.55Z" transform="translate(-116.39 -68.52)"/><path d="M159.12,156.17h1.41l1.34,4.55h-1.24l-.5-2.21c-.11-.43-.22-1-.33-1.44h0c-.1.46-.2,1-.31,1.44l-.5,2.21h-1.2Zm-.38,2.66h2.16v.93h-2.16Z" transform="translate(-116.39 -68.52)"/><path d="M208,156.17h2.88v1H209.2v3.54H208Z" transform="translate(-116.39 -68.52)"/><path d="M211.62,156.17h1.15v1.32a15.45,15.45,0,0,1-.15,1.74h0l.42-1,1-2h1.24v4.55h-1.15v-1.32a16.09,16.09,0,0,1,.15-1.74h0l-.42,1-1,2h-1.24Z" transform="translate(-116.39 -68.52)"/><path d="M217,162h-1l-.1-1.57v-.76h4.52v.76l-.09,1.57h-1v-1.32H217V162Zm1.65-4.86h-.71c-.08.46-.12.66-.2,1.13-.24,1.3-.71,2.16-1.53,2.16l-.15-.76c.2-.07.43-.49.64-1.55.14-.76.21-1.16.35-2h2.77v4.2h-1.17v-3.19Z" transform="translate(-116.39 -68.52)"/><path d="M220.9,156.17h1.62c1,0,1.79.36,1.79,1.51a1.58,1.58,0,0,1-1.76,1.6h-.48v1.44H220.9Zm1.59,2.16a.59.59,0,0,0,.68-.64c0-.4-.26-.56-.71-.56h-.39v1.2Z" transform="translate(-116.39 -68.52)"/><path d="M224.84,158.43c0-1.5.83-2.34,2-2.34s2.05.85,2.05,2.34-.83,2.38-2.05,2.38S224.84,159.93,224.84,158.43Zm2.9,0c0-.83-.33-1.3-.86-1.3s-.86.48-.86,1.3.33,1.34.86,1.34S227.74,159.25,227.74,158.43Z" transform="translate(-116.39 -68.52)"/><path d="M229.73,156.17h1.17v1.74H232l1.64,2.82h-1.22l-1.1-1.85h-.38v1.85h-1.17v-4.56Zm1.44,1.93.67-1.21a1.3,1.3,0,0,1,1.24-.81.91.91,0,0,1,.41.07l-.19,1.08a.56.56,0,0,0-.2,0c-.2,0-.32.1-.46.35l-.45.79Z" transform="translate(-116.39 -68.52)"/><path d="M233.87,158.48a2.19,2.19,0,0,1,2.13-2.4,1.93,1.93,0,0,1,1.37.6l-.61.77a1,1,0,0,0-.73-.34c-.52,0-1,.49-1,1.32s.38,1.33,1,1.33a1.08,1.08,0,0,0,.8-.39l.61.76a1.82,1.82,0,0,1-1.45.67A2.08,2.08,0,0,1,233.87,158.48Z" transform="translate(-116.39 -68.52)"/><path d="M237.85,158.43c0-1.5.83-2.34,2.05-2.34s2,.85,2,2.34-.83,2.38-2,2.38S237.85,159.93,237.85,158.43Zm2.9,0c0-.83-.33-1.3-.86-1.3s-.86.48-.86,1.3.33,1.34.86,1.34S240.75,159.25,240.75,158.43Z" transform="translate(-116.39 -68.52)"/><path d="M242.74,156.17h2.88v1h-1.71v3.54h-1.17Z" transform="translate(-116.39 -68.52)"/><path d="M246.33,156.17H248c1,0,1.79.36,1.79,1.51a1.58,1.58,0,0,1-1.77,1.6h-.48v1.44h-1.17v-4.55Zm1.59,2.16a.59.59,0,0,0,.68-.64c0-.4-.26-.56-.71-.56h-.39v1.2Z" transform="translate(-116.39 -68.52)"/><path d="M250.49,160.71l.2-1a.84.84,0,0,0,.35.06.41.41,0,0,0,.37-.15l.05-.1L250,156.17h1.24l.39,1.06.38,1.16h0l.37-1.16.35-1.06h1.17l-1.33,3.44a1.56,1.56,0,0,1-1.47,1.2A1.53,1.53,0,0,1,250.49,160.71Z" transform="translate(-116.39 -68.52)"/><path d="M254.33,156.17h3.57v4.55h-1.17v-3.54h-1.24v3.54h-1.17v-4.55Z" transform="translate(-116.39 -68.52)"/><path d="M258.88,156.17h3.57v4.55h-1.17v-3.54H260v3.54h-1.17v-4.55Z" transform="translate(-116.39 -68.52)"/><path d="M264.22,156.17h1.41l1.34,4.55h-1.24l-.5-2.21c-.11-.43-.22-1-.33-1.44h0c-.1.46-.2,1-.31,1.44l-.5,2.21h-1.2Zm-.38,2.66H266v.93h-2.16Z" transform="translate(-116.39 -68.52)"/></svg>