<svg xmlns="http://www.w3.org/2000/svg" viewBox="0 0 267.74 202.07"><defs><style>.a{fill:#1d1d1b;}.b{fill:#be1622;}</style></defs><title>gluc-fruc-galac</title><path class="a" d="M195.54,324.6V526.68H463.28V324.6ZM462.28,525.68H196.54V325.6H462.28Z" transform="translate(-195.54 -324.6)"/><rect class="a" x="0.5" y="174.3" width="266.74" height="1"/><rect class="a" x="177.83" y="0.5" width="1" height="201.07"/><rect class="a" x="88.91" y="0.5" width="1" height="201.07"/><path class="a" d="M330.65,473.73a.51.51,0,0,1-.5-.5V365.31a.5.5,0,0,1,.5-.5.5.5,0,0,1,.5.5V473.23A.5.5,0,0,1,330.65,473.73Z" transform="translate(-195.54 -324.6)"/><path class="a" d="M348.52,405H312.78a.5.5,0,0,1-.5-.5.51.51,0,0,1,.5-.5h35.74a.5.5,0,0,1,.5.5A.5.5,0,0,1,348.52,405Z" transform="translate(-195.54 -324.6)"/><path class="a" d="M348.52,450.33H312.78a.51.51,0,0,1-.5-.5.5.5,0,0,1,.5-.5h35.74a.5.5,0,0,1,.5.5A.5.5,0,0,1,348.52,450.33Z" transform="translate(-195.54 -324.6)"/><path class="a" d="M348.52,427.65H312.78a.5.5,0,0,1-.5-.5.51.51,0,0,1,.5-.5h35.74a.5.5,0,0,1,.5.5A.5.5,0,0,1,348.52,427.65Z" transform="translate(-195.54 -324.6)"/><path class="b" d="M348.53,385.85H330.66a.5.5,0,0,1-.5-.5.5.5,0,0,1,.5-.5h17.87a.51.51,0,0,1,.5.5A.5.5,0,0,1,348.53,385.85Z" transform="translate(-195.54 -324.6)"/><path class="b" d="M348.53,382.1H330.66a.5.5,0,1,1,0-1h17.87a.5.5,0,0,1,0,1Z" transform="translate(-195.54 -324.6)"/><path class="a" d="M324.61,481.93c0-2.6,1.71-4.1,3.69-4.1a3.34,3.34,0,0,1,2.35,1l-.93,1.14a2,2,0,0,0-1.38-.62c-1.07,0-1.92.94-1.92,2.51s.75,2.54,1.89,2.54a2.08,2.08,0,0,0,1.53-.73l.93,1.11a3.22,3.22,0,0,1-2.52,1.14C326.26,485.93,324.61,484.56,324.61,481.93Z" transform="translate(-195.54 -324.6)"/><path class="a" d="M332,478h1.77v3h2.7v-3h1.77v7.82h-1.77v-3.26h-2.7v3.26H332Z" transform="translate(-195.54 -324.6)"/><path class="a" d="M339.39,489.2c1.13-1.07,1.92-1.83,1.92-2.46a.6.6,0,0,0-.63-.67,1.19,1.19,0,0,0-.79.45l-.55-.55a1.85,1.85,0,0,1,1.48-.7,1.36,1.36,0,0,1,1.48,1.41,4,4,0,0,1-1.43,2.29c.23,0,.54-.05.74-.05h.9v.87h-3.12Z" transform="translate(-195.54 -324.6)"/><path class="a" d="M343.38,481.85c0-2.56,1.44-4,3.54-4s3.55,1.47,3.55,4-1.44,4.08-3.55,4.08S343.38,484.4,343.38,481.85Zm5.28,0c0-1.57-.67-2.49-1.74-2.49s-1.73.92-1.73,2.49.67,2.56,1.73,2.56S348.66,483.42,348.66,481.85Z" transform="translate(-195.54 -324.6)"/><path class="a" d="M352,478h1.77v3h2.7v-3h1.76v7.82h-1.76v-3.26h-2.7v3.26H352Z" transform="translate(-195.54 -324.6)"/><path class="a" d="M352.42,427c0-2.56,1.45-4,3.55-4s3.55,1.47,3.55,4-1.44,4.08-3.55,4.08S352.42,429.54,352.42,427Zm5.29,0c0-1.57-.67-2.5-1.74-2.5s-1.73.93-1.73,2.5.67,2.56,1.73,2.56S357.71,428.55,357.71,427Z" transform="translate(-195.54 -324.6)"/><path class="a" d="M361,423.11h1.77v3h2.7v-3h1.76v7.82h-1.76v-3.26h-2.7v3.26H361Z" transform="translate(-195.54 -324.6)"/><path class="a" d="M352.42,450.05c0-2.56,1.45-4,3.55-4s3.55,1.47,3.55,4-1.44,4.08-3.55,4.08S352.42,452.6,352.42,450.05Zm5.29,0c0-1.57-.67-2.5-1.74-2.5s-1.73.93-1.73,2.5.67,2.56,1.73,2.56S357.71,451.61,357.71,450.05Z" transform="translate(-195.54 -324.6)"/><path class="a" d="M361,446.17h1.77v3h2.7v-3h1.76V454h-1.76v-3.26h-2.7V454H361Z" transform="translate(-195.54 -324.6)"/><path class="a" d="M353.6,400.32h1.76v3h2.7v-3h1.77v7.81h-1.77v-3.26h-2.7v3.26H353.6Z" transform="translate(-195.54 -324.6)"/><path class="a" d="M302,446.17h1.77v3h2.7v-3h1.76V454h-1.76v-3.26h-2.7V454H302Z" transform="translate(-195.54 -324.6)"/><path class="a" d="M302,423.11h1.77v3h2.7v-3h1.76v7.82h-1.76v-3.26h-2.7v3.26H302Z" transform="translate(-195.54 -324.6)"/><path class="b" d="M352.42,383.21c0-2.55,1.45-4,3.55-4s3.55,1.47,3.55,4-1.44,4.09-3.55,4.09S352.42,385.77,352.42,383.21Zm5.29,0c0-1.56-.67-2.49-1.74-2.49s-1.73.93-1.73,2.49.67,2.57,1.73,2.57S357.71,384.78,357.71,383.21Z" transform="translate(-195.54 -324.6)"/><path class="b" d="M324.61,357.38c0-2.59,1.71-4.1,3.69-4.1a3.3,3.3,0,0,1,2.35,1l-.93,1.13a2,2,0,0,0-1.38-.62c-1.07,0-1.92.94-1.92,2.51s.75,2.54,1.89,2.54a2.08,2.08,0,0,0,1.53-.73l.93,1.11a3.2,3.2,0,0,1-2.52,1.15C326.26,361.39,324.61,360,324.61,357.38Z" transform="translate(-195.54 -324.6)"/><path class="b" d="M332,353.43h1.77v3h2.7v-3h1.77v7.81h-1.77V358h-2.7v3.26H332Z" transform="translate(-195.54 -324.6)"/><path class="b" d="M339.39,364.65c1.13-1.07,1.92-1.83,1.92-2.46a.6.6,0,0,0-.63-.67,1.19,1.19,0,0,0-.79.45l-.55-.55a1.85,1.85,0,0,1,1.48-.7,1.37,1.37,0,0,1,1.48,1.41c0,.75-.7,1.54-1.43,2.3a6.57,6.57,0,0,1,.74-.05h.9v.86h-3.12Z" transform="translate(-195.54 -324.6)"/><path class="b" d="M343.38,357.3c0-2.55,1.44-4,3.54-4s3.55,1.48,3.55,4-1.44,4.09-3.55,4.09S343.38,359.85,343.38,357.3Zm5.28,0c0-1.57-.67-2.49-1.74-2.49s-1.73.92-1.73,2.49.67,2.56,1.73,2.56S348.66,358.87,348.66,357.3Z" transform="translate(-195.54 -324.6)"/><path class="b" d="M352,353.43h1.77v3h2.7v-3h1.76v7.81h-1.76V358h-2.7v3.26H352Z" transform="translate(-195.54 -324.6)"/><path class="a" d="M294.63,400.32h1.77v3h2.69v-3h1.77v7.81h-1.77v-3.26H296.4v3.26h-1.77Z" transform="translate(-195.54 -324.6)"/><path class="a" d="M302.35,404.19c0-2.55,1.44-4,3.55-4s3.55,1.48,3.55,4-1.45,4.09-3.55,4.09S302.35,406.75,302.35,404.19Zm5.29,0c0-1.57-.68-2.49-1.74-2.49s-1.74.92-1.74,2.49.67,2.56,1.74,2.56S307.64,405.76,307.64,404.19Z" transform="translate(-195.54 -324.6)"/><path class="b" d="M240.18,348.76a.5.5,0,0,0-.5-.5h0a.5.5,0,0,0-.5.5L239.13,366h1Z" transform="translate(-195.54 -324.6)"/><path class="a" d="M239.13,366v.69L238.83,473a.5.5,0,0,0,.5.5h0a.51.51,0,0,0,.5-.5l.3-107Z" transform="translate(-195.54 -324.6)"/><path class="b" d="M257.2,404.72H221.46a.5.5,0,0,1-.5-.5.5.5,0,0,1,.5-.5H257.2a.51.51,0,0,1,.5.5A.5.5,0,0,1,257.2,404.72Z" transform="translate(-195.54 -324.6)"/><path class="a" d="M257.2,450.08H221.46a.5.5,0,1,1,0-1H257.2a.5.5,0,0,1,0,1Z" transform="translate(-195.54 -324.6)"/><path class="a" d="M257.2,427.4H221.46a.5.5,0,0,1-.5-.5.5.5,0,0,1,.5-.5H257.2a.51.51,0,0,1,.5.5A.5.5,0,0,1,257.2,427.4Z" transform="translate(-195.54 -324.6)"/><path class="b" d="M239.69,365.24a.5.5,0,0,1-.5-.5.5.5,0,0,1,.5-.5h17.86a.5.5,0,0,1,.5.5.5.5,0,0,1-.5.5H239.69" transform="translate(-195.54 -324.6)"/><path class="b" d="M257.55,361.49H239.69a.5.5,0,0,1-.5-.5.5.5,0,0,1,.5-.5h17.86a.5.5,0,0,1,.5.5A.5.5,0,0,1,257.55,361.49Z" transform="translate(-195.54 -324.6)"/><path class="a" d="M233.28,481.68c0-2.6,1.72-4.1,3.69-4.1a3.28,3.28,0,0,1,2.35,1l-.93,1.13a1.93,1.93,0,0,0-1.38-.62c-1.07,0-1.92.94-1.92,2.51s.75,2.54,1.89,2.54a2.06,2.06,0,0,0,1.53-.73l.94,1.11a3.25,3.25,0,0,1-2.53,1.15C234.94,485.69,233.28,484.31,233.28,481.68Z" transform="translate(-195.54 -324.6)"/><path class="a" d="M240.64,477.73h1.76v3h2.7v-3h1.77v7.81H245.1v-3.26h-2.7v3.26h-1.76Z" transform="translate(-195.54 -324.6)"/><path class="a" d="M248.06,489c1.13-1.07,1.93-1.83,1.93-2.46a.6.6,0,0,0-.63-.67,1.15,1.15,0,0,0-.79.45l-.56-.55a1.87,1.87,0,0,1,1.49-.7,1.36,1.36,0,0,1,1.47,1.41c0,.75-.7,1.54-1.42,2.3a6.32,6.32,0,0,1,.74-.06h.89v.87h-3.12Z" transform="translate(-195.54 -324.6)"/><path class="a" d="M252.05,481.6c0-2.55,1.44-4,3.55-4s3.55,1.48,3.55,4-1.44,4.09-3.55,4.09S252.05,484.15,252.05,481.6Zm5.29,0c0-1.57-.67-2.49-1.74-2.49s-1.74.92-1.74,2.49.67,2.56,1.74,2.56S257.34,483.17,257.34,481.6Z" transform="translate(-195.54 -324.6)"/><path class="a" d="M260.63,477.73h1.76v3h2.7v-3h1.77v7.81h-1.77v-3.26h-2.7v3.26h-1.76Z" transform="translate(-195.54 -324.6)"/><path class="a" d="M261.1,426.74c0-2.56,1.44-4,3.55-4s3.55,1.47,3.55,4-1.44,4.08-3.55,4.08S261.1,429.29,261.1,426.74Zm5.29,0c0-1.57-.68-2.5-1.74-2.5s-1.74.93-1.74,2.5.67,2.56,1.74,2.56S266.39,428.3,266.39,426.74Z" transform="translate(-195.54 -324.6)"/><path class="a" d="M269.68,422.86h1.76v3h2.7v-3h1.77v7.82h-1.77v-3.26h-2.7v3.26h-1.76Z" transform="translate(-195.54 -324.6)"/><path class="a" d="M261.1,449.8c0-2.56,1.44-4,3.55-4s3.55,1.47,3.55,4-1.44,4.08-3.55,4.08S261.1,452.35,261.1,449.8Zm5.29,0c0-1.57-.68-2.49-1.74-2.49s-1.74.92-1.74,2.49.67,2.56,1.74,2.56S266.39,451.37,266.39,449.8Z" transform="translate(-195.54 -324.6)"/><path class="a" d="M269.68,445.92h1.76v3h2.7v-3h1.77v7.82h-1.77v-3.26h-2.7v3.26h-1.76Z" transform="translate(-195.54 -324.6)"/><path class="b" d="M261.47,400.07h1.77v3h2.69v-3h1.77v7.82h-1.77v-3.27h-2.69v3.27h-1.77Z" transform="translate(-195.54 -324.6)"/><path class="a" d="M210.69,445.92h1.76v3h2.7v-3h1.77v7.82h-1.77v-3.26h-2.7v3.26h-1.76Z" transform="translate(-195.54 -324.6)"/><path class="a" d="M210.69,422.86h1.76v3h2.7v-3h1.77v7.82h-1.77v-3.26h-2.7v3.26h-1.76Z" transform="translate(-195.54 -324.6)"/><path class="b" d="M261.45,362.6c0-2.55,1.44-4,3.55-4s3.55,1.48,3.55,4-1.44,4.09-3.55,4.09S261.45,365.16,261.45,362.6Zm5.29,0c0-1.57-.67-2.49-1.74-2.49s-1.74.92-1.74,2.49.68,2.56,1.74,2.56S266.74,364.17,266.74,362.6Z" transform="translate(-195.54 -324.6)"/><path class="b" d="M236.56,336.88h1.77v3H241v-3h1.77v7.82H241v-3.27h-2.69v3.27h-1.77Z" transform="translate(-195.54 -324.6)"/><path class="b" d="M203.3,400.07h1.77v3h2.7v-3h1.77v7.82h-1.77v-3.27h-2.7v3.27H203.3Z" transform="translate(-195.54 -324.6)"/><path class="b" d="M211,403.94c0-2.55,1.44-4,3.55-4s3.55,1.48,3.55,4-1.44,4.09-3.55,4.09S211,406.5,211,403.94Zm5.29,0c0-1.56-.67-2.49-1.74-2.49s-1.74.93-1.74,2.49.67,2.56,1.74,2.56S216.31,405.51,216.31,403.94Z" transform="translate(-195.54 -324.6)"/><path class="a" d="M257.2,382.05H221.46a.5.5,0,0,1-.5-.5.5.5,0,0,1,.5-.5H257.2a.5.5,0,0,1,.5.5A.51.51,0,0,1,257.2,382.05Z" transform="translate(-195.54 -324.6)"/><path class="a" d="M261.1,381.41c0-2.55,1.44-4,3.55-4s3.55,1.48,3.55,4-1.44,4.09-3.55,4.09S261.1,384,261.1,381.41Zm5.29,0c0-1.57-.67-2.49-1.74-2.49s-1.74.92-1.74,2.49.67,2.56,1.74,2.56S266.39,383,266.39,381.41Z" transform="translate(-195.54 -324.6)"/><path class="a" d="M269.68,377.54h1.76v3h2.7v-3h1.77v7.81h-1.77v-3.26h-2.7v3.26h-1.76Z" transform="translate(-195.54 -324.6)"/><path class="a" d="M212.33,377.53h1.76v3h2.7v-3h1.77v7.82h-1.77v-3.26h-2.7v3.26h-1.76Z" transform="translate(-195.54 -324.6)"/><path class="a" d="M419.29,366,419,473a.49.49,0,0,0,.49.5h0a.51.51,0,0,0,.5-.5l.3-107Z" transform="translate(-195.54 -324.6)"/><path class="b" d="M420.34,348.76a.5.5,0,0,0-.5-.5h0a.5.5,0,0,0-.5.5l0,17.24h1Z" transform="translate(-195.54 -324.6)"/><path class="b" d="M437.35,404.72H401.62a.5.5,0,0,1-.5-.5.5.5,0,0,1,.5-.5h35.73a.5.5,0,0,1,.5.5A.5.5,0,0,1,437.35,404.72Z" transform="translate(-195.54 -324.6)"/><path class="a" d="M437.35,450.08H401.62a.5.5,0,0,1,0-1h35.73a.5.5,0,0,1,0,1Z" transform="translate(-195.54 -324.6)"/><path class="b" d="M437.35,427.4H401.62a.5.5,0,0,1-.5-.5.5.5,0,0,1,.5-.5h35.73a.5.5,0,0,1,.5.5A.5.5,0,0,1,437.35,427.4Z" transform="translate(-195.54 -324.6)"/><path class="b" d="M437.71,365.24H419.84a.51.51,0,0,1-.5-.5.5.5,0,0,1,.5-.5h17.87a.5.5,0,0,1,.5.5A.5.5,0,0,1,437.71,365.24Z" transform="translate(-195.54 -324.6)"/><path class="b" d="M437.71,361.49H419.84a.51.51,0,0,1-.5-.5.5.5,0,0,1,.5-.5h17.87a.5.5,0,0,1,.5.5A.5.5,0,0,1,437.71,361.49Z" transform="translate(-195.54 -324.6)"/><path class="a" d="M413.44,481.68c0-2.6,1.72-4.1,3.69-4.1a3.28,3.28,0,0,1,2.35,1l-.93,1.13a1.93,1.93,0,0,0-1.38-.62c-1.07,0-1.92.94-1.92,2.51s.75,2.54,1.89,2.54a2.06,2.06,0,0,0,1.53-.73l.93,1.11a3.22,3.22,0,0,1-2.52,1.15C415.1,485.69,413.44,484.31,413.44,481.68Z" transform="translate(-195.54 -324.6)"/><path class="a" d="M420.8,477.73h1.76v3h2.7v-3H427v7.81h-1.77v-3.26h-2.7v3.26H420.8Z" transform="translate(-195.54 -324.6)"/><path class="a" d="M428.22,489c1.13-1.07,1.93-1.83,1.93-2.46a.6.6,0,0,0-.63-.67,1.15,1.15,0,0,0-.79.45l-.56-.55a1.87,1.87,0,0,1,1.49-.7,1.36,1.36,0,0,1,1.47,1.41c0,.75-.7,1.54-1.43,2.3a6.67,6.67,0,0,1,.75-.06h.89v.87h-3.12Z" transform="translate(-195.54 -324.6)"/><path class="a" d="M432.21,481.6c0-2.55,1.44-4,3.55-4s3.55,1.48,3.55,4-1.44,4.09-3.55,4.09S432.21,484.15,432.21,481.6Zm5.29,0c0-1.57-.68-2.49-1.74-2.49S434,480,434,481.6s.67,2.56,1.74,2.56S437.5,483.17,437.5,481.6Z" transform="translate(-195.54 -324.6)"/><path class="a" d="M440.79,477.73h1.76v3h2.7v-3H447v7.81h-1.77v-3.26h-2.7v3.26h-1.76Z" transform="translate(-195.54 -324.6)"/><path class="b" d="M441.26,426.74c0-2.56,1.44-4,3.55-4s3.55,1.47,3.55,4-1.44,4.08-3.55,4.08S441.26,429.29,441.26,426.74Zm5.29,0c0-1.57-.68-2.5-1.74-2.5s-1.74.93-1.74,2.5.67,2.56,1.74,2.56S446.55,428.3,446.55,426.74Z" transform="translate(-195.54 -324.6)"/><path class="b" d="M449.83,422.86h1.77v3h2.7v-3h1.77v7.82H454.3v-3.26h-2.7v3.26h-1.77Z" transform="translate(-195.54 -324.6)"/><path class="a" d="M441.26,449.8c0-2.56,1.44-4,3.55-4s3.55,1.47,3.55,4-1.44,4.08-3.55,4.08S441.26,452.35,441.26,449.8Zm5.29,0c0-1.57-.68-2.49-1.74-2.49s-1.74.92-1.74,2.49.67,2.56,1.74,2.56S446.55,451.37,446.55,449.8Z" transform="translate(-195.54 -324.6)"/><path class="a" d="M449.83,445.92h1.77v3h2.7v-3h1.77v7.82H454.3v-3.26h-2.7v3.26h-1.77Z" transform="translate(-195.54 -324.6)"/><path class="b" d="M441.63,400.07h1.76v3h2.7v-3h1.77v7.82h-1.77v-3.27h-2.7v3.27h-1.76Z" transform="translate(-195.54 -324.6)"/><path class="a" d="M390.84,445.92h1.77v3h2.7v-3h1.77v7.82h-1.77v-3.26h-2.7v3.26h-1.77Z" transform="translate(-195.54 -324.6)"/><path class="b" d="M383.46,422.86h1.77v3h2.7v-3h1.76v7.82h-1.76v-3.26h-2.7v3.26h-1.77Z" transform="translate(-195.54 -324.6)"/><path class="b" d="M391.18,426.74c0-2.56,1.44-4,3.55-4s3.55,1.47,3.55,4-1.44,4.08-3.55,4.08S391.18,429.29,391.18,426.74Zm5.29,0c0-1.57-.67-2.5-1.74-2.5s-1.74.93-1.74,2.5.67,2.56,1.74,2.56S396.47,428.3,396.47,426.74Z" transform="translate(-195.54 -324.6)"/><path class="b" d="M441.61,362.6c0-2.55,1.44-4,3.55-4s3.55,1.48,3.55,4-1.44,4.09-3.55,4.09S441.61,365.16,441.61,362.6Zm5.29,0c0-1.57-.67-2.49-1.74-2.49s-1.74.92-1.74,2.49.67,2.56,1.74,2.56S446.9,364.17,446.9,362.6Z" transform="translate(-195.54 -324.6)"/><path class="b" d="M416.72,336.88h1.76v3h2.7v-3H423v7.82h-1.77v-3.27h-2.7v3.27h-1.76Z" transform="translate(-195.54 -324.6)"/><path class="b" d="M383.46,400.07h1.77v3h2.7v-3h1.76v7.82h-1.76v-3.27h-2.7v3.27h-1.77Z" transform="translate(-195.54 -324.6)"/><path class="b" d="M391.18,403.94c0-2.55,1.44-4,3.55-4s3.55,1.48,3.55,4-1.44,4.09-3.55,4.09S391.18,406.5,391.18,403.94Zm5.29,0c0-1.56-.67-2.49-1.74-2.49s-1.74.93-1.74,2.49.67,2.56,1.74,2.56S396.47,405.51,396.47,403.94Z" transform="translate(-195.54 -324.6)"/><path class="a" d="M437.35,382.05H401.62a.5.5,0,0,1-.5-.5.5.5,0,0,1,.5-.5h35.73a.5.5,0,0,1,.5.5A.5.5,0,0,1,437.35,382.05Z" transform="translate(-195.54 -324.6)"/><path class="a" d="M441.26,381.41c0-2.55,1.44-4,3.55-4s3.55,1.48,3.55,4-1.44,4.09-3.55,4.09S441.26,384,441.26,381.41Zm5.29,0c0-1.57-.68-2.49-1.74-2.49s-1.74.92-1.74,2.49.67,2.56,1.74,2.56S446.55,383,446.55,381.41Z" transform="translate(-195.54 -324.6)"/><path class="a" d="M449.83,377.54h1.77v3h2.7v-3h1.77v7.81H454.3v-3.26h-2.7v3.26h-1.77Z" transform="translate(-195.54 -324.6)"/><path class="a" d="M392.48,377.53h1.77v3H397v-3h1.77v7.82H397v-3.26h-2.7v3.26h-1.77Z" transform="translate(-195.54 -324.6)"/><path class="a" d="M210.69,508.24h4.93v1.48h-3.17v6.34h-1.76Z" transform="translate(-195.54 -324.6)"/><path class="a" d="M214.75,516.08l.32-1.58a1.53,1.53,0,0,0,.34,0c.39,0,.67-.19,1-1.87.32-1.46.56-2.94.84-4.44h4.56v7.82h-1.77v-6.34h-1.43c-.19,1.11-.38,2.12-.57,3.15-.51,2.62-1.15,3.33-2.4,3.33A2.38,2.38,0,0,1,214.75,516.08Z" transform="translate(-195.54 -324.6)"/><path class="a" d="M223.68,508.24h1.77v3h2.32v1.54h-2.32v3.27h-1.77Zm3.07,3.87c0-2.55,1.31-4,3.4-4s3.45,1.47,3.45,4-1.35,4.09-3.45,4.09S226.75,514.67,226.75,512.11Zm5,0c0-1.56-.58-2.49-1.64-2.49s-1.63.93-1.63,2.49.58,2.56,1.63,2.56S231.79,513.68,231.79,512.11Z" transform="translate(-195.54 -324.6)"/><path class="a" d="M235.08,508.24h1.77v3.07h1.89l2.9,4.75h-1.85l-2.08-3.33h-.86v3.33h-1.77Zm2.46,3.37,1.19-2.1a2.19,2.19,0,0,1,2.07-1.41,1.66,1.66,0,0,1,.64.1l-.29,1.6a1,1,0,0,0-.34-.05c-.36,0-.56.16-.88.71l-.86,1.5Z" transform="translate(-195.54 -324.6)"/><path class="a" d="M242.06,512.11c0-2.55,1.44-4,3.55-4s3.55,1.47,3.55,4-1.44,4.09-3.55,4.09S242.06,514.67,242.06,512.11Zm5.29,0c0-1.56-.68-2.49-1.74-2.49s-1.74.93-1.74,2.49.67,2.56,1.74,2.56S247.35,513.68,247.35,512.11Z" transform="translate(-195.54 -324.6)"/><path class="a" d="M249.49,515.12l.94-1.21a2.72,2.72,0,0,0,1.92.76c.81,0,1.37-.37,1.37-1s-.46-1-1.42-1h-1.05v-1.3h.81c.94,0,1.29-.33,1.29-.89s-.46-.86-1.11-.86a2.56,2.56,0,0,0-1.6.6l-.89-1.17a3.78,3.78,0,0,1,2.55-.95c1.8,0,2.78.79,2.78,2.1a1.78,1.78,0,0,1-1,1.69v0a1.83,1.83,0,0,1,1.37,1.82c0,1.61-1.34,2.45-3.08,2.45A4.1,4.1,0,0,1,249.49,515.12Z" transform="translate(-195.54 -324.6)"/><path class="a" d="M258.22,508.24h2.12l2.45,7.82h-1.87l-1-4c-.22-.78-.43-1.71-.64-2.52h-.05c-.18.82-.39,1.74-.61,2.52l-1,4h-1.8Zm-.84,4.58h3.77v1.37h-3.77Z" transform="translate(-195.54 -324.6)"/><path class="a" d="M301.62,512.11c0-2,1.43-3,3.71-3H306c2.27,0,3.7,1,3.7,3s-1.43,3-3.7,3h-.68C303.05,515.16,301.62,514.15,301.62,512.11Zm4.53,1.75c1.17,0,1.91-.56,1.91-1.75s-.74-1.69-1.91-1.69h-1c-1.17,0-1.91.51-1.91,1.69s.74,1.75,1.91,1.75Zm-1.24-5.76h1.52v8.1h-1.52Z" transform="translate(-195.54 -324.6)"/><path class="a" d="M311.18,508.24h2.69c1.71,0,3.1.62,3.1,2.51s-1.4,2.65-3.06,2.65h-1v2.66h-1.77Zm2.63,3.76c1,0,1.43-.43,1.43-1.25s-.52-1.11-1.48-1.11H313V512Z" transform="translate(-195.54 -324.6)"/><path class="a" d="M318,516l.32-1.52a1.71,1.71,0,0,0,.59.09.81.81,0,0,0,.75-.36l.12-.24-2.66-5.77H319l.91,2.28.65,1.87h.05l.62-1.87.82-2.28h1.78l-2.42,6A2.53,2.53,0,0,1,319,516.2,2.57,2.57,0,0,1,318,516Z" transform="translate(-195.54 -324.6)"/><path class="a" d="M324.69,508.24h1.77v3.07h1.89l2.9,4.75h-1.86l-2.07-3.33h-.86v3.33h-1.77Zm2.46,3.37,1.19-2.1a2.18,2.18,0,0,1,2.07-1.41,1.66,1.66,0,0,1,.64.1l-.29,1.6a1,1,0,0,0-.34-.05c-.36,0-.56.16-.88.71l-.86,1.5Z" transform="translate(-195.54 -324.6)"/><path class="a" d="M333.68,509.72h-2.15v-1.48h6.07v1.48h-2.15v6.34h-1.77Z" transform="translate(-195.54 -324.6)"/><path class="a" d="M338.12,512.11c0-2.55,1.44-4,3.55-4s3.55,1.47,3.55,4-1.44,4.09-3.55,4.09S338.12,514.67,338.12,512.11Zm5.29,0c0-1.56-.67-2.49-1.74-2.49s-1.74.93-1.74,2.49.68,2.56,1.74,2.56S343.41,513.68,343.41,512.11Z" transform="translate(-195.54 -324.6)"/><path class="a" d="M345.56,515.12l.93-1.21a2.76,2.76,0,0,0,1.93.76c.8,0,1.37-.37,1.37-1s-.46-1-1.43-1h-1v-1.3h.8c.94,0,1.29-.33,1.29-.89s-.46-.86-1.1-.86a2.59,2.59,0,0,0-1.61.6l-.89-1.17a3.81,3.81,0,0,1,2.56-.95c1.79,0,2.77.79,2.77,2.1a1.77,1.77,0,0,1-1,1.69v0a1.83,1.83,0,0,1,1.36,1.82c0,1.61-1.34,2.45-3.07,2.45A4.07,4.07,0,0,1,345.56,515.12Z" transform="translate(-195.54 -324.6)"/><path class="a" d="M354.29,508.24h2.11l2.45,7.82H357l-1-4c-.21-.78-.42-1.71-.63-2.52h-.05c-.19.82-.4,1.74-.62,2.52l-1,4h-1.81Zm-.84,4.58h3.76v1.37h-3.76Z" transform="translate(-195.54 -324.6)"/><path class="a" d="M390.84,508.24h4.94v1.48h-3.17v6.34h-1.77Z" transform="translate(-195.54 -324.6)"/><path class="a" d="M397.83,508.24H400l2.45,7.82h-1.87l-1-4c-.22-.78-.43-1.71-.64-2.52h0c-.19.82-.4,1.74-.62,2.52l-1,4h-1.8Zm-.83,4.58h3.76v1.37H397Z" transform="translate(-195.54 -324.6)"/><path class="a" d="M402.4,516.08l.32-1.58a1.44,1.44,0,0,0,.33,0c.4,0,.67-.19,1-1.87.31-1.46.56-2.94.84-4.44h4.55v7.82h-1.76v-6.34h-1.43c-.2,1.11-.38,2.12-.58,3.15-.5,2.62-1.15,3.33-2.4,3.33A2.33,2.33,0,0,1,402.4,516.08Z" transform="translate(-195.54 -324.6)"/><path class="a" d="M412.78,508.24h2.12l2.45,7.82h-1.87l-1-4c-.22-.78-.43-1.71-.64-2.52h0c-.19.82-.4,1.74-.62,2.52l-1,4h-1.8Zm-.83,4.58h3.76v1.37H412Z" transform="translate(-195.54 -324.6)"/><path class="a" d="M418.2,508.24H420v3.07h1.89l2.91,4.75h-1.86l-2.08-3.33H420v3.33H418.2Zm2.46,3.37,1.19-2.1a2.19,2.19,0,0,1,2.07-1.41,1.66,1.66,0,0,1,.64.1l-.29,1.6a1,1,0,0,0-.34-.05c-.36,0-.56.16-.87.71l-.87,1.5Z" transform="translate(-195.54 -324.6)"/><path class="a" d="M427.2,509.72h-2.15v-1.48h6.07v1.48H429v6.34H427.2Z" transform="translate(-195.54 -324.6)"/><path class="a" d="M431.63,512.11c0-2.55,1.45-4,3.56-4s3.55,1.47,3.55,4-1.45,4.09-3.55,4.09S431.63,514.67,431.63,512.11Zm5.29,0c0-1.56-.67-2.49-1.73-2.49s-1.74.93-1.74,2.49.67,2.56,1.74,2.56S436.92,513.68,436.92,512.11Z" transform="translate(-195.54 -324.6)"/><path class="a" d="M439.07,515.12l.94-1.21a2.72,2.72,0,0,0,1.92.76c.81,0,1.37-.37,1.37-1s-.46-1-1.42-1h-1.05v-1.3h.81c.94,0,1.29-.33,1.29-.89s-.46-.86-1.11-.86a2.54,2.54,0,0,0-1.6.6l-.89-1.17a3.78,3.78,0,0,1,2.55-.95c1.8,0,2.77.79,2.77,2.1a1.77,1.77,0,0,1-1,1.69v0a1.83,1.83,0,0,1,1.37,1.82c0,1.61-1.34,2.45-3.08,2.45A4.1,4.1,0,0,1,439.07,515.12Z" transform="translate(-195.54 -324.6)"/><path class="a" d="M447.8,508.24h2.11l2.46,7.82H450.5l-1-4c-.22-.78-.43-1.71-.64-2.52h0c-.19.82-.39,1.74-.61,2.52l-1,4h-1.81Zm-.84,4.58h3.76v1.37H447Z" transform="translate(-195.54 -324.6)"/></svg>