<svg xmlns="http://www.w3.org/2000/svg" viewBox="0 0 15.72 14.55"><defs><style>.a{stroke:#000;stroke-miterlimit:10;stroke-width:0.75px;fill-rule:evenodd;}</style></defs><title>home</title><path class="a" d="M3.6,13.9V7.4h1v6.5a.47.47,0,0,0,.5.5h9a.47.47,0,0,0,.5-.5V7.4h1v6.5a1.54,1.54,0,0,1-1.5,1.5h-9A1.47,1.47,0,0,1,3.6,13.9Zm11-11V6.4l-2-2V2.9a.47.47,0,0,1,.5-.5h1A.54.54,0,0,1,14.6,2.9Z" transform="translate(-1.71 -1.22)"/><path class="a" d="M8.9,1.9a1,1,0,0,1,1.4,0h0l6.6,6.6a.49.49,0,0,1-.7.7L9.6,2.6,2.9,9.3a.48.48,0,0,1-.7,0h0c-.1-.2-.2-.5,0-.7h0Z" transform="translate(-1.71 -1.22)"/></svg>