<svg xmlns="http://www.w3.org/2000/svg" viewBox="0 0 15 13.79"><defs><style>.a{fill-rule:evenodd;}</style></defs><title>house</title><path class="a" d="M2,13.5V7H3v6.5a.5.5,0,0,0,.5.5h9a.5.5,0,0,0,.5-.5V7h1v6.5A1.5,1.5,0,0,1,12.5,15h-9A1.5,1.5,0,0,1,2,13.5Zm11-11V6L11,4V2.5a.5.5,0,0,1,.5-.5h1A.5.5,0,0,1,13,2.5Z" transform="translate(-0.5 -1.21)"/><path class="a" d="M7.29,1.5a1,1,0,0,1,1.42,0l6.64,6.65a.49.49,0,0,1-.7.7L8,2.21,1.35,8.85a.48.48,0,0,1-.7,0,.48.48,0,0,1,0-.7Z" transform="translate(-0.5 -1.21)"/></svg>