<svg xmlns="http://www.w3.org/2000/svg" viewBox="0 0 12.5 16.6"><defs><style>.a{stroke:#000;stroke-miterlimit:10;stroke-width:0.5px;}</style></defs><title>lighting</title><path class="a" d="M5.7,9.7a6,6,0,0,1,12,0A6.22,6.22,0,0,1,15.9,14a2.65,2.65,0,0,0-.5.6l-.8,1.8a.55.55,0,0,1-.5.3.5.5,0,0,1,0,1,.5.5,0,0,1,0,1l-.1.5a1.15,1.15,0,0,1-.9.6H10.3a1,1,0,0,1-.9-.6l-.2-.4a.5.5,0,0,1,0-1,.5.5,0,0,1,0-1,.55.55,0,0,1-.5-.3L8,14.7a2.65,2.65,0,0,0-.5-.6A6.47,6.47,0,0,1,5.7,9.7Zm6-5a5,5,0,0,0-5,5,4.75,4.75,0,0,0,1.5,3.6,5.5,5.5,0,0,1,.7.9l.6,1.5h4.3l.6-1.5a2.18,2.18,0,0,1,.7-.9,5,5,0,0,0,.1-7.1A4.74,4.74,0,0,0,11.7,4.7Z" transform="translate(-5.45 -3.45)"/></svg>